<svg width="70" height="70" viewBox="0 0 70 70" fill="none" xmlns="http://www.w3.org/2000/svg">
<g clip-path="url(#clip0_3019_4171)">
<path d="M8.75 26.25C7.58968 26.25 6.47688 26.7109 5.65641 27.5314C4.83594 28.3519 4.375 29.4647 4.375 30.625V48.125C4.375 49.2853 4.83594 50.3981 5.65641 51.2186C6.47688 52.039 7.58968 52.5 8.75 52.5C9.91032 52.5 11.0231 52.039 11.8436 51.2186C12.6641 50.3981 13.125 49.2853 13.125 48.125V30.625C13.125 29.4647 12.6641 28.3519 11.8436 27.5314C11.0231 26.7109 9.91032 26.25 8.75 26.25ZM61.25 26.25C60.0897 26.25 58.9769 26.7109 58.1564 27.5314C57.3359 28.3519 56.875 29.4647 56.875 30.625V48.125C56.875 49.2853 57.3359 50.3981 58.1564 51.2186C58.9769 52.039 60.0897 52.5 61.25 52.5C62.4103 52.5 63.5231 52.039 64.3436 51.2186C65.1641 50.3981 65.625 49.2853 65.625 48.125V30.625C65.625 29.4647 65.1641 28.3519 64.3436 27.5314C63.5231 26.7109 62.4103 26.25 61.25 26.25ZM17.5 52.7537C17.5 53.9141 17.9609 55.0269 18.7814 55.8473C19.6019 56.6678 20.7147 57.1287 21.875 57.1287V65.625C21.875 66.7853 22.3359 67.8981 23.1564 68.7186C23.9769 69.539 25.0897 70 26.25 70C27.4103 70 28.5231 69.539 29.3436 68.7186C30.1641 67.8981 30.625 66.7853 30.625 65.625V57.1287H39.375V65.625C39.375 66.7853 39.8359 67.8981 40.6564 68.7186C41.4769 69.539 42.5897 70 43.75 70C44.9103 70 46.0231 69.539 46.8436 68.7186C47.6641 67.8981 48.125 66.7853 48.125 65.625V57.1287C49.2853 57.1287 50.3981 56.6678 51.2186 55.8473C52.0391 55.0269 52.5 53.9141 52.5 52.7537V26.5037H17.5V52.7537ZM45.92 8.29936L49.8137 3.57873C50.1833 3.13143 50.36 2.55564 50.3051 1.97802C50.2501 1.40041 49.9679 0.868295 49.5206 0.498732C49.0733 0.12917 48.4975 -0.0475658 47.9199 0.00740583C47.3423 0.0623774 46.8102 0.344553 46.4406 0.791857L42.1838 5.94998C39.929 4.91822 37.4796 4.38119 35 4.37498C32.3969 4.37498 29.9469 4.97873 27.7287 6.00248L23.5856 0.822482C23.223 0.369376 22.6953 0.0788712 22.1185 0.0148744C21.5417 -0.0491223 20.9631 0.118632 20.51 0.481232C20.0569 0.843833 19.7664 1.37158 19.7024 1.94837C19.6384 2.52516 19.8061 3.10375 20.1688 3.55686L24.01 8.36061C21.9844 9.98398 20.3482 12.0405 19.2217 14.3792C18.0951 16.7178 17.5068 19.2792 17.5 21.875H52.5C52.5 16.3625 49.9013 11.5062 45.92 8.29936V8.29936ZM30.625 15.3125C30.0448 15.3125 29.4884 15.082 29.0782 14.6718C28.668 14.2615 28.4375 13.7051 28.4375 13.125C28.4375 12.5448 28.668 11.9884 29.0782 11.5782C29.4884 11.168 30.0448 10.9375 30.625 10.9375C31.2052 10.9375 31.7616 11.168 32.1718 11.5782C32.582 11.9884 32.8125 12.5448 32.8125 13.125C32.8125 13.7051 32.582 14.2615 32.1718 14.6718C31.7616 15.082 31.2052 15.3125 30.625 15.3125ZM39.375 15.3125C38.7948 15.3125 38.2384 15.082 37.8282 14.6718C37.418 14.2615 37.1875 13.7051 37.1875 13.125C37.1875 12.5448 37.418 11.9884 37.8282 11.5782C38.2384 11.168 38.7948 10.9375 39.375 10.9375C39.9552 10.9375 40.5116 11.168 40.9218 11.5782C41.332 11.9884 41.5625 12.5448 41.5625 13.125C41.5625 13.7051 41.332 14.2615 40.9218 14.6718C40.5116 15.082 39.9552 15.3125 39.375 15.3125Z" fill="#8BC34A"/>
</g>
<defs>
<clipPath id="clip0_3019_4171">
<rect width="70" height="70" fill="white"/>
</clipPath>
</defs>
</svg>
