<!-- Generated by IcoMoon.io -->
<svg version="1.1" xmlns="http://www.w3.org/2000/svg" width="28" height="32" viewBox="0 0 28 32">
<title>android</title>
<path d="M2 12c-0.53 0-1.039 0.211-1.414 0.586s-0.586 0.884-0.586 1.414v8c0 0.53 0.211 1.039 0.586 1.414s0.884 0.586 1.414 0.586 1.039-0.211 1.414-0.586c0.375-0.375 0.586-0.884 0.586-1.414v-8c0-0.53-0.211-1.039-0.586-1.414s-0.884-0.586-1.414-0.586zM26 12c-0.53 0-1.039 0.211-1.414 0.586s-0.586 0.884-0.586 1.414v8c0 0.53 0.211 1.039 0.586 1.414s0.884 0.586 1.414 0.586 1.039-0.211 1.414-0.586c0.375-0.375 0.586-0.884 0.586-1.414v-8c0-0.53-0.211-1.039-0.586-1.414s-0.884-0.586-1.414-0.586zM6 24.116c0 0.53 0.211 1.039 0.586 1.414s0.884 0.586 1.414 0.586v3.884c0 0.53 0.211 1.039 0.586 1.414s0.884 0.586 1.414 0.586 1.039-0.211 1.414-0.586c0.375-0.375 0.586-0.884 0.586-1.414v-3.884h4v3.884c0 0.53 0.211 1.039 0.586 1.414s0.884 0.586 1.414 0.586 1.039-0.211 1.414-0.586c0.375-0.375 0.586-0.884 0.586-1.414v-3.884c0.53 0 1.039-0.211 1.414-0.586s0.586-0.884 0.586-1.414v-12h-16v12zM18.992 3.794l1.78-2.158c0.169-0.204 0.25-0.468 0.225-0.732s-0.154-0.507-0.359-0.676c-0.204-0.169-0.468-0.25-0.732-0.225s-0.507 0.154-0.676 0.359l-1.946 2.358c-1.031-0.472-2.151-0.717-3.284-0.72-1.19 0-2.31 0.276-3.324 0.744l-1.894-2.368c-0.166-0.207-0.407-0.34-0.671-0.369s-0.528 0.047-0.735 0.213c-0.207 0.166-0.34 0.407-0.369 0.671s0.047 0.528 0.213 0.735l1.756 2.196c-0.926 0.742-1.674 1.682-2.189 2.751s-0.784 2.24-0.787 3.427h16c0-2.52-1.188-4.74-3.008-6.206zM12 7c-0.265 0-0.52-0.105-0.707-0.293s-0.293-0.442-0.293-0.707c0-0.265 0.105-0.52 0.293-0.707s0.442-0.293 0.707-0.293c0.265 0 0.52 0.105 0.707 0.293s0.293 0.442 0.293 0.707c0 0.265-0.105 0.52-0.293 0.707s-0.442 0.293-0.707 0.293zM16 7c-0.265 0-0.52-0.105-0.707-0.293s-0.293-0.442-0.293-0.707c0-0.265 0.105-0.52 0.293-0.707s0.442-0.293 0.707-0.293c0.265 0 0.52 0.105 0.707 0.293s0.293 0.442 0.293 0.707c0 0.265-0.105 0.52-0.293 0.707s-0.442 0.293-0.707 0.293z"></path>
</svg>
