<svg width="69" height="69" viewBox="0 0 69 69" fill="none" xmlns="http://www.w3.org/2000/svg">
<path d="M44.4821 11.7877C45.7605 10.3142 46.7353 8.6027 47.3505 6.75143C47.9656 4.90015 48.209 2.9456 48.0667 1C44.1418 1.31682 40.4984 3.1628 37.9215 6.14022C36.6875 7.56723 35.7524 9.22733 35.1715 11.0222C34.5907 12.8171 34.3758 14.7103 34.5398 16.5898C36.4543 16.6057 38.3469 16.1809 40.0709 15.3482C41.795 14.5155 43.3043 13.2972 44.4821 11.7877V11.7877ZM53.004 36.9478C53.0267 34.3565 53.7093 31.8137 54.9873 29.5594C56.2653 27.3051 58.0967 25.4136 60.3086 24.0634C58.9126 22.0521 57.0673 20.3936 54.9189 19.2196C52.7705 18.0456 50.3781 17.3884 47.9314 17.2999C42.6559 16.7588 37.7863 20.3773 34.9794 20.3773C32.1726 20.3773 28.216 17.3676 23.8197 17.4352C20.9457 17.5299 18.1453 18.3678 15.6916 19.8673C13.2379 21.3668 11.2147 23.4766 9.81938 25.991C3.86754 36.339 8.2976 51.7259 14.2494 60.0788C16.9548 64.1706 20.3365 68.8036 24.8004 68.6345C29.2643 68.4654 30.7184 65.8615 35.8925 65.8615C41.0665 65.8615 42.6559 68.6345 47.0522 68.5331C51.4484 68.4316 54.5596 64.3397 57.4003 60.2478C59.4125 57.2771 60.9844 54.0308 62.067 50.6099C59.387 49.467 57.1004 47.5639 55.4897 45.136C53.8791 42.708 53.0149 39.8614 53.004 36.9478V36.9478Z" fill="black"/>
</svg>
