<svg width="116" height="55" viewBox="0 0 116 55" fill="none" xmlns="http://www.w3.org/2000/svg">
<g opacity="0.3">
<path d="M30.1582 22.3052H35.4942V54.999H30.1582V22.3052Z" fill="#363636"/>
<path d="M54.0573 44.6373C54.0573 49.7025 49.8813 50.163 48.4892 50.163C45.2414 50.163 44.7774 47.17 44.7774 45.5583V32.8953H39.4414V45.328C39.4414 48.3212 40.3693 51.084 42.2253 52.6957C43.8493 54.3073 45.9374 54.998 48.4892 54.998C50.3453 54.998 52.6652 54.5375 54.0573 53.1562V54.998H59.3931V32.8953H54.0573V44.6373Z" fill="#363636"/>
<path d="M69.8307 24.8379H64.4947V32.8963H60.5508V37.9614H64.4947V54.999H69.8307V37.9614H73.7746V32.8963H69.8307V24.8379Z" fill="#363636"/>
<path d="M90.4769 48.3227C89.3169 49.2437 87.6929 49.9344 86.069 49.9344C82.3569 49.9344 79.8051 47.1715 79.8051 43.4879C79.8051 39.804 82.3569 37.2713 86.069 37.2713C87.6929 37.2713 89.3169 37.7319 90.4769 38.883L91.1729 39.5737L94.885 36.1202L93.9568 35.4295C91.8689 33.5877 89.085 32.4365 86.069 32.4365C79.573 32.4365 74.7012 37.2713 74.7012 43.718C74.7012 50.1647 79.573 54.9998 86.069 54.9998C89.085 54.9998 91.8689 53.8484 93.9568 52.0066L94.885 51.3159L91.1729 47.6321L90.4769 48.3227Z" fill="#363636"/>
<path d="M113.679 34.7381C112.055 33.1264 110.431 32.4357 107.879 32.4357C106.023 32.4357 104.167 32.8962 102.775 34.2776V22.3052H97.4395V54.999H102.775V42.7964C102.775 37.7311 106.255 37.2708 107.647 37.2708C110.895 37.2708 110.663 40.2638 110.663 41.8754V54.7686H115.999V42.1056C115.999 39.1126 115.303 36.3497 113.679 34.7381Z" fill="#363636"/>
<path d="M85.8388 47.4014C87.8888 47.4014 89.5509 45.7521 89.5509 43.7176C89.5509 41.683 87.8888 40.0337 85.8388 40.0337C83.7888 40.0337 82.127 41.683 82.127 43.7176C82.127 45.7521 83.7888 47.4014 85.8388 47.4014Z" fill="#363636"/>
<path d="M22.7358 46.9396C20.8798 48.7814 18.0958 49.9326 15.0799 49.9326C9.27992 49.9326 5.10396 45.3279 5.10396 39.1115C5.10396 32.895 9.27992 28.2903 15.3119 28.2903C18.0958 28.2903 20.8798 29.4415 22.9677 31.5137L23.6638 32.2043L27.1437 28.7508L26.4477 28.06C23.4319 25.067 19.4878 23.4553 15.3119 23.4553C6.49594 23.2251 0 30.1321 0 39.1115C0 48.0907 6.49594 54.9977 15.0799 54.9977C19.2558 54.9977 23.4319 53.3863 26.2158 50.3931L26.9118 49.7024L23.4319 46.2489L22.7358 46.9396Z" fill="#363636"/>
<path d="M5.46059 7.34477H3.20618V11.8479H1.18359V0.160531H5.2767C6.61978 0.160531 7.65638 0.462892 8.38653 1.06759C9.11668 1.67232 9.48175 2.54724 9.48175 3.69243C9.48175 4.47373 9.29254 5.12927 8.91416 5.65905C8.54109 6.18349 8.01878 6.58753 7.34725 6.87115L9.96142 11.7436V11.8479H7.79493L5.46059 7.34477ZM3.20618 5.71525H5.2847C5.96688 5.71525 6.49985 5.544 6.88358 5.20152C7.26731 4.85369 7.45917 4.38009 7.45917 3.78073C7.45917 3.15461 7.28063 2.67035 6.92355 2.32786C6.57181 1.98536 6.04416 1.80876 5.34068 1.79806H3.20618V5.71525ZM19.2678 6.63035H14.4872V10.2264H20.0753V11.8479H12.4646V0.160531H20.0193V1.79806H14.4872V5.02494H19.2678V6.63035ZM26.8875 9.30333L29.8454 0.160531H32.0678L27.8787 11.8479H25.9201L21.747 0.160531H23.9615L26.8875 9.30333ZM36.5855 11.8479H34.5709V0.160531H36.5855V11.8479ZM46.9393 6.63035H42.1585V10.2264H47.7467V11.8479H40.1359V0.160531H47.6908V1.79806H42.1585V5.02494H46.9393V6.63035ZM59.5872 8.95817L61.378 0.160531H63.3846L60.6985 11.8479H58.7639L56.5495 3.31517L54.2871 11.8479H52.3445L49.6583 0.160531H51.6648L53.4715 8.94214L55.6941 0.160531H57.3888L59.5872 8.95817ZM72.731 6.63035H67.9503V10.2264H73.5384V11.8479H65.9277V0.160531H73.4826V1.79806H67.9503V5.02494H72.731V6.63035ZM76.2495 11.8479V0.160531H79.6871C80.7157 0.160531 81.627 0.390641 82.4211 0.850861C83.2205 1.31108 83.8388 1.96395 84.2759 2.80947C84.7128 3.65497 84.9314 4.62358 84.9314 5.71525V6.30121C84.9314 7.40898 84.7102 8.38291 84.2679 9.22307C83.8308 10.0632 83.2045 10.7107 82.3892 11.1656C81.5791 11.6205 80.649 11.8479 79.5991 11.8479H76.2495ZM78.2721 1.79806V10.2264H79.5911C80.6516 10.2264 81.4645 9.89466 82.0294 9.2311C82.5998 8.56216 82.8902 7.60428 82.9008 6.35742V5.70722C82.9008 4.43894 82.6264 3.47035 82.0773 2.80143C81.5284 2.13252 80.7317 1.79806 79.6871 1.79806H78.2721ZM102.441 6.30927C102.441 7.45446 102.244 8.46053 101.849 9.32744C101.455 10.189 100.89 10.8526 100.155 11.3181C99.4243 11.7783 98.5824 12.0085 97.6283 12.0085C96.685 12.0085 95.8428 11.7783 95.1022 11.3181C94.3667 10.8526 93.7963 10.1917 93.3913 9.33547C92.9916 8.47925 92.7892 7.49192 92.7839 6.37349V5.71525C92.7839 4.57543 92.9836 3.56936 93.3833 2.69709C93.7883 1.82481 94.356 1.15857 95.0862 0.698345C95.8216 0.232782 96.6637 0 97.6123 0C98.5611 0 99.4004 0.23011 100.131 0.690331C100.866 1.14519 101.434 1.8034 101.833 2.66497C102.233 3.52119 102.436 4.51925 102.441 5.65905V6.30927ZM100.418 5.6992C100.418 4.40417 100.173 3.4115 99.6828 2.72119C99.198 2.03086 98.5077 1.68567 97.6123 1.68567C96.7382 1.68567 96.0534 2.03086 95.5578 2.72119C95.0674 3.40616 94.8169 4.37742 94.8063 5.63499V6.30927C94.8063 7.5936 95.0541 8.58625 95.5498 9.28728C96.0508 9.98832 96.7435 10.3388 97.6283 10.3388C98.5236 10.3388 99.2113 9.99636 99.691 9.31137C100.176 8.62638 100.418 7.62571 100.418 6.30927V5.6992ZM114.753 11.8479H112.731L107.542 3.556V11.8479H105.52V0.160531H107.542L112.747 8.48457V0.160531H114.753V11.8479Z" fill="#363636"/>
</g>
</svg>
