<svg width="38" height="38" viewBox="0 0 38 38" fill="none" xmlns="http://www.w3.org/2000/svg">
<path d="M18.9991 0.575684C14.1051 0.575684 10.0748 4.26053 9.55664 8.98174C11.7445 8.17568 13.4142 8.34841 13.5869 8.34841C14.3354 6.04538 16.4657 4.37568 18.9991 4.37568C21.5324 4.37568 23.7203 6.04538 24.4112 8.34841C24.4688 8.34841 26.2536 8.17568 28.4415 8.98174C27.8657 4.26053 23.8354 0.575684 18.9991 0.575684Z" fill="#363636"/>
<path d="M19.0001 6.27588C16.9274 6.27588 15.2001 8.00315 15.2001 10.0759C15.2001 12.1486 16.9274 13.8759 19.0001 13.8759C21.0728 13.8759 22.8001 12.1486 22.8001 10.0759C22.8001 8.00315 21.0728 6.27588 19.0001 6.27588ZM24.4122 29.6516C23.6637 31.9547 21.5334 33.6244 19.0001 33.6244C16.4667 33.6244 14.2789 31.9547 13.588 29.6516C13.3577 29.6516 11.9183 29.8819 9.61523 29.0183C10.0758 33.7395 14.1061 37.4244 19.0001 37.4244C23.894 37.4244 27.9243 33.7395 28.4425 29.0183C26.3122 29.8244 24.5274 29.6516 24.4122 29.6516Z" fill="#363636"/>
<path d="M18.9992 24.1242C16.9265 24.1242 15.1992 25.8515 15.1992 27.9242C15.1992 29.997 16.9265 31.7242 18.9992 31.7242C21.0719 31.7242 22.7992 29.997 22.7992 27.9242C22.7992 25.8515 21.0719 24.1242 18.9992 24.1242ZM36.6174 19C36.6174 13.7606 32.3568 9.5 27.1174 9.5C27.0598 9.5 27.0022 9.5 26.9447 9.5V13.3C27.0022 13.3 27.0598 13.3 27.1174 13.3C30.2841 13.3 32.8174 15.8333 32.8174 19C32.8174 22.1667 30.2841 24.7 27.1174 24.7C27.0598 24.7 27.0022 24.7 26.9447 24.7V28.5C32.3568 28.5576 36.6174 24.2394 36.6174 19Z" fill="#363636"/>
<path d="M27.1172 22.8C29.1899 22.8 30.9172 21.0727 30.9172 19C30.9172 16.9273 29.1899 15.2 27.1172 15.2C25.0445 15.2 23.3172 16.9273 23.3172 19C23.3172 21.0727 25.0445 22.8 27.1172 22.8ZM1.38086 19C1.38086 24.2394 5.64147 28.5576 11.0536 28.5V24.7C7.71419 24.7576 5.18086 22.1091 5.18086 19C5.18086 15.8333 7.71419 13.3 10.8809 13.3C10.9384 13.3 10.996 13.3 11.0536 13.3V9.5C10.996 9.5 10.9384 9.5 10.8809 9.5C5.64147 9.5 1.38086 13.7606 1.38086 19Z" fill="#FEF200"/>
<path d="M14.682 19.0002C14.682 16.9275 12.9548 15.2002 10.882 15.2002C8.8093 15.2002 7.08203 16.9275 7.08203 19.0002C7.08203 21.0729 8.8093 22.8002 10.882 22.8002C12.9548 22.8002 14.682 21.0729 14.682 19.0002Z" fill="#363636"/>
</svg>
