<svg width="248" height="55" viewBox="0 0 248 55" fill="none" xmlns="http://www.w3.org/2000/svg">
<g opacity="0.3">
<path d="M82.5957 31.5584H85.0715V33.5863C85.4498 32.7614 86.1375 32.1083 86.9972 31.7646C87.8913 31.3865 88.8885 31.1803 89.8857 31.2146C90.9173 31.1803 91.9833 31.4209 92.9117 31.8677C93.737 32.2802 94.4935 32.8645 95.0781 33.5863C95.6627 34.3425 96.1097 35.2018 96.3504 36.0954C96.6599 37.0922 96.7974 38.1234 96.7974 39.1545C96.7974 40.1857 96.6599 41.1825 96.3848 42.1793C96.1441 43.0729 95.697 43.9322 95.1125 44.654C94.5279 45.3415 93.7714 45.8914 92.9461 46.2695C92.0177 46.682 90.9861 46.9226 89.9545 46.8882C89.5418 46.8882 89.1292 46.8538 88.6822 46.7851C88.2351 46.682 87.7881 46.5789 87.3411 46.407C86.894 46.2008 86.4814 45.9602 86.0688 45.6852C85.6561 45.3758 85.3123 44.9978 85.0715 44.5853V52.319H82.5957V31.5584ZM94.0121 36.9204C93.8402 36.2673 93.5651 35.683 93.1524 35.133C92.7742 34.6175 92.2584 34.1706 91.7082 33.8956C91.0548 33.5863 90.3671 33.4144 89.645 33.4144C88.9229 33.3801 88.1663 33.5519 87.513 33.8956C86.9284 34.205 86.447 34.6518 86.1032 35.2018C85.7249 35.7517 85.4498 36.3704 85.3123 37.0235C85.1403 37.7109 85.0715 38.3984 85.0715 39.0858C85.0715 39.8076 85.1403 40.5294 85.3466 41.2169C85.4842 41.8699 85.7593 42.4886 86.1719 43.0386C86.5502 43.5541 87.066 44.001 87.6506 44.3103C88.3383 44.654 89.0948 44.8259 89.8513 44.7915C90.5734 44.8259 91.3299 44.654 91.9833 44.3103C92.5335 44.001 93.0149 43.5541 93.3587 43.0042C93.7026 42.4199 93.9433 41.8012 94.0809 41.1481C94.2184 40.4263 94.3216 39.7045 94.3216 38.9827C94.2872 38.2952 94.184 37.6078 93.9777 36.9547H94.0121V36.9204Z" fill="#363636"/>
<path d="M113.097 41.8354C112.891 43.3478 112.1 44.7227 110.896 45.6851C109.659 46.5787 108.18 47.06 106.667 46.9912C105.601 47.0256 104.535 46.8194 103.538 46.3725C102.678 45.9944 101.922 45.4445 101.303 44.757C100.684 44.0352 100.237 43.1759 99.9615 42.2479C99.652 41.2167 99.4801 40.1512 99.4457 39.0857C99.4113 37.9858 99.5833 36.9203 99.9615 35.8891C100.271 34.9611 100.787 34.1361 101.44 33.4143C102.059 32.7269 102.816 32.1769 103.675 31.7989C104.569 31.4208 105.532 31.2145 106.495 31.2145C107.63 31.1802 108.764 31.4551 109.762 32.0395C110.656 32.555 111.412 33.2768 111.962 34.1705C112.478 35.0298 112.857 35.9578 113.063 36.9546C113.269 37.917 113.338 38.8795 113.304 39.8419H102.059C102.059 40.4606 102.128 41.0793 102.3 41.6979C102.472 42.2823 102.747 42.8666 103.159 43.3134C103.572 43.7946 104.088 44.1384 104.638 44.379C105.291 44.6539 106.048 44.8258 106.77 44.7914C107.664 44.8258 108.558 44.5508 109.315 44.0352C110.037 43.4853 110.518 42.6947 110.656 41.8011L113.097 41.8354ZM110.69 37.6421C110.656 37.0921 110.518 36.5422 110.312 36.0266C110.106 35.511 109.796 35.0642 109.418 34.6861C109.04 34.308 108.558 33.9987 108.077 33.7924C107.561 33.5862 107.011 33.4487 106.461 33.4487C105.876 33.4487 105.291 33.5518 104.741 33.7924C104.225 33.9987 103.778 34.308 103.435 34.7205C103.056 35.0986 102.747 35.5798 102.541 36.061C102.334 36.5765 102.197 37.1265 102.162 37.6764L110.69 37.6421Z" fill="#363636"/>
<path d="M129.26 41.8354C129.053 43.3478 128.262 44.7227 127.093 45.6851C125.855 46.5787 124.377 47.06 122.864 46.9912C121.798 47.0256 120.732 46.8194 119.734 46.3725C118.875 45.9944 118.118 45.4445 117.499 44.757C116.88 44.0352 116.433 43.1759 116.158 42.2479C115.849 41.2167 115.677 40.1512 115.642 39.0857C115.608 37.9858 115.814 36.9203 116.193 35.8891C116.502 34.9611 117.018 34.1361 117.637 33.4143C118.256 32.7269 119.047 32.1769 119.872 31.7989C120.766 31.4208 121.729 31.2145 122.692 31.2145C123.826 31.1802 124.961 31.4551 125.958 32.0395C126.818 32.5894 127.54 33.2768 128.09 34.1361C128.606 34.9954 128.984 35.9235 129.191 36.9203C129.397 37.8827 129.466 38.8451 129.431 39.8075H118.256C118.221 40.4262 118.325 41.0793 118.496 41.6979C118.668 42.2823 118.943 42.8666 119.356 43.3134C119.769 43.7946 120.25 44.1384 120.835 44.379C121.488 44.6539 122.245 44.7914 122.967 44.7914C123.861 44.8258 124.755 44.5508 125.511 44.0352C126.233 43.4853 126.715 42.6947 126.852 41.8011L129.26 41.8354ZM126.887 37.6421C126.852 37.0921 126.715 36.5422 126.509 36.0266C126.302 35.511 125.993 35.0642 125.615 34.6861C125.236 34.308 124.755 33.9987 124.273 33.7924C123.758 33.5518 123.207 33.4487 122.657 33.4487C122.073 33.4487 121.488 33.5518 120.938 33.7924C120.422 33.9987 119.975 34.308 119.631 34.7205C119.253 35.0986 118.978 35.5798 118.772 36.061C118.565 36.5765 118.428 37.1265 118.393 37.6764L126.887 37.6421Z" fill="#363636"/>
<path d="M132.561 31.5584H134.83V34.7206C135.311 33.6551 136.068 32.6927 137.031 32.0052C137.994 31.4209 139.163 31.1116 140.298 31.2147V33.8269C139.507 33.8269 138.681 33.9644 137.925 34.2394C137.272 34.48 136.721 34.8925 136.309 35.4424C135.862 35.9924 135.552 36.6454 135.38 37.3672C135.174 38.1922 135.071 39.0515 135.071 39.9451V46.6133H132.561V31.5584Z" fill="#363636"/>
<path d="M144.424 28.8431V25.8528H145.524V28.8431H144.424ZM144.424 46.579V31.6616H145.524V46.579H144.424Z" fill="#363636"/>
<path d="M149.891 31.6615H150.991V34.9268C151.369 33.8269 152.091 32.8989 153.089 32.2802C154.086 31.6615 155.186 31.3522 156.355 31.3865C157.421 31.3522 158.487 31.5928 159.45 32.0396C160.138 32.4177 160.722 32.9676 161.066 33.6551C161.376 34.2738 161.582 34.9268 161.685 35.6143C161.685 36.2673 161.685 36.886 161.685 37.3672V46.5789H160.619V37.1266C160.619 36.7142 160.619 36.233 160.619 35.683C160.516 35.0987 160.344 34.5487 160.103 34.0675C159.828 33.5176 159.381 33.0708 158.831 32.7614C158.075 32.3833 157.249 32.2115 156.424 32.2115C154.911 32.1771 153.467 32.7958 152.504 33.9644C151.507 35.2362 150.991 36.8517 151.06 38.4671V46.5102H149.959L149.891 31.6615Z" fill="#363636"/>
<path d="M166.396 41.6293C166.43 42.8667 166.98 44.0697 167.909 44.8946C168.872 45.6852 170.075 46.0976 171.313 46.0633C171.863 46.0633 172.413 46.0289 172.929 45.8914C173.445 45.8226 173.961 45.6508 174.442 45.4102C174.924 45.1696 175.302 44.8259 175.611 44.4134C175.921 43.9666 176.093 43.4166 176.058 42.8667C176.093 42.2823 175.955 41.7324 175.646 41.2512C175.336 40.8387 174.924 40.5294 174.442 40.3232C173.926 40.0825 173.376 39.8763 172.826 39.7732L170.935 39.3951C170.316 39.2576 169.697 39.1201 169.078 38.8795C168.493 38.7077 167.943 38.5014 167.462 38.1921C166.98 37.8827 166.568 37.5047 166.293 36.9891C165.949 36.4391 165.811 35.7861 165.846 35.133C165.811 34.4799 165.983 33.7925 166.361 33.2425C166.671 32.7613 167.118 32.3489 167.634 32.0739C168.768 31.524 170.006 31.249 171.244 31.2834C172.654 31.2146 174.064 31.5927 175.233 32.3489C176.299 33.2425 176.884 34.6174 176.781 36.0267H175.611C175.715 34.8924 175.233 33.7925 174.373 33.1051C173.411 32.452 172.276 32.177 171.107 32.2114C170.11 32.2114 169.112 32.4176 168.218 32.8301C167.84 33.0363 167.496 33.3457 167.221 33.7238C166.946 34.1362 166.774 34.6174 166.808 35.0986C166.774 35.6142 166.946 36.1298 167.29 36.5079C167.599 36.886 167.978 37.1953 168.425 37.4015C168.665 37.5047 168.94 37.6078 169.215 37.7109L170.041 37.9859L170.935 38.1577C171.244 38.2265 171.519 38.2952 171.829 38.3983C173.17 38.5358 174.442 38.9483 175.611 39.6013C176.093 39.9107 176.471 40.3232 176.712 40.8387C176.987 41.4574 177.124 42.1105 177.09 42.7636C177.124 43.451 176.952 44.1041 176.609 44.6884C176.265 45.2383 175.783 45.6852 175.199 45.9945C174.614 46.3039 173.995 46.5445 173.342 46.6476C172.654 46.7851 171.966 46.8538 171.279 46.8538C169.731 46.9225 168.253 46.4413 167.049 45.4789C165.914 44.4821 165.227 43.0385 165.261 41.5262H166.396V41.6293Z" fill="#363636"/>
<path d="M180.98 28.8431V25.8528H182.183V28.8431H180.98ZM180.98 46.579V31.6616H182.183V46.579H180.98Z" fill="#363636"/>
<path d="M198.79 31.6613V45.8225C198.79 46.1318 198.79 46.613 198.79 47.3348C198.687 48.091 198.446 48.8472 198.102 49.5346C197.655 50.3596 197.002 51.047 196.177 51.4938C193.667 52.6281 190.812 52.5594 188.371 51.2532C187.236 50.4283 186.549 49.0534 186.583 47.6442H187.683C187.752 48.7785 188.371 49.8096 189.299 50.4627C190.262 51.0814 191.397 51.3907 192.566 51.3563C193.632 51.3907 194.698 51.1501 195.627 50.6345C196.314 50.2908 196.865 49.7409 197.243 49.0878C197.552 48.5379 197.759 47.9192 197.862 47.2661C197.862 46.7162 197.862 46.3381 197.862 46.0631V42.6259C196.933 44.7913 194.767 46.1318 192.429 46.0287C190.537 46.1662 188.715 45.3413 187.546 43.8633C186.411 42.3509 185.861 40.5292 185.93 38.6388C185.861 36.7827 186.445 34.9266 187.546 33.4486C188.715 32.005 190.469 31.2144 192.325 31.2832C193.46 31.2832 194.595 31.5925 195.592 32.1425C196.589 32.7268 197.312 33.6548 197.724 34.7204V31.5925H198.79V31.6613ZM188.233 34.2735C187.339 35.5797 186.858 37.1264 186.892 38.7075C186.858 40.323 187.339 41.9041 188.268 43.2102C189.196 44.482 190.675 45.2038 192.222 45.135C193.839 45.2382 195.386 44.482 196.349 43.1758C197.243 41.8697 197.724 40.323 197.655 38.7419C197.69 37.1608 197.243 35.5797 196.349 34.2735C195.386 33.0018 193.839 32.28 192.222 32.3487C190.641 32.2112 189.128 32.9674 188.233 34.2735Z" fill="#363636"/>
<path d="M204.018 25.8528V34.8582C204.361 33.7583 205.118 32.7959 206.081 32.2116C207.078 31.6273 208.178 31.3179 209.348 31.3179C210.413 31.2835 211.479 31.4898 212.442 31.971C213.13 32.3491 213.715 32.899 214.058 33.5864C214.368 34.2051 214.574 34.8582 214.677 35.5456C214.677 36.1987 214.677 36.8174 214.677 37.2986V46.5103H213.577V37.1267C213.577 36.7143 213.577 36.2331 213.577 35.6831C213.508 35.0988 213.336 34.5489 213.061 34.0677C212.786 33.5177 212.339 33.0365 211.789 32.7615C211.032 32.3834 210.207 32.2116 209.382 32.2116C207.869 32.1772 206.425 32.7959 205.462 33.9645C204.43 35.2363 203.914 36.8518 203.983 38.4673V46.5103H202.883V25.8528H204.018Z" fill="#363636"/>
<path d="M224.375 32.6241H221.108V43.0388C221.108 44.2074 221.417 44.9636 221.968 45.2729C222.724 45.6166 223.549 45.7541 224.34 45.6166V46.5791C223.79 46.6478 223.24 46.6478 222.724 46.5791C222.243 46.5447 221.761 46.3728 221.314 46.1322C220.902 45.8916 220.558 45.5135 220.351 45.0667C220.111 44.448 220.008 43.7606 220.042 43.1075V32.6241H217.291V31.6617H220.042V27.0215H221.142V31.6617H224.409V32.6241H224.375Z" fill="#363636"/>
<path d="M227.848 41.6293C227.882 42.901 228.433 44.0697 229.395 44.8946C230.358 45.6852 231.562 46.0976 232.8 46.0633C233.35 46.0633 233.9 45.9945 234.416 45.8914C234.932 45.8226 235.447 45.6508 235.929 45.4102C236.41 45.1696 236.789 44.8259 237.098 44.4134C237.408 43.9666 237.579 43.4166 237.545 42.8667C237.579 42.2823 237.442 41.7324 237.167 41.2512C236.857 40.8387 236.445 40.5294 235.963 40.3232C235.447 40.0825 234.897 39.8763 234.347 39.7732L232.456 39.3951C231.837 39.2576 231.218 39.0858 230.599 38.8795C230.014 38.7077 229.464 38.5014 228.983 38.1921C228.501 37.8827 228.089 37.5047 227.814 36.9891C227.504 36.4391 227.332 35.7861 227.367 35.133C227.332 34.4799 227.539 33.7925 227.882 33.2425C228.192 32.7613 228.639 32.3489 229.155 32.0739C230.289 31.524 231.527 31.249 232.765 31.2834C234.175 31.2146 235.551 31.5927 236.754 32.3489C237.855 33.2425 238.405 34.6174 238.302 36.0267H237.201C237.27 34.8924 236.823 33.7925 235.929 33.1051C235 32.4864 233.9 32.177 232.765 32.2114C231.768 32.2114 230.771 32.4176 229.877 32.8301C229.499 33.0363 229.155 33.3457 228.914 33.7238C228.639 34.1362 228.467 34.6174 228.501 35.0986C228.467 35.6142 228.639 36.1298 228.983 36.5079C229.292 36.886 229.671 37.1953 230.118 37.4015C230.358 37.5047 230.633 37.6078 230.874 37.7109L231.699 37.9859L232.593 38.1577C232.903 38.2265 233.178 38.2952 233.453 38.3983C234.794 38.5358 236.066 38.9483 237.236 39.6013C237.683 39.9107 238.095 40.3232 238.336 40.8387C238.611 41.4574 238.749 42.1105 238.714 42.7636C238.749 43.451 238.577 44.1384 238.198 44.6884C237.855 45.2383 237.373 45.6852 236.789 45.9945C236.204 46.3039 235.585 46.5445 234.932 46.6476C234.244 46.7851 233.556 46.8538 232.868 46.8538C231.321 46.9225 229.842 46.4413 228.639 45.4789C227.47 44.4821 226.816 43.0385 226.816 41.5262H227.848V41.6293Z" fill="#363636"/>
<path d="M240.33 42.4202H243.597V42.7295H242.187V46.4764H241.809V42.7639H240.399L240.33 42.4202Z" fill="#363636"/>
<path d="M244.078 42.4202H244.628L246.038 45.9608L247.448 42.4202H247.999V46.5108H247.62V43.0045L246.245 46.5108H245.832L244.456 43.0045V46.5108H244.078V42.4202Z" fill="#363636"/>
<path fill-rule="evenodd" clip-rule="evenodd" d="M141.711 9.86965L141.505 11.8634H140.714C139.614 11.8634 138.719 12.7228 138.719 13.8228C138.719 13.8571 138.719 13.8915 138.719 13.9259V18.5665H136.381V9.86965H138.582V10.9353C139.098 10.179 139.957 9.76652 140.852 9.86965H141.711Z" fill="#363636"/>
<path fill-rule="evenodd" clip-rule="evenodd" d="M125.379 18.6012H123.04V13.9606C123.04 12.9981 123.04 11.795 121.562 11.795C120.564 11.795 119.739 12.5512 119.739 13.5481C119.739 13.6512 119.739 13.72 119.739 13.8231V18.6012H117.4V9.86998H119.636V11.0044C120.22 10.145 121.218 9.62935 122.249 9.66373C124.657 9.66373 125.413 11.2794 125.413 13.0669V18.6012H125.379Z" fill="#363636"/>
<path fill-rule="evenodd" clip-rule="evenodd" d="M116.398 16.5042L116.261 18.5324C115.711 18.6699 115.195 18.7386 114.645 18.7386C112.444 18.7386 111.756 17.7417 111.756 15.7136V7.46362H114.094V9.86987H116.398L116.261 11.8636H114.06V15.5074C114.06 16.298 114.266 16.7792 115.126 16.7792C115.539 16.7792 115.986 16.6761 116.398 16.5042Z" fill="#363636"/>
<path fill-rule="evenodd" clip-rule="evenodd" d="M110.932 9.86965L110.726 11.8634H110.072C108.972 11.8634 108.078 12.7915 108.112 13.8915C108.112 13.9259 108.112 13.9259 108.112 13.9603V18.6009H105.773V9.86965H108.009V10.9353C108.525 10.179 109.453 9.76652 110.382 9.86965H110.932Z" fill="#363636"/>
<path fill-rule="evenodd" clip-rule="evenodd" d="M95.1504 17.6032C93.5342 18.4969 91.7117 18.9781 89.8548 18.9437C86.313 19.1156 83.3213 16.4002 83.1494 12.8599C83.1494 12.6881 83.1494 12.4818 83.1494 12.2756C83.0119 8.66654 85.7972 5.64182 89.4078 5.50433C89.5453 5.50433 89.7173 5.50433 89.8548 5.50433C91.7117 5.40122 93.5342 5.98554 94.9784 7.11981L93.3623 8.73529C92.3307 7.97911 91.0927 7.56665 89.8204 7.66976C87.5853 7.70413 85.7972 9.56021 85.8316 11.7944C85.8316 11.8975 85.8316 11.9662 85.8316 12.0694C85.5909 14.3035 87.207 16.2971 89.4422 16.5377C89.6141 16.5377 89.7517 16.5721 89.9236 16.5721C90.8864 16.6752 91.8492 16.5033 92.7433 16.1252V13.5473H89.9924L90.1987 11.3132H95.0816V17.6376L95.1504 17.6032Z" fill="#363636"/>
<path fill-rule="evenodd" clip-rule="evenodd" d="M135.246 15.0605H128.712C128.849 16.1262 129.778 16.9168 130.844 16.8824C131.773 16.9855 132.701 16.573 133.286 15.8168L134.833 17.0199C133.905 18.223 132.46 18.8762 130.947 18.8418C128.54 18.9449 126.476 17.0887 126.373 14.6824C126.373 14.5449 126.373 14.4074 126.373 14.2699C126.27 11.8637 128.093 9.83555 130.5 9.73242C130.638 9.73242 130.741 9.73242 130.878 9.73242C133.63 9.73242 135.177 11.348 135.177 14.4418V15.0949L135.246 15.0605ZM132.907 13.2387C132.907 12.2418 132.116 11.4168 131.119 11.4168C131.05 11.4168 130.982 11.4168 130.878 11.4168C129.847 11.4168 128.987 12.1387 128.815 13.1699L132.907 13.2387Z" fill="#363636"/>
<path fill-rule="evenodd" clip-rule="evenodd" d="M104.294 12.8949V18.6012H102.196V17.7074C101.508 18.498 100.476 18.8762 99.4447 18.773C97.8972 18.773 96.3496 17.9824 96.3496 16.1605C96.3496 13.273 99.6166 13.0668 101.646 13.0668H102.058V12.9293C102.058 12.0012 101.439 11.4512 100.236 11.4512C99.3759 11.4512 98.5162 11.7949 97.8972 12.3793L96.556 10.9699C97.622 10.0418 99.032 9.59491 100.442 9.62928C103.124 9.62928 104.328 10.9012 104.328 12.8949H104.294ZM102.024 14.7855H101.68C100.614 14.7855 98.585 14.7855 98.6537 15.9887C98.6537 17.6043 102.024 17.123 102.024 15.198V14.7855Z" fill="#363636"/>
<path d="M68.2586 55L51.925 47.4382C47.7298 49.2943 43.2251 50.2223 38.6517 50.2223C29.1266 50.4285 20.0485 46.1664 14.1684 38.6734C13.7213 38.1922 13.7557 37.436 14.2371 36.9548C14.7186 36.5079 15.4751 36.5423 15.9565 37.0235C16.0252 37.0923 16.0596 37.161 16.094 37.2298C21.5271 44.1385 29.9175 48.0569 38.7205 47.8163C43.122 47.8163 47.4891 46.8882 51.5123 45.0322L52.0281 44.7916L64.0291 50.3598L59.8683 38.9483L60.3153 38.3984C63.5477 34.7206 65.3358 29.9773 65.3701 25.0965C65.3701 12.5851 53.438 2.3767 38.7549 2.3767C30.0206 2.20484 21.7334 6.05449 16.3003 12.8601C15.9221 13.3413 15.2 13.4788 14.6842 13.1007C14.2028 12.6883 14.0996 12.0008 14.4435 11.4852C20.2892 4.06092 29.2641 -0.166815 38.7205 0.00504394C54.7103 0.00504394 67.7428 11.2446 67.7428 25.0965C67.7084 30.321 65.8859 35.3737 62.5848 39.4296L68.2586 55Z" fill="#363636"/>
<path fill-rule="evenodd" clip-rule="evenodd" d="M10.6263 14.8194L13.5148 20.972L20.0483 21.6251C20.0827 21.6594 20.117 21.6938 20.0827 21.7282L20.0483 21.7625L15.2341 26.6777L16.4377 32.8303C16.4377 32.8303 16.4377 32.9334 16.3001 32.899L10.5232 30.0118L4.71181 32.899C4.71181 32.899 4.57426 32.899 4.60865 32.7959L5.5027 26.6433L0.998047 21.7969V21.6594L7.15326 20.972L10.42 14.8194C10.42 14.7507 10.4544 14.7163 10.5232 14.7163C10.5919 14.7163 10.6263 14.7507 10.6263 14.8194Z" fill="#363636"/>
<path fill-rule="evenodd" clip-rule="evenodd" d="M31.3957 14.8191L34.2841 20.9717L40.8176 21.6247C40.852 21.6591 40.8864 21.6935 40.852 21.7278L40.8176 21.7622L35.9347 26.643L37.1726 32.7956C37.1726 32.8299 37.1382 32.8987 37.1038 32.8987C37.0695 32.8987 37.0695 32.8987 37.0351 32.8987L31.2237 30.0114L25.4811 32.8987C25.4468 32.9331 25.378 32.8987 25.378 32.8643C25.378 32.8299 25.378 32.8299 25.378 32.7956L26.2376 26.6774L21.7674 21.7966C21.733 21.7622 21.6986 21.7278 21.733 21.6935L21.7674 21.6591L27.957 20.9717L31.2237 14.8191H31.3957Z" fill="#363636"/>
<path fill-rule="evenodd" clip-rule="evenodd" d="M52.3007 14.8191L55.1892 20.9717L61.7227 21.6247C61.7571 21.6591 61.7914 21.6935 61.7571 21.7278L61.7227 21.7622L56.8398 26.6774L58.0777 32.8299C58.0777 32.8643 58.0433 32.9331 58.0089 32.9331C57.9745 32.9331 57.9745 32.9331 57.9401 32.9331L52.1288 30.0458L46.3862 32.9331C46.3518 32.9674 46.283 32.9331 46.283 32.8987C46.283 32.8643 46.283 32.8643 46.283 32.8299L47.1771 26.6774L42.7068 21.7966C42.6724 21.7622 42.6381 21.7278 42.6724 21.6935L42.7068 21.6591L48.8621 21.006L52.1288 14.8535H52.3007V14.8191Z" fill="#363636"/>
</g>
</svg>
