<svg width="38" height="38" viewBox="0 0 38 38" fill="none" xmlns="http://www.w3.org/2000/svg">
<path d="M17.8752 13.1257C18.0258 12.9816 18.2033 12.8686 18.3977 12.7932C18.7832 12.6349 19.2155 12.6349 19.601 12.7932C19.7954 12.8686 19.9729 12.9816 20.1235 13.1257L24.8735 17.8757C25.1717 18.1739 25.3392 18.5783 25.3392 18.9999C25.3392 19.4216 25.1717 19.8259 24.8735 20.1241C24.5754 20.4222 24.171 20.5897 23.7493 20.5897C23.3277 20.5897 22.9233 20.4222 22.6252 20.1241L20.5827 18.0657V23.7499C20.5827 24.1698 20.4159 24.5726 20.1189 24.8695C19.822 25.1664 19.4193 25.3332 18.9993 25.3332C18.5794 25.3332 18.1767 25.1664 17.8798 24.8695C17.5828 24.5726 17.416 24.1698 17.416 23.7499V18.0657L15.3735 20.1241C15.2263 20.2725 15.0512 20.3903 14.8583 20.4707C14.6653 20.551 14.4584 20.5924 14.2493 20.5924C14.0403 20.5924 13.8334 20.551 13.6404 20.4707C13.4475 20.3903 13.2724 20.2725 13.1252 20.1241C12.9768 19.9769 12.859 19.8018 12.7786 19.6088C12.6982 19.4159 12.6568 19.2089 12.6568 18.9999C12.6568 18.7909 12.6982 18.5839 12.7786 18.391C12.859 18.1981 12.9768 18.0229 13.1252 17.8757L17.8752 13.1257ZM18.9993 3.16658C22.1309 3.16658 25.1921 4.09519 27.7959 5.83498C30.3997 7.57477 32.4291 10.0476 33.6274 12.9408C34.8258 15.8339 35.1394 19.0175 34.5285 22.0888C33.9175 25.1602 32.4095 27.9814 30.1952 30.1958C27.9809 32.4101 25.1596 33.9181 22.0883 34.529C19.0169 35.1399 15.8334 34.8264 12.9402 33.628C10.047 32.4296 7.5742 30.4002 5.83441 27.7964C4.09462 25.1927 3.16602 22.1314 3.16602 18.9999C3.16602 14.8007 4.83417 10.7734 7.80349 7.80406C9.27375 6.3338 11.0192 5.16752 12.9402 4.37182C14.8612 3.57612 16.9201 3.16658 18.9993 3.16658Z" fill="#363636"/>
<path d="M18.3971 12.7857C18.2027 12.861 18.0252 12.974 17.8746 13.1182L13.1246 17.8682C12.9762 18.0154 12.8584 18.1905 12.778 18.3834C12.6976 18.5764 12.6562 18.7833 12.6562 18.9924C12.6562 19.2014 12.6976 19.4083 12.778 19.6013C12.8584 19.7942 12.9762 19.9693 13.1246 20.1165C13.2718 20.2649 13.4469 20.3827 13.6399 20.4631C13.8328 20.5435 14.0397 20.5849 14.2488 20.5849C14.4578 20.5849 14.6647 20.5435 14.8577 20.4631C15.0506 20.3827 15.2257 20.2649 15.3729 20.1165L17.4154 18.0582V23.7424C17.4154 24.1623 17.5822 24.565 17.8792 24.8619C18.1761 25.1589 18.5788 25.3257 18.9988 25.3257C19.4187 25.3257 19.8214 25.1589 20.1183 24.8619C20.4153 24.565 20.5821 24.1623 20.5821 23.7424V18.0582L22.6246 20.1165C22.9227 20.4147 23.3271 20.5822 23.7488 20.5822C24.1704 20.5822 24.5748 20.4147 24.8729 20.1165C25.1711 19.8184 25.3386 19.414 25.3386 18.9924C25.3386 18.5707 25.1711 18.1663 24.8729 17.8682L20.1229 13.1182C19.9723 12.974 19.7948 12.861 19.6004 12.7857C19.215 12.6273 18.7826 12.6273 18.3971 12.7857Z" fill="#FEF200"/>
</svg>
