<svg width="69" height="69" viewBox="0 0 69 69" fill="none" xmlns="http://www.w3.org/2000/svg">
<path d="M34.5 69C53.5538 69 69 53.5538 69 34.5C69 15.4462 53.5538 0 34.5 0C15.4462 0 0 15.4462 0 34.5C0 53.5538 15.4462 69 34.5 69Z" fill="#2B2E3A"/>
<path d="M27.0883 19.3226C20.0791 18.0461 14.537 19.3822 12.3282 23.2079C10.68 26.0628 11.1512 29.8478 13.471 33.8937C13.5168 33.9778 13.579 34.0518 13.6538 34.1115C13.7286 34.1712 13.8145 34.2154 13.9066 34.2414C13.9987 34.2674 14.0951 34.2748 14.1901 34.2631C14.2851 34.2514 14.3768 34.2209 14.4598 34.1732C14.5428 34.1256 14.6155 34.0619 14.6736 33.9858C14.7316 33.9098 14.7739 33.8229 14.798 33.7302C14.822 33.6376 14.8273 33.5411 14.8136 33.4464C14.7998 33.3517 14.7673 33.2606 14.7179 33.1787C12.6285 29.5341 12.2217 26.2676 13.5732 23.9267C15.4081 20.7487 20.3513 19.5568 26.8306 20.7368C27.0168 20.7678 27.2077 20.7244 27.3621 20.6158C27.5165 20.5072 27.622 20.3423 27.6559 20.1566C27.6897 19.9709 27.6491 19.7794 27.5429 19.6233C27.4367 19.4673 27.2734 19.3593 27.0883 19.3226V19.3226ZM17.1159 38.8116C19.95 41.926 23.6321 44.8475 27.8314 47.2716C37.9989 53.142 48.8233 54.711 54.1578 51.0737C54.2376 51.0213 54.3062 50.9535 54.3595 50.8743C54.4128 50.7951 54.4498 50.7061 54.4684 50.6125C54.4869 50.5189 54.4867 50.4225 54.4676 50.3289C54.4484 50.2354 54.4109 50.1466 54.3571 50.0678C54.3033 49.9889 54.2344 49.9215 54.1543 49.8696C54.0742 49.8177 53.9845 49.7822 53.8906 49.7653C53.7967 49.7484 53.7003 49.7504 53.6071 49.7711C53.5139 49.7919 53.4258 49.8309 53.3479 49.8861C48.5734 53.1415 38.2913 51.651 28.5502 46.027C24.4765 43.675 20.9109 40.846 18.1792 37.844C18.1158 37.7737 18.0391 37.7167 17.9536 37.6762C17.8681 37.6356 17.7754 37.6124 17.6809 37.6078C17.5864 37.6031 17.4919 37.6172 17.4028 37.6492C17.3137 37.6811 17.2318 37.7304 17.1618 37.7941C17.0919 37.8578 17.0351 37.9347 16.9949 38.0203C16.9547 38.106 16.9318 38.1988 16.9276 38.2933C16.9233 38.3878 16.9377 38.4823 16.97 38.5712C17.0024 38.6602 17.0519 38.7419 17.1159 38.8116V38.8116Z" fill="#9FEAF9"/>
<path d="M52.4562 37.9371C57.0458 32.5152 58.6481 27.0621 56.4439 23.2444C54.8221 20.4351 51.3934 18.9519 46.8365 18.8926C46.6476 18.8929 46.4665 18.9674 46.3322 19.1002C46.1978 19.233 46.1212 19.4133 46.1187 19.6021C46.1163 19.791 46.1883 19.9732 46.3191 20.1094C46.4499 20.2456 46.6291 20.3248 46.8179 20.33C50.9161 20.3834 53.8702 21.6612 55.1992 23.9633C57.0299 27.1343 55.6008 31.9972 51.3589 37.0083C51.2967 37.0802 51.2493 37.1637 51.2196 37.254C51.1898 37.3443 51.1783 37.4396 51.1857 37.5344C51.193 37.6292 51.2191 37.7216 51.2624 37.8063C51.3057 37.8909 51.3653 37.9661 51.4379 38.0275C51.5105 38.089 51.5945 38.1354 51.6852 38.1641C51.7758 38.1929 51.8712 38.2033 51.9659 38.1949C52.0606 38.1865 52.1527 38.1594 52.2369 38.1151C52.321 38.0709 52.3956 38.0104 52.4562 37.9371ZM40.6612 19.5618C36.5115 20.451 32.0945 22.1895 27.8526 24.6384C17.3565 30.6983 10.5096 39.6341 11.4605 46.1133C11.4732 46.2076 11.5044 46.2985 11.5525 46.3806C11.6005 46.4627 11.6644 46.5344 11.7404 46.5917C11.8164 46.6489 11.903 46.6905 11.9951 46.7141C12.0873 46.7376 12.1832 46.7426 12.2774 46.7288C12.3715 46.7149 12.4619 46.6826 12.5435 46.6335C12.625 46.5845 12.696 46.5198 12.7523 46.4431C12.8086 46.3664 12.8491 46.2793 12.8715 46.1869C12.8939 46.0944 12.8978 45.9984 12.8828 45.9045C12.0384 40.1516 18.5287 31.6816 28.5714 25.8834C32.6863 23.5075 36.9633 21.8243 40.9623 20.9674C41.0559 20.949 41.1449 20.9121 41.2241 20.8589C41.3033 20.8057 41.3711 20.7373 41.4235 20.6577C41.476 20.578 41.5121 20.4887 41.5298 20.3949C41.5474 20.3012 41.5462 20.2049 41.5262 20.1116C41.5062 20.0183 41.4679 19.93 41.4134 19.8517C41.3589 19.7734 41.2894 19.7067 41.2089 19.6555C41.1284 19.6043 41.0385 19.5697 40.9445 19.5536C40.8505 19.5375 40.7542 19.5403 40.6612 19.5618V19.5618Z" fill="#9FEAF9"/>
<path d="M23.6567 50.6052C26.0566 57.3057 29.9823 61.4314 34.3967 61.4314C37.6162 61.4314 40.5948 59.2366 42.9176 55.3729C42.9679 55.292 43.0016 55.2018 43.0167 55.1078C43.0319 55.0137 43.0281 54.9176 43.0058 54.8249C42.9834 54.7323 42.9429 54.6451 42.8865 54.5683C42.8301 54.4914 42.7591 54.4266 42.6774 54.3775C42.5957 54.3284 42.5051 54.2961 42.4109 54.2823C42.3166 54.2685 42.2205 54.2737 42.1282 54.2974C42.0359 54.3211 41.9493 54.3629 41.8733 54.4203C41.7973 54.4778 41.7335 54.5499 41.6856 54.6322C39.5981 58.1046 37.034 59.9937 34.3967 59.9937C30.7297 59.9937 27.2282 56.3141 25.0103 50.1208C24.9799 50.0301 24.9317 49.9464 24.8686 49.8746C24.8054 49.8027 24.7286 49.7442 24.6426 49.7025C24.5565 49.6607 24.463 49.6365 24.3675 49.6313C24.272 49.6262 24.1765 49.6401 24.0864 49.6723C23.9964 49.7046 23.9137 49.7544 23.8431 49.819C23.7726 49.8836 23.7157 49.9616 23.6757 50.0485C23.6357 50.1354 23.6134 50.2294 23.6102 50.3249C23.607 50.4205 23.6229 50.5158 23.6569 50.6052H23.6567ZM45.5755 49.2944C46.818 45.3248 47.4851 40.7454 47.4851 35.9734C47.4851 24.0658 43.3174 13.8009 37.3812 11.1652C37.2078 11.0926 37.0128 11.0907 36.8381 11.1602C36.6634 11.2296 36.5228 11.3647 36.4465 11.5365C36.3702 11.7084 36.3643 11.9032 36.43 12.0794C36.4957 12.2556 36.6278 12.399 36.7979 12.4789C42.0923 14.83 46.0474 24.5717 46.0474 35.9734C46.0474 40.6031 45.4014 45.0377 44.2039 48.8651C44.1741 48.9556 44.1626 49.0511 44.1701 49.146C44.1776 49.241 44.2039 49.3335 44.2475 49.4183C44.291 49.503 44.351 49.5782 44.4239 49.6395C44.4968 49.7009 44.5811 49.7471 44.672 49.7756C44.763 49.804 44.8586 49.8141 44.9535 49.8053C45.0483 49.7964 45.1405 49.7688 45.2246 49.7241C45.3086 49.6793 45.383 49.6183 45.4433 49.5445C45.5036 49.4707 45.5486 49.3857 45.5758 49.2944H45.5755ZM59.1124 48.5904C59.1124 46.6905 57.5723 45.1504 55.6724 45.1504C53.7725 45.1504 52.2324 46.6905 52.2324 48.5904C52.2324 50.4903 53.7725 52.0304 55.6724 52.0304C57.5723 52.0304 59.1124 50.4903 59.1124 48.5904ZM57.675 48.5904C57.675 48.8534 57.6232 49.1138 57.5226 49.3568C57.4219 49.5997 57.2744 49.8205 57.0885 50.0065C56.9025 50.1924 56.6817 50.3399 56.4388 50.4406C56.1958 50.5412 55.9354 50.593 55.6724 50.593C55.4094 50.593 55.149 50.5412 54.906 50.4406C54.6631 50.3399 54.4423 50.1924 54.2563 50.0065C54.0704 49.8205 53.9229 49.5997 53.8222 49.3568C53.7216 49.1138 53.6698 48.8534 53.6698 48.5904C53.6698 48.0593 53.8808 47.5499 54.2563 47.1743C54.6319 46.7988 55.1413 46.5878 55.6724 46.5878C56.2035 46.5878 56.7129 46.7988 57.0885 47.1743C57.464 47.5499 57.675 48.0593 57.675 48.5904ZM13.0714 52.0304C14.9716 52.0304 16.5117 50.4903 16.5117 48.5904C16.5117 46.6905 14.9713 45.1504 13.0714 45.1504C11.1717 45.1504 9.63135 46.6905 9.63135 48.5904C9.63135 50.4903 11.1717 52.0304 13.0714 52.0304ZM13.0714 50.593C12.5402 50.593 12.0309 50.382 11.6553 50.0065C11.2797 49.6309 11.0688 49.1215 11.0688 48.5904C11.0688 48.0593 11.2797 47.5499 11.6553 47.1743C12.0309 46.7988 12.5402 46.5878 13.0714 46.5878C13.6025 46.5878 14.1119 46.7988 14.4874 47.1743C14.863 47.5499 15.074 48.0593 15.074 48.5904C15.074 49.1215 14.863 49.6309 14.4874 50.0065C14.1119 50.382 13.6025 50.593 13.0714 50.593V50.593Z" fill="#9FEAF9"/>
<path d="M34.3966 14.6742C36.2965 14.6742 37.8366 13.1341 37.8366 11.2342C37.8366 9.33429 36.2965 7.79419 34.3966 7.79419C32.4966 7.79419 30.9565 9.33429 30.9565 11.2342C30.9565 13.1341 32.4966 14.6742 34.3966 14.6742V14.6742ZM34.3966 13.2368C33.8654 13.2368 33.3561 13.0258 32.9805 12.6503C32.6049 12.2747 32.394 11.7653 32.394 11.2342C32.394 10.7031 32.6049 10.1937 32.9805 9.81815C33.3561 9.44259 33.8654 9.2316 34.3966 9.2316C34.9277 9.2316 35.4371 9.44259 35.8126 9.81815C36.1882 10.1937 36.3992 10.7031 36.3992 11.2342C36.3992 11.7653 36.1882 12.2747 35.8126 12.6503C35.4371 13.0258 34.9277 13.2368 34.3966 13.2368V13.2368ZM34.9219 38.4062C33.5783 38.6965 32.2546 37.8426 31.9638 36.499C31.8245 35.8538 31.9472 35.1797 32.3048 34.6249C32.6625 34.0702 33.2258 33.6801 33.871 33.5406C35.2146 33.2503 36.5383 34.1042 36.8294 35.4478C37.1196 36.7914 36.2658 38.1154 34.9219 38.4062Z" fill="#9FEAF9"/>
</svg>
