<svg width="69" height="69" viewBox="0 0 69 69" fill="none" xmlns="http://www.w3.org/2000/svg">
<path d="M34.5 0C15.4462 0 0 15.4461 0 34.5C0 53.5539 15.4462 69 34.5 69C53.5539 69 69 53.5539 69 34.5C69 15.4461 53.5539 0 34.5 0ZM7.41318 34.8596L34.1403 61.5868C19.4641 61.3955 7.60441 49.5359 7.41318 34.8596ZM40.5634 60.9096L8.09043 28.4366C10.844 16.3938 21.6224 7.40865 34.5 7.40865C43.5017 7.40865 51.4764 11.8001 56.4028 18.5563L52.6519 21.866C48.6557 16.1352 42.0163 12.3846 34.5 12.3846C24.9303 12.3846 16.7809 18.4632 13.7006 26.9697L42.0303 55.2995C48.9102 52.8081 54.2014 47.0005 55.9735 39.8077H44.2308V34.5001H56.6154V34.4999H61.5913V34.5C61.5913 47.3776 52.6063 58.156 40.5634 60.9096Z" fill="#744C9E"/>
</svg>
