<svg width="69" height="68" viewBox="0 0 69 68" fill="none" xmlns="http://www.w3.org/2000/svg">
<path d="M43.495 27.8452C43.6621 28.182 43.3278 28.182 43.1607 28.182L37.4791 29.6974C36.9777 30.0341 36.6435 29.529 36.6435 29.529C33.1342 25.1512 25.7815 28.182 25.4473 34.5803C25.113 40.6418 32.9671 42.999 36.6435 36.9375H30.2934C29.7921 36.9375 28.9565 36.7691 29.7921 35.2538L31.1289 32.3914C31.4632 31.7179 31.6303 31.7179 32.6329 31.7179H44.3305C44.3305 45.3563 29.2907 51.4178 21.2695 43.1674C17.5932 39.2948 16.4234 30.5393 23.9433 24.3094C29.9592 19.4265 39.9857 19.4265 43.495 27.8452ZM46.1687 44.0093C38.6488 37.4426 42.6594 23.8042 54.5241 21.6154C66.723 19.4265 72.0705 30.876 67.2243 39.4632C63.2137 46.7033 52.5188 49.7341 46.1687 44.0093ZM61.8769 35.4221C63.3808 31.2128 60.3729 27.1717 55.861 27.5085C50.8477 28.0136 47.3384 34.5803 50.5135 38.4529C53.6886 42.1572 60.2058 40.4734 61.8769 35.4221ZM8.2351 35.0854V34.917L8.56931 34.0751L8.90353 33.9068H15.755L15.9221 34.0751L15.755 34.917L15.5879 35.0854H8.2351ZM0.213899 32.0546C0.213899 32.0546 -0.120318 32.0546 0.0467903 31.8863L0.715224 30.876L1.04944 30.7076H16.4234L16.5905 30.876L16.2563 31.7179L16.0892 31.8863L0.213899 32.0546ZM5.22715 28.8555L5.06004 28.6871L5.89558 27.8452L6.2298 27.6769H18.2616V27.8452L17.7603 28.6871L17.4261 28.8555H5.22715Z" fill="#00ACD7"/>
</svg>
