<svg width="142" height="55" viewBox="0 0 142 55" fill="none" xmlns="http://www.w3.org/2000/svg">
<g opacity="0.3">
<path d="M8.70161 41.1519C8.70161 41.1519 7.52636 41.0341 7.52636 42.0909V46.785H15.2876V48.1937C15.2876 48.1937 15.3107 48.8974 14.582 48.8974H7.52636V55.0001H15.9931C15.9931 55.0001 21.1195 54.2018 21.1669 48.8974V41.1519H8.70161ZM20.9311 33.6406H5.64451C0.116923 34.9547 0 39.5318 0 39.5318V55.0001H5.88039V40.9169C5.88039 39.72 7.05566 39.5093 7.05566 39.5093H20.9321V33.6406H20.9311ZM41.1122 50.5737C40.7091 50.8452 40.4108 51.0445 40.2001 51.1716C39.446 51.6426 38.7273 52.0058 38.0613 52.2957C37.0965 52.6943 36.2367 52.8938 35.4656 52.8938C32.8178 52.8938 30.6254 52.078 28.8535 50.4282C27.0816 48.7784 26.2068 46.7128 26.2068 44.2115C26.2068 41.8011 26.9959 39.7159 28.5915 37.939C30.187 36.163 32.1164 35.2922 34.3962 35.2922C35.3437 35.2922 36.3598 35.4552 37.4121 35.8009C38.78 36.2354 39.8844 36.8882 40.7615 37.7395L39.2353 39.4433C38.5874 38.8095 37.7457 38.3376 36.7629 38.0477C36.0271 37.83 35.2206 37.7222 34.3256 37.7222C32.73 37.7222 31.3795 38.3732 30.3101 39.661C29.2407 40.966 28.6974 42.5068 28.6974 44.3193C28.6974 46.1146 29.3102 47.5822 30.5379 48.7612C31.7655 49.939 33.3257 50.5372 35.2197 50.5372C36.0091 50.5372 36.8164 50.2827 37.6399 49.7947C38.3242 49.2687 38.6749 49.0145 38.6922 48.9961V45.2804H33.5718L34.3076 42.9606H41.1122V50.5737ZM56.5793 46.0413C56.5793 47.8357 55.9483 49.3947 54.6852 50.6999C53.4224 52.0047 51.8619 52.6761 50.0034 52.6761C48.2848 52.6761 46.7768 52.0231 45.4786 50.7365C44.1805 49.4499 43.5495 47.8904 43.5495 46.0597C43.5495 44.2472 44.1643 42.6879 45.3909 41.3464C46.6175 40.0046 48.1265 39.3527 49.8975 39.3527C51.8619 39.3527 53.4577 39.9874 54.7025 41.2742C55.9483 42.5252 56.5793 44.12 56.5793 46.0413ZM54.1764 46.0781C54.1764 44.8637 53.7731 43.8302 52.9666 42.9962C52.1602 42.1438 51.1605 41.7266 49.9681 41.7266C48.8463 41.7266 47.8988 42.162 47.1095 43.0327C46.3204 43.9024 45.9344 44.8991 45.9344 46.0232C45.9344 47.2019 46.3372 48.1987 47.1268 49.0327C47.9159 49.8669 48.8987 50.3011 50.09 50.3011C51.1959 50.3011 52.1422 49.8841 52.9498 49.0501C53.7731 48.2159 54.1773 47.2192 54.1773 46.0781H54.1764ZM71.8355 46.0413C71.8355 47.8357 71.2046 49.3947 69.9415 50.6999C68.6786 52.0047 67.1184 52.6761 65.2597 52.6761C63.5411 52.6761 62.0333 52.0231 60.7351 50.7365C59.4376 49.4499 58.8058 47.8904 58.8058 46.0597C58.8058 44.2472 59.4206 42.6879 60.6474 41.3464C61.8749 40.0046 63.383 39.3527 65.1537 39.3527C67.1184 39.3527 68.7137 39.9874 69.9588 41.2742C71.2046 42.5252 71.8355 44.12 71.8355 46.0413ZM69.4324 46.0781C69.4324 44.8637 69.0293 43.8302 68.2231 42.9962C67.4167 42.1438 66.4168 41.7266 65.2244 41.7266C64.1026 41.7266 63.1551 42.162 62.3658 43.0327C61.5767 43.9024 61.1907 44.8991 61.1907 46.0232C61.1907 47.2019 61.5938 48.1987 62.384 49.0327C63.1722 49.8669 64.155 50.3011 65.3474 50.3011C66.4519 50.3011 67.3987 49.8841 68.2058 49.0501C69.0293 48.2159 69.4336 47.2192 69.4336 46.0781H69.4324ZM85.9529 52.313L83.7435 52.6578V50.5004L83.2695 51.0436C82.8525 51.4381 82.3797 51.7682 81.8668 52.0231C81.1139 52.3736 80.294 52.5531 79.4646 52.549C77.746 52.549 76.2726 51.9143 75.0802 50.6266C73.8877 49.3389 73.2921 47.8173 73.2921 46.0413C73.2921 44.2106 73.8877 42.6339 75.0631 41.328C76.2382 40.0219 77.6756 39.3702 79.3942 39.3702C80.377 39.3702 81.2358 39.5327 81.9545 39.8594C82.4633 40.0952 82.9018 40.4035 83.2695 40.785C83.3926 40.9476 83.5156 41.1285 83.6387 41.2912V35.6361L85.9871 35.2913L85.9529 52.313ZM83.8837 46.2041C83.8837 44.9359 83.4623 43.8658 82.6035 42.9962C81.7449 42.1073 80.7789 41.6728 79.6754 41.6728C78.4478 41.6728 77.4659 42.0898 76.7119 42.924C76.0094 43.7203 75.6416 44.6998 75.6416 45.842C75.6416 47.1286 76.0094 48.1978 76.7463 49.0317C77.4819 49.8657 78.4125 50.2827 79.5523 50.2827C80.6743 50.2827 81.6569 49.9025 82.534 49.1235C83.4279 48.3249 83.8845 47.3465 83.8845 46.2041H83.8837ZM98.3506 37.9939H91.7747V42.5068H96.877V44.8269H91.7747V52.2957L89.2144 52.6761V35.6543H97.8415L98.3506 37.9939ZM103.629 36.6696L102.051 38.6815L100.543 36.6696L102.138 34.6759L103.629 36.6696ZM103.155 52.313L100.806 52.6396V40.0414L103.155 39.6791V52.3141V52.313ZM113.765 39.552L112.66 42.1254C112.515 42.1032 112.369 42.0912 112.222 42.0898C111.994 42.0898 111.766 42.108 111.538 42.1438C111.309 42.1795 111.064 42.2709 110.802 42.3981C110.311 42.6158 109.89 43.0868 109.522 43.7934C109.115 44.5958 108.904 45.485 108.907 46.3864V52.2957L106.558 52.6761V40.0414L108.733 39.6426V42.2709C109.013 41.8172 109.311 41.3646 109.591 40.8935C109.994 40.4219 110.468 40.078 110.994 39.8775C111.275 39.7697 111.784 39.6782 112.555 39.606C113.292 39.552 113.713 39.5155 113.765 39.552ZM131.265 52.313L128.916 52.6578V44.0113C128.916 43.2128 128.74 42.633 128.389 42.2709C128.039 41.9078 127.513 41.7266 126.828 41.7266C126.005 41.7266 125.373 42.0716 124.952 42.7601C124.671 43.2311 124.514 43.7385 124.514 44.2463V52.2946L122.164 52.7299V44.0651C122.164 43.3042 121.989 42.7236 121.655 42.3259C121.305 41.9261 120.849 41.7266 120.252 41.7266H120.025C119.2 41.7266 118.603 42.0716 118.235 42.7785C117.955 43.3042 117.815 43.9745 117.815 44.7904V52.2946L115.378 52.7299V40.0414L117.569 39.661V41.2742C117.815 40.8929 118.06 40.5846 118.289 40.3678C118.92 39.7697 119.657 39.4787 120.48 39.4787C121.409 39.4787 122.093 39.6244 122.567 39.9327C122.97 40.1869 123.356 40.6933 123.742 41.4186C124.548 40.132 125.688 39.4787 127.197 39.4787C128.634 39.4787 129.705 39.9327 130.406 40.8572C130.985 41.6179 131.265 42.7417 131.265 44.2106V52.313ZM142 48.4885C142 49.6483 141.597 50.6094 140.79 51.3528C139.984 52.1137 138.966 52.4768 137.738 52.4768C136.809 52.4768 135.984 52.2589 135.23 51.8238C134.476 51.3895 133.916 50.8992 133.547 50.3195L135.196 48.8334C135.318 49.0145 135.424 49.1589 135.529 49.2676C136.144 49.9025 136.88 50.2289 137.738 50.2289C138.335 50.2289 138.809 50.0662 139.141 49.7579C139.492 49.4499 139.65 49.0145 139.65 48.452C139.65 47.8182 139.247 47.3829 138.441 47.147C136.844 46.6576 135.984 46.3864 135.862 46.3312C135.126 45.951 134.6 45.5521 134.266 45.0986C133.898 44.5727 133.706 43.8842 133.706 42.9962C133.706 41.9078 134.109 41.0025 134.898 40.2773C135.687 39.552 136.633 39.2074 137.72 39.2074C138.546 39.2074 139.317 39.3883 140.018 39.7697C140.72 40.1501 141.228 40.549 141.526 41.0207L140.123 42.5608C139.912 42.3479 139.684 42.1538 139.44 41.9809C138.878 41.5822 138.335 41.3829 137.827 41.3829C137.335 41.3829 136.932 41.4917 136.616 41.7085C136.247 41.9808 136.055 42.3797 136.055 42.9056C136.055 43.4132 136.23 43.7934 136.599 44.0295C136.915 44.2288 137.581 44.4465 138.633 44.6816C139.685 44.9359 140.492 45.371 141.071 45.9875C141.72 46.6395 142 47.455 142 48.4885Z" fill="#363636"/>
<path d="M28.0707 0L31.1648 6.32612L38.0828 7.34056L33.0769 12.2647L34.2587 19.2178L28.0707 15.935L21.8829 19.2178L23.0645 12.2647L18.0586 7.34056L24.9768 6.32612L28.0707 0Z" fill="#363636"/>
<path d="M49.1274 0L52.2213 6.32612L59.1395 7.34056L54.1335 12.2647L55.3152 19.2178L49.1274 15.935L42.9395 19.2178L44.1212 12.2647L39.1152 7.34056L46.0332 6.32612L49.1274 0Z" fill="#363636"/>
<path d="M70.1823 0L73.2762 6.32612L80.1944 7.34056L75.1882 12.2647L76.3701 19.2178L70.1823 15.935L63.9942 19.2178L65.1761 12.2647L60.1699 7.34056L67.0881 6.32612L70.1823 0Z" fill="#363636"/>
<path d="M91.2387 0L94.3328 6.32612L101.251 7.34056L96.2449 12.2647L97.4265 19.2178L91.2387 15.935L85.0509 19.2178L86.2325 12.2647L81.2266 7.34056L88.1448 6.32612L91.2387 0Z" fill="#363636"/>
<path d="M112.293 0L115.387 6.32612L122.305 7.34056L117.3 12.2647L118.481 19.2178L112.293 15.935L106.106 19.2178L107.287 12.2647L102.281 7.34056L109.199 6.32612L112.293 0Z" fill="#363636"/>
</g>
</svg>
