<svg width="38" height="38" viewBox="0 0 38 38" fill="none" xmlns="http://www.w3.org/2000/svg">
<path d="M36.5758 12.5284L34.082 0.742506C34.0523 0.594068 33.9633 0.505006 33.8742 0.475318C33.8148 0.415943 33.6961 0.386256 33.518 0.415943C33.4586 0.415943 33.4289 0.445631 33.3695 0.475318L23.0977 6.62063C22.8898 6.73938 22.8008 7.03626 22.9492 7.24407C23.0086 7.33313 23.068 7.39251 23.157 7.42219L25.9773 8.63938L25.4133 10.0941C25.2352 10.5988 20.9305 21.5534 3.77109 21.5534C3.11797 21.5534 2.40547 21.5238 1.72266 21.4941H1.63359C1.57422 21.4941 1.54453 21.5238 1.48516 21.5534C1.45547 21.5831 1.42578 21.6425 1.42578 21.7019C1.42578 21.7909 1.48516 21.88 1.57422 21.9097L1.63359 21.9394C5.34453 23.1863 9.20391 23.8394 13.1227 23.8988C27.2836 23.8988 32.3602 13.3597 32.4195 13.2409L33.1023 11.7863L35.982 13.0331C36.1008 13.0925 36.2492 13.0628 36.3086 13.0331C36.3977 13.0034 36.4867 12.9441 36.5461 12.7956C36.6055 12.7066 36.6055 12.6175 36.5758 12.5284ZM3.44453 37.6144H10.8367V26.8972C8.34297 26.7191 5.87891 26.3331 3.44453 25.7097V37.6144ZM27.1648 23.1269V37.6144H34.557V15.7941H34.5273C33.4586 17.4863 31.1133 20.6034 27.1648 23.1269ZM15.2898 37.6144H22.682V25.3534C20.5445 26.155 18.1102 26.7191 15.2898 26.9269V37.6144Z" fill="#363636"/>
<path d="M36.5758 12.5284L34.082 0.742506C34.0523 0.594068 33.9633 0.505006 33.8742 0.475318C33.8148 0.415943 33.6961 0.386256 33.518 0.415943C33.4586 0.415943 33.4289 0.445631 33.3695 0.475318L23.0977 6.62063C22.8898 6.73938 22.8008 7.03626 22.9492 7.24407C23.0086 7.33313 23.068 7.39251 23.157 7.42219L25.9773 8.63938L25.4133 10.0941C25.2352 10.5988 20.9305 21.5534 3.77109 21.5534C3.11797 21.5534 2.40547 21.5238 1.72266 21.4941H1.63359C1.57422 21.4941 1.54453 21.5238 1.48516 21.5534C1.45547 21.5831 1.42578 21.6425 1.42578 21.7019C1.42578 21.7909 1.48516 21.88 1.57422 21.9097L1.63359 21.9394C5.34453 23.1863 9.20391 23.8394 13.1227 23.8988C27.2836 23.8988 32.3602 13.3597 32.4195 13.2409L33.1023 11.7863L35.982 13.0331C36.1008 13.0925 36.2492 13.0628 36.3086 13.0331C36.3977 13.0034 36.4867 12.9441 36.5461 12.7956C36.6055 12.7066 36.6055 12.6175 36.5758 12.5284Z" fill="#FEF200"/>
</svg>
