<svg width="38" height="38" viewBox="0 0 38 38" fill="none" xmlns="http://www.w3.org/2000/svg">
<path d="M33.8129 4.18425C34.5452 4.91501 34.3653 6.8919 32.7998 9.96255C33.0574 10.3548 33.3013 10.7568 33.5255 11.1712C35.1414 8.21826 36.2873 4.94418 34.6682 3.32873C33.0549 1.71255 29.7826 2.85745 26.83 4.47252C27.244 4.69681 27.6457 4.94062 28.0375 5.1983C31.1069 3.6331 33.0826 3.45231 33.8129 4.18425ZM5.1993 9.96255C3.63469 6.89197 3.45523 4.91479 4.18822 4.18329C4.91756 3.4526 6.89223 3.6331 9.96073 5.19734C10.3528 4.9395 10.7546 4.69547 11.1689 4.47111C8.21703 2.85626 4.94592 1.71173 3.33284 3.32792C1.71339 4.9441 2.85829 8.21834 4.47366 11.1716C4.69788 10.7571 4.94169 10.3549 5.1993 9.96255ZM4.18347 33.8118C3.45249 33.0823 3.63313 31.1071 5.19759 28.0385C4.93998 27.6462 4.69624 27.2441 4.4721 26.8296C2.85673 29.7818 1.71146 33.0538 3.32809 34.6671C4.94221 36.2845 8.21384 35.1422 11.1667 33.5285C10.7523 33.3041 10.3503 33.0602 9.95821 32.8022C6.88956 34.3643 4.91408 34.5434 4.18347 33.8118ZM32.8022 28.0373C34.3668 31.1069 34.5477 33.0823 33.8168 33.8116L33.816 33.8126C33.085 34.545 31.1091 34.3651 28.0404 32.8009C27.6487 33.0584 27.2473 33.3023 26.8333 33.5265C28.7776 34.59 30.8599 35.4503 32.5173 35.4503C33.3758 35.4503 34.12 35.2197 34.6714 34.668C36.2884 33.0545 35.1433 29.7815 33.5278 26.8283C33.3036 27.2429 33.0598 27.6451 32.8022 28.0373ZM15.5008 11.9078C15.6682 12.3972 16.1282 12.726 16.6454 12.726H21.3549C21.8721 12.726 22.3321 12.3972 22.4995 11.9078L25.2914 3.74629C25.5599 2.96128 24.9765 2.14502 24.1468 2.14502H13.8535C13.0238 2.14502 12.4404 2.96128 12.7089 3.74629L15.5008 11.9078ZM22.4995 26.0921C22.3321 25.6027 21.8721 25.2739 21.3549 25.2739L16.6454 25.2739C16.1282 25.2739 15.6682 25.6027 15.5008 26.0921L12.7089 34.2535C12.4404 35.0386 13.0238 35.8548 13.8535 35.8548L24.1468 35.8549C24.9765 35.8549 25.5599 35.0386 25.2914 34.2536L22.4995 26.0921ZM34.2538 12.7087L26.0923 15.5006C25.6029 15.668 25.2741 16.128 25.2741 16.6451V21.3546C25.2741 21.8718 25.6029 22.3318 26.0923 22.4991L34.2538 25.291C35.0388 25.5595 35.8551 24.9761 35.8551 24.1464V13.8533C35.8551 13.0236 35.0388 12.4402 34.2538 12.7087Z" fill="#FEF200"/>
<path d="M4.83281 12.2286L11.9287 14.6557C12.6117 13.5463 13.5457 12.6123 14.6551 11.9292L12.2265 4.83008C8.9967 6.37702 6.37886 8.99642 4.83281 12.2286ZM26.0703 14.6558L33.1659 12.2286C31.62 8.99724 29.0025 6.37828 25.7721 4.83127L23.3439 11.9293C24.4533 12.6124 25.3873 13.5463 26.0703 14.6558ZM11.9286 23.3446L4.83162 25.7724C6.37752 29.0039 8.99581 31.6235 12.2264 33.1705L14.6551 26.0711C13.5456 25.3881 12.6116 24.4541 11.9286 23.3446ZM33.1671 25.7722L26.0702 23.3448C25.3872 24.4542 24.4533 25.3881 23.3438 26.071L25.7721 33.1693C29.0034 31.6222 31.6214 29.0029 33.1671 25.7722ZM3.7458 25.2914L11.9073 22.4996C12.3967 22.3322 12.7255 21.8722 12.7255 21.355V16.6456C12.7255 16.1284 12.3967 15.6684 11.9073 15.501L3.74587 12.709C2.96086 12.4405 2.14461 13.0239 2.14461 13.8537L2.14453 24.1469C2.14453 24.9765 2.96079 25.56 3.7458 25.2914Z" fill="#363636"/>
</svg>
