<svg width="20" height="20" viewBox="0 0 20 20" fill="none" xmlns="http://www.w3.org/2000/svg">
<path d="M14.4493 4.55033C14.2516 4.55033 14.0582 4.60897 13.8938 4.71886C13.7293 4.82874 13.6012 4.98492 13.5255 5.16764C13.4498 5.35037 13.43 5.55143 13.4686 5.74542C13.5071 5.9394 13.6024 6.11758 13.7422 6.25743C13.8821 6.39728 14.0603 6.49253 14.2543 6.53111C14.4482 6.5697 14.6493 6.54989 14.832 6.47421C15.0148 6.39852 15.1709 6.27035 15.2808 6.1059C15.3907 5.94145 15.4494 5.74811 15.4494 5.55033C15.4494 5.28511 15.344 5.03076 15.1565 4.84322C14.9689 4.65568 14.7146 4.55033 14.4493 4.55033ZM18.2827 6.56699C18.2665 5.87557 18.137 5.19149 17.8993 4.54199C17.6875 3.98627 17.3577 3.48306 16.9327 3.06699C16.52 2.63985 16.0156 2.31214 15.4577 2.10866C14.8099 1.86379 14.1251 1.73133 13.4327 1.71699C12.5493 1.66699 12.266 1.66699 9.99935 1.66699C7.73268 1.66699 7.44935 1.66699 6.56602 1.71699C5.87364 1.73133 5.1888 1.86379 4.54102 2.10866C3.98408 2.3142 3.48013 2.64163 3.06602 3.06699C2.63887 3.47964 2.31116 3.98403 2.10768 4.54199C1.86282 5.18978 1.73036 5.87462 1.71602 6.56699C1.66602 7.45033 1.66602 7.73366 1.66602 10.0003C1.66602 12.267 1.66602 12.5503 1.71602 13.4337C1.73036 14.126 1.86282 14.8109 2.10768 15.4587C2.31116 16.0166 2.63887 16.521 3.06602 16.9337C3.48013 17.359 3.98408 17.6865 4.54102 17.892C5.1888 18.1369 5.87364 18.2693 6.56602 18.2837C7.44935 18.3337 7.73268 18.3337 9.99935 18.3337C12.266 18.3337 12.5493 18.3337 13.4327 18.2837C14.1251 18.2693 14.8099 18.1369 15.4577 17.892C16.0156 17.6885 16.52 17.3608 16.9327 16.9337C17.3596 16.5191 17.6896 16.0155 17.8993 15.4587C18.137 14.8092 18.2665 14.1251 18.2827 13.4337C18.2827 12.5503 18.3327 12.267 18.3327 10.0003C18.3327 7.73366 18.3327 7.45033 18.2827 6.56699ZM16.7827 13.3337C16.7766 13.8626 16.6808 14.3867 16.4993 14.8837C16.3663 15.2463 16.1526 15.574 15.8743 15.842C15.6041 16.1174 15.277 16.3307 14.916 16.467C14.4191 16.6485 13.895 16.7443 13.366 16.7503C12.5327 16.792 12.2243 16.8003 10.0327 16.8003C7.84102 16.8003 7.53268 16.8003 6.69935 16.7503C6.15009 16.7606 5.60318 16.676 5.08268 16.5003C4.7375 16.3571 4.42548 16.1443 4.16602 15.8753C3.88942 15.6076 3.67839 15.2797 3.54935 14.917C3.3459 14.413 3.23305 13.8769 3.21602 13.3337C3.21602 12.5003 3.16602 12.192 3.16602 10.0003C3.16602 7.80866 3.16602 7.50033 3.21602 6.66699C3.21975 6.12621 3.31847 5.59028 3.50768 5.08366C3.65439 4.73192 3.87957 4.41837 4.16602 4.16699C4.41919 3.88047 4.73209 3.65291 5.08268 3.50033C5.59064 3.31703 6.12601 3.22123 6.66602 3.21699C7.49935 3.21699 7.80768 3.16699 9.99935 3.16699C12.191 3.16699 12.4993 3.16699 13.3327 3.21699C13.8617 3.22306 14.3858 3.31886 14.8827 3.50033C15.2614 3.64087 15.6013 3.86936 15.8743 4.16699C16.1474 4.42297 16.3608 4.73594 16.4993 5.08366C16.6846 5.5911 16.7804 6.12681 16.7827 6.66699C16.8243 7.50033 16.8327 7.80866 16.8327 10.0003C16.8327 12.192 16.8243 12.5003 16.7827 13.3337ZM9.99935 5.72533C9.15419 5.72697 8.32848 5.9791 7.62656 6.44984C6.92464 6.92058 6.378 7.58882 6.05571 8.37012C5.73342 9.15142 5.64995 10.0107 5.81584 10.8394C5.98174 11.6682 6.38955 12.4291 6.98775 13.0261C7.58595 13.6232 8.34769 14.0295 9.17673 14.1938C10.0058 14.3581 10.8649 14.2729 11.6456 13.9491C12.4262 13.6253 13.0934 13.0774 13.5628 12.3745C14.0322 11.6717 14.2827 10.8455 14.2827 10.0003C14.2838 9.43791 14.1737 8.88083 13.9587 8.36112C13.7437 7.84141 13.4281 7.36933 13.0301 6.97203C12.632 6.57474 12.1593 6.26006 11.6392 6.0461C11.1191 5.83214 10.5618 5.72313 9.99935 5.72533ZM9.99935 12.7753C9.45051 12.7753 8.91399 12.6126 8.45764 12.3077C8.0013 12.0027 7.64562 11.5693 7.43558 11.0623C7.22555 10.5552 7.1706 9.99725 7.27767 9.45895C7.38474 8.92065 7.64904 8.4262 8.03713 8.0381C8.42522 7.65001 8.91968 7.38572 9.45797 7.27865C9.99627 7.17157 10.5542 7.22653 11.0613 7.43656C11.5684 7.64659 12.0018 8.00227 12.3067 8.45862C12.6116 8.91496 12.7743 9.45148 12.7743 10.0003C12.7743 10.3647 12.7026 10.7256 12.5631 11.0623C12.4237 11.399 12.2193 11.7049 11.9616 11.9625C11.7039 12.2202 11.398 12.4246 11.0613 12.5641C10.7246 12.7035 10.3638 12.7753 9.99935 12.7753Z" fill="white"/>
</svg>
