<svg width="69" height="69" viewBox="0 0 69 69" fill="none" xmlns="http://www.w3.org/2000/svg">
<path d="M34.5 48.2333C42.0846 48.2333 48.2331 42.0848 48.2331 34.5002C48.2331 26.9156 42.0846 20.7671 34.5 20.7671C26.9154 20.7671 20.7668 26.9156 20.7668 34.5002C20.7668 42.0848 26.9154 48.2333 34.5 48.2333Z" fill="#4E8EF7"/>
<path d="M62.5252 11.1971C62.5265 10.2914 62.2671 9.40451 61.7779 8.64232C61.2886 7.88014 60.5903 7.27493 59.7663 6.89902C58.9423 6.52311 58.0275 6.3924 57.1312 6.5225C56.2349 6.65259 55.395 7.038 54.7119 7.63267C47.9073 2.51249 39.4144 0.162785 30.9458 1.05735C22.4771 1.95192 14.6626 6.02422 9.078 12.4531C3.49338 18.882 0.554073 27.1892 0.852753 35.6998C1.15143 44.2103 4.66588 52.2911 10.6875 58.3127C16.709 64.3342 24.7898 67.8487 33.3003 68.1474C41.8109 68.446 50.1181 65.5067 56.547 59.9221C62.9759 54.3375 67.0482 46.523 67.9428 38.0543C68.8373 29.5857 66.4876 21.0928 61.3674 14.2882C62.1144 13.4317 62.5257 12.3336 62.5252 11.1971V11.1971ZM34.5 67.0079C29.3496 67.0121 24.2719 65.7925 19.6852 63.4495C15.0986 61.1065 11.1343 57.7072 8.11897 53.5316C5.10367 49.3561 3.12367 44.5239 2.3421 39.4331C1.56053 34.3423 1.99977 29.1386 3.62363 24.2509C5.24748 19.3631 8.00947 14.9312 11.682 11.3202C15.3546 7.70918 19.8326 5.02249 24.7471 3.48147C29.6616 1.94046 34.8719 1.58922 39.9488 2.45672C45.0256 3.32421 49.8237 5.3856 53.9477 8.47103C53.3033 9.37949 53.0012 10.4867 53.0949 11.5965C53.1886 12.7064 53.6721 13.7472 54.4596 14.5348C55.2472 15.3224 56.2881 15.8058 57.3979 15.8995C58.5077 15.9932 59.6149 15.6911 60.5234 15.0467C64.1318 19.8777 66.3254 25.6171 66.859 31.6233C67.3926 37.6295 66.2452 43.6657 63.545 49.0572C60.8448 54.4486 56.6983 58.9829 51.569 62.1529C46.4398 65.323 40.5299 67.004 34.5 67.0079Z" fill="#4E8EF7"/>
</svg>
