<svg width="69" height="69" viewBox="0 0 69 69" fill="none" xmlns="http://www.w3.org/2000/svg">
<path d="M26.5092 51.1553C26.5092 51.1553 24.1896 52.5083 28.16 52.9662C32.9702 53.5166 35.4285 53.4378 40.7294 52.4313C40.7294 52.4313 42.1232 53.3079 44.0693 54.0672C32.1864 59.1757 17.1756 53.7712 26.5092 51.1553ZM25.0571 44.4888C25.0571 44.4888 22.4554 46.4206 26.4288 46.8328C31.5672 47.3645 35.625 47.4081 42.6467 46.0518C42.6467 46.0518 43.618 47.0394 45.1451 47.5796C30.7777 51.7938 14.7751 47.9119 25.0571 44.4888Z" fill="#5382A1"/>
<path d="M37.2984 33.1802C40.2264 36.5616 36.5291 39.6046 36.5291 39.6046C36.5291 39.6046 43.9636 35.7547 40.5493 30.9336C37.3604 26.4379 34.9148 24.2038 48.1537 16.502C48.1537 16.502 27.3731 21.7081 37.2984 33.18" fill="#E76F00"/>
<path d="M53.0145 56.087C53.0145 56.087 54.7311 57.5057 51.1239 58.6033C44.265 60.6877 22.5759 61.3171 16.5508 58.6864C14.385 57.7414 18.4466 56.4297 19.7242 56.1543C21.0566 55.8645 21.8181 55.9186 21.8181 55.9186C19.4094 54.2164 6.24934 59.2607 15.1335 60.7052C39.3616 64.6466 59.2989 58.9305 53.0145 56.087ZM27.6245 37.5819C27.6245 37.5819 16.5922 40.2106 23.7178 41.1649C26.7264 41.569 32.7239 41.4777 38.3106 41.008C42.8763 40.6219 47.4608 39.8003 47.4608 39.8003C47.4608 39.8003 45.851 40.492 44.6862 41.2897C33.483 44.2454 11.8404 42.8705 18.071 39.8471C23.3403 37.2921 27.6246 37.5819 27.6246 37.5819H27.6245ZM47.4153 48.6787C58.8041 42.7423 53.5384 37.0375 49.863 37.8062C48.9621 37.9941 48.5605 38.157 48.5605 38.157C48.5605 38.157 48.895 37.6316 49.5337 37.4042C56.8046 34.8399 62.3965 44.967 47.1865 48.9779C47.1865 48.9781 47.3628 48.8201 47.4153 48.6787Z" fill="#5382A1"/>
<path d="M40.5492 4.06561C40.5492 4.06561 46.8564 10.3948 34.567 20.1267C24.7123 27.9336 32.3198 32.3849 34.563 37.4706C28.8106 32.2644 24.5889 27.6813 27.4212 23.4159C31.578 17.1543 43.0939 14.1186 40.5492 4.06543" fill="#E76F00"/>
<path d="M28.7438 64.7645C39.6755 65.4665 56.4623 64.3751 56.8598 59.1865C56.8598 59.1865 56.0957 61.1536 47.8254 62.7156C38.4949 64.4768 26.9873 64.2713 20.1619 63.1424C20.162 63.1424 21.5591 64.3025 28.7439 64.7645" fill="#5382A1"/>
</svg>
