<svg width="69" height="69" viewBox="0 0 69 69" fill="none" xmlns="http://www.w3.org/2000/svg">
<path d="M63.634 5.07349H4.81558C4.80606 5.07349 4.79834 5.08121 4.79834 5.09073V63.9092C4.79834 63.9187 4.80606 63.9264 4.81558 63.9264H63.634C63.6436 63.9264 63.6513 63.9187 63.6513 63.9092V5.09073C63.6513 5.08121 63.6436 5.07349 63.634 5.07349Z" fill="#F7DF1E"/>
<path d="M42.0413 47.6041C43.1908 49.5582 44.8 50.9376 47.4438 50.9376C49.7427 50.9376 51.2371 49.7881 51.2371 48.1788C51.2371 46.3397 49.7427 45.65 47.2139 44.5005L45.8345 43.9258C41.8114 42.2016 39.1676 40.1325 39.1676 35.6496C39.1676 31.5115 42.2712 28.293 47.2139 28.293C50.7773 28.293 53.3061 29.5574 55.0303 32.7759L50.7773 35.5346C49.8577 33.8104 48.8232 33.1207 47.2139 33.1207C45.6047 33.1207 44.5701 34.1553 44.5701 35.5346C44.5701 37.1439 45.6047 37.8336 48.0185 38.8681L49.3979 39.4428C54.1107 41.5119 56.7545 43.466 56.7545 48.1788C56.7545 53.1216 52.8463 55.8803 47.5588 55.8803C42.3861 55.8803 39.0527 53.4664 37.4434 50.2479L42.0413 47.6041ZM22.5003 48.0639C23.4199 49.5582 24.1095 50.9376 26.0636 50.9376C27.9028 50.9376 29.0523 50.2479 29.0523 47.4891V28.4079H34.5697V47.2592C34.5697 53.0066 31.2363 55.5354 26.2935 55.5354C21.8106 55.5354 19.2818 53.2365 18.0173 50.4778L22.5003 48.0639Z" fill="black"/>
</svg>
