<svg width="69" height="70" viewBox="0 0 69 70" fill="none" xmlns="http://www.w3.org/2000/svg">
<path d="M64.7547 33.6247C64.3196 33.1872 58.737 26.1148 57.795 24.9479C56.7799 23.7814 56.3448 24.0002 55.694 24.0728C55.0431 24.1455 48.0085 25.3854 47.211 25.4581C46.4135 25.6038 45.9057 25.8956 46.4135 26.6245C46.8485 27.2809 51.491 33.8435 52.5039 35.374L34.0151 39.8198L19.3668 15.1047C18.7869 14.23 18.6415 13.9382 17.3367 14.0113C16.0319 14.0843 5.80806 14.959 5.0832 14.959C4.35834 15.032 3.5595 15.3234 4.28568 17.0736C5.01185 18.8237 16.6114 43.905 16.9016 44.6344C17.1918 45.3638 18.0616 46.5303 20.0195 46.0927C22.0496 45.5821 29.0102 43.7598 32.8529 42.7386C34.8831 46.3841 38.9433 53.8214 39.7409 54.9148C40.7559 56.3731 41.4808 56.0812 43.0036 55.6437C44.2362 55.2792 62.0006 48.865 62.7977 48.4983C63.5948 48.1316 64.103 47.9151 63.5226 47.1131C63.0875 46.5298 58.445 40.1864 55.982 36.9053C57.6497 36.4678 63.6674 34.8638 64.3201 34.645C65.0449 34.4249 65.1903 34.0618 64.7552 33.6243L64.7547 33.6247ZM31.1848 40.5496C30.9659 40.6226 20.599 43.1026 20.0917 43.2474C19.5117 43.3931 19.5117 43.3205 19.5117 43.1017C19.3668 42.8825 7.186 17.5111 6.96845 17.2201C6.82357 16.9283 6.82357 16.6369 6.96845 16.6369C7.11334 16.6369 16.7563 15.761 17.0465 15.761C17.4089 15.761 17.3367 15.834 17.4816 16.0528C17.4816 16.0528 31.0399 39.6023 31.2575 39.9681C31.5477 40.3326 31.4023 40.4787 31.1848 40.5513V40.5496ZM60.3316 46.0197C60.4765 46.3115 60.694 46.4572 60.1127 46.6029C59.6054 46.823 42.639 52.5818 42.2766 52.7275C41.9141 52.8732 41.6966 52.9476 41.2615 52.29C40.8264 51.6324 35.316 42.0823 35.316 42.0823L53.3719 37.3429C53.807 37.1972 53.9518 37.1228 54.242 37.563C54.5323 38.0736 60.1876 45.8022 60.3325 46.021L60.3316 46.0197ZM61.4915 33.1872C61.0565 33.2602 54.4587 34.9369 54.4587 34.9369L49.0209 27.4979C48.8761 27.2778 48.7307 27.0603 49.0936 26.9873C49.4565 26.9142 55.6191 25.8208 55.9089 25.7477C56.1986 25.6746 56.4166 25.602 56.7791 26.1122C57.1415 26.5497 61.7817 32.5286 61.9993 32.7474C62.2168 32.9662 61.9266 33.1119 61.4915 33.185V33.1872Z" fill="#FB503B"/>
</svg>
