<svg width="20" height="20" viewBox="0 0 20 20" fill="none" xmlns="http://www.w3.org/2000/svg">
<g clip-path="url(#clip0_2920_4381)">
<path d="M16.7841 19.821H3.34971C1.57586 19.821 0.132812 18.381 0.132812 16.6108V3.21025C0.132812 1.44 1.57586 0 3.34971 0H16.7841C18.5574 0 20.0005 1.44 20.0005 3.21025V16.6113C20.0005 18.3815 18.5574 19.821 16.7841 19.821ZM6.84618 16.3863H6.85019V7.83659H4.19093V16.3863H6.84618ZM5.51856 6.6689C6.37032 6.6689 7.05814 5.98109 7.05814 5.12932C7.05814 4.28156 6.36632 3.58974 5.51856 3.58974C4.66679 3.58974 3.97897 4.28156 3.97897 5.12932C3.97897 5.97709 4.66679 6.6689 5.51856 6.6689ZM16.7995 16.3863V11.6995C16.7995 9.39617 16.2995 7.62465 13.6123 7.62465C12.3206 7.62465 11.4529 8.33246 11.097 9.00427H11.061V7.83659H8.51372V16.3863H11.169V12.1554C11.169 11.0397 11.3809 9.96001 12.7645 9.96001C14.1242 9.96001 14.1442 11.2357 14.1442 12.2274V16.3863H16.7995Z" fill="white"/>
</g>
<defs>
<clipPath id="clip0_2920_4381">
<rect width="20" height="20" fill="white"/>
</clipPath>
</defs>
</svg>
