<svg width="43" height="29" viewBox="0 0 43 29" fill="none" xmlns="http://www.w3.org/2000/svg">
<path d="M27.7469 7.13281H23.4883V19.6324H27.7469V7.13281Z" fill="white"/>
<path d="M27.7469 0.475464H23.4883V4.82315H27.7469V0.475464Z" fill="#FEF200"/>
<path d="M30.0098 0.475464H42.7857V4.82315H30.0098V0.475464Z" fill="white"/>
<path d="M38.5282 7.13281H34.2695V19.6324H38.5282V7.13281Z" fill="white"/>
<path fill-rule="evenodd" clip-rule="evenodd" d="M0 5.8406C0 2.61493 2.56137 0 5.72098 0H13.4992C16.6588 0 19.2202 2.61493 19.2202 5.8406V13.2468H15.2277V5.8406C15.2277 4.86601 14.4539 4.07594 13.4992 4.07594H5.72098C4.76636 4.07594 3.99246 4.86601 3.99246 5.8406V13.7815C3.99246 14.7561 4.76636 15.5461 5.72098 15.5461H12.9755V19.6221H5.72098C2.56138 19.6221 0 17.0071 0 13.7815V5.8406Z" fill="white"/>
<path d="M19.2307 15.5564H15.2383V19.6324H19.2307V15.5564Z" fill="#FEF200"/>
<path d="M16.9945 27.5746C16.6598 27.5746 16.3721 27.5225 16.1313 27.4185C15.8946 27.3102 15.7028 27.1644 15.5559 26.9811C15.5069 26.91 15.4824 26.8435 15.4824 26.781C15.4824 26.681 15.5294 26.6018 15.6232 26.5435C15.6804 26.5101 15.7334 26.4935 15.7824 26.4935C15.8599 26.4935 15.9375 26.533 16.015 26.6123C16.1538 26.7539 16.2946 26.8582 16.4374 26.9247C16.5843 26.9872 16.7598 27.0183 16.9639 27.0183C17.1516 27.0183 17.3047 26.9915 17.423 26.9372C17.5414 26.8829 17.6006 26.81 17.6006 26.7185C17.6006 26.6477 17.5781 26.5893 17.5332 26.5435C17.4924 26.4935 17.419 26.4455 17.3128 26.3997C17.2067 26.3539 17.0414 26.2935 16.817 26.2185C16.3844 26.0768 16.0783 25.9331 15.8987 25.7872C15.7232 25.6372 15.6355 25.4477 15.6355 25.2185C15.6355 24.9602 15.7436 24.7581 15.9599 24.6123C16.1762 24.4623 16.4701 24.3873 16.8415 24.3873C17.1231 24.3873 17.3802 24.4331 17.6128 24.5248C17.8454 24.6164 18.0168 24.7373 18.1271 24.8873C18.1719 24.9456 18.1944 25.0081 18.1944 25.0748C18.1944 25.1581 18.1515 25.2289 18.0658 25.2873C18.0128 25.3248 17.9516 25.3435 17.8822 25.3435C17.7883 25.3435 17.6944 25.2997 17.6006 25.2123C17.4169 25.0331 17.1618 24.9435 16.8353 24.9435C16.4966 24.9435 16.3272 25.0352 16.3272 25.2185C16.3272 25.2893 16.3497 25.3477 16.3946 25.3935C16.4395 25.4393 16.517 25.4852 16.6272 25.531C16.7415 25.5727 16.9251 25.6352 17.1782 25.7185C17.4557 25.806 17.674 25.8956 17.8332 25.9872C17.9924 26.0789 18.1066 26.183 18.176 26.2997C18.2454 26.4122 18.2801 26.5518 18.2801 26.7185C18.2801 26.9768 18.1658 27.1851 17.9373 27.3434C17.7087 27.4975 17.3945 27.5746 16.9945 27.5746ZM20.5337 27.5746C20.1786 27.5746 19.8664 27.5081 19.5971 27.3746C19.3277 27.2373 19.1196 27.0476 18.9727 26.806C18.8298 26.5643 18.7584 26.2893 18.7584 25.981C18.7584 25.6726 18.8298 25.3977 18.9727 25.156C19.1196 24.9144 19.3277 24.7268 19.5971 24.5935C19.8664 24.456 20.1786 24.3873 20.5337 24.3873C20.8888 24.3873 21.201 24.456 21.4703 24.5935C21.7397 24.7268 21.9458 24.9144 22.0887 25.156C22.2356 25.3977 22.309 25.6726 22.309 25.981C22.309 26.2893 22.2356 26.5643 22.0887 26.806C21.9458 27.0476 21.7397 27.2373 21.4703 27.3746C21.201 27.5081 20.8888 27.5746 20.5337 27.5746ZM20.5337 27.0122C20.8643 27.0122 21.1275 26.9204 21.3234 26.7371C21.5193 26.5539 21.6173 26.3018 21.6173 25.981C21.6173 25.6602 21.5193 25.4081 21.3234 25.2248C21.1275 25.0414 20.8643 24.9498 20.5337 24.9498C20.1991 24.9498 19.9338 25.0414 19.7379 25.2248C19.5461 25.4081 19.4501 25.6602 19.4501 25.981C19.4501 26.3018 19.5461 26.5539 19.7379 26.7371C19.9338 26.9204 20.1991 27.0122 20.5337 27.0122ZM25.1508 23.1436C25.2324 23.2019 25.2732 23.2728 25.2732 23.3561C25.2732 23.4144 25.2549 23.4686 25.2181 23.5186C25.1569 23.6061 25.0875 23.6498 25.01 23.6498C24.9651 23.6498 24.9039 23.6331 24.8263 23.5998C24.6712 23.5207 24.5141 23.4811 24.3549 23.4811C24.2284 23.4811 24.1284 23.5207 24.055 23.5998C23.9856 23.6748 23.9509 23.781 23.9509 23.9185V24.4498H24.71C24.8161 24.4498 24.8998 24.4748 24.961 24.5248C25.0263 24.5748 25.059 24.6435 25.059 24.731C25.059 24.8144 25.0263 24.881 24.961 24.931C24.8998 24.981 24.8161 25.006 24.71 25.006H23.9509V27.2434C23.9509 27.3477 23.9203 27.4288 23.8591 27.4871C23.7979 27.5454 23.7142 27.5746 23.6081 27.5746C23.502 27.5746 23.4183 27.5454 23.3571 27.4871C23.2959 27.4288 23.2653 27.3477 23.2653 27.2434V25.006H23.0755C22.9694 25.006 22.8837 24.981 22.8184 24.931C22.7572 24.881 22.7266 24.8144 22.7266 24.731C22.7266 24.6435 22.7572 24.5748 22.8184 24.5248C22.8796 24.4748 22.9653 24.4498 23.0755 24.4498H23.2653V23.9436C23.2653 23.6352 23.3591 23.3873 23.5469 23.1998C23.7346 23.0123 23.9815 22.9186 24.2876 22.9186C24.4794 22.9186 24.6447 22.9373 24.7835 22.9749C24.9222 23.0082 25.0447 23.0644 25.1508 23.1436ZM27.8486 26.7685C27.9099 26.8185 27.9406 26.8768 27.9406 26.9436C27.9406 27.0143 27.914 27.0851 27.8609 27.1559C27.7751 27.2852 27.6529 27.3871 27.4937 27.4621C27.3344 27.5371 27.1591 27.5746 26.9673 27.5746C26.661 27.5746 26.4202 27.4871 26.2449 27.3123C26.0692 27.1373 25.9816 26.8975 25.9816 26.5935V25.006H25.7061C25.5959 25.006 25.5081 24.981 25.4429 24.931C25.3816 24.881 25.351 24.8144 25.351 24.731C25.351 24.6435 25.3816 24.5748 25.4429 24.5248C25.5081 24.4748 25.5959 24.4498 25.7061 24.4498H25.9816V23.4623C25.9816 23.3582 26.0122 23.2769 26.0734 23.2186C26.1346 23.1602 26.2183 23.1311 26.3243 23.1311C26.4304 23.1311 26.5141 23.1602 26.5753 23.2186C26.6365 23.2769 26.6673 23.3582 26.6673 23.4623V24.4498H27.3344C27.4405 24.4498 27.5242 24.4748 27.5854 24.5248C27.6508 24.5748 27.6834 24.6435 27.6834 24.731C27.6834 24.8144 27.6529 24.881 27.5917 24.931C27.5304 24.981 27.4447 25.006 27.3344 25.006H26.6673V26.6498C26.6673 26.7621 26.6978 26.8518 26.759 26.9186C26.8203 26.9811 26.906 27.0122 27.0162 27.0122C27.1671 27.0122 27.3019 26.9518 27.4202 26.831C27.514 26.7435 27.5997 26.6996 27.6774 26.6996C27.7426 26.6996 27.7996 26.7227 27.8486 26.7685ZM29.4766 27.5746C29.2726 27.5746 29.1032 27.5121 28.9684 27.3871C28.8379 27.2623 28.7461 27.079 28.693 26.8371L28.2523 24.7498C28.2481 24.7331 28.246 24.7081 28.246 24.6748C28.246 24.5873 28.2768 24.5185 28.338 24.4685C28.3993 24.4144 28.4829 24.3873 28.589 24.3873C28.8256 24.3873 28.9583 24.481 28.9869 24.6685L29.3541 26.8496C29.3745 26.9579 29.4154 27.0122 29.4766 27.0122C29.5418 27.0122 29.5827 26.9601 29.5991 26.856L29.8623 24.9998C29.8907 24.8081 29.9621 24.6581 30.0765 24.5498C30.1949 24.4414 30.3418 24.3873 30.5172 24.3873C30.6929 24.3873 30.8378 24.4414 30.9519 24.5498C31.0702 24.6581 31.1437 24.8081 31.1724 24.9998L31.4356 26.856C31.4518 26.9601 31.4948 27.0122 31.5641 27.0122C31.6212 27.0122 31.66 26.9579 31.6803 26.8496L32.0478 24.6685C32.0803 24.481 32.213 24.3873 32.4457 24.3873C32.5559 24.3873 32.6396 24.4123 32.6967 24.4623C32.7579 24.5123 32.7884 24.581 32.7884 24.6685C32.7884 24.706 32.7863 24.7331 32.7824 24.7498L32.3415 26.8371C32.2886 27.079 32.1947 27.2623 32.06 27.3871C31.9295 27.5121 31.764 27.5746 31.5641 27.5746C31.36 27.5746 31.199 27.5121 31.0804 27.3871C30.9663 27.258 30.8907 27.0622 30.8539 26.7996L30.6152 25.0873C30.6071 25.0373 30.5949 25.0018 30.5785 24.981C30.5662 24.9602 30.5459 24.9498 30.5172 24.9498C30.4888 24.9498 30.4661 24.9602 30.45 24.981C30.4377 25.0018 30.4276 25.0373 30.4192 25.0873L30.1805 26.7996C30.1438 27.0622 30.0664 27.258 29.9481 27.3871C29.8337 27.5121 29.6765 27.5746 29.4766 27.5746ZM34.338 27.5746C33.9502 27.5746 33.6401 27.481 33.4073 27.2934C33.1749 27.1059 33.0584 26.856 33.0584 26.5435C33.0584 26.2351 33.1809 25.9893 33.4259 25.806C33.6747 25.6227 34.0093 25.531 34.4297 25.531C34.8378 25.531 35.1563 25.6268 35.3848 25.8185V25.581C35.3848 25.3727 35.3194 25.2143 35.1889 25.106C35.0625 24.9935 34.8746 24.9373 34.6257 24.9373C34.2746 24.9373 33.9726 25.0164 33.7196 25.1748C33.6341 25.2248 33.5564 25.2498 33.4871 25.2498C33.4136 25.2498 33.3461 25.2164 33.2851 25.1498C33.2442 25.1039 33.2239 25.0498 33.2239 24.9873C33.2239 24.8873 33.2666 24.8081 33.3524 24.7498C33.4993 24.6373 33.6849 24.5498 33.9095 24.4873C34.1339 24.4206 34.3685 24.3873 34.6134 24.3873C35.0747 24.3873 35.4359 24.4935 35.697 24.706C35.9582 24.9185 36.0887 25.2123 36.0887 25.5872V27.2623C36.0887 27.3581 36.0582 27.435 35.997 27.4935C35.9357 27.5475 35.8521 27.5746 35.746 27.5746C35.64 27.5746 35.5563 27.5475 35.4951 27.4935C35.4377 27.4392 35.4093 27.3642 35.4093 27.2684V27.1498C35.1685 27.4331 34.8115 27.5746 34.338 27.5746ZM34.485 27.0622C34.7625 27.0622 34.9827 27.0165 35.1461 26.9247C35.3093 26.8289 35.3908 26.6996 35.3908 26.5372C35.3908 26.3789 35.3113 26.2539 35.1521 26.1622C34.9929 26.0706 34.7747 26.0247 34.4972 26.0247C34.2564 26.0247 34.0685 26.0706 33.934 26.1622C33.8032 26.2539 33.7381 26.381 33.7381 26.5435C33.7381 26.7102 33.8014 26.8393 33.9278 26.9311C34.0583 27.0183 34.2442 27.0622 34.485 27.0622ZM37.0621 27.5746C36.956 27.5746 36.8724 27.5454 36.8111 27.4871C36.7499 27.4288 36.7194 27.3477 36.7194 27.2434V24.7185C36.7194 24.6144 36.7481 24.5331 36.8051 24.4748C36.8664 24.4164 36.9479 24.3873 37.0498 24.3873C37.1562 24.3873 37.2377 24.4164 37.2948 24.4748C37.3561 24.5331 37.3865 24.6144 37.3865 24.7185V24.981C37.6518 24.6269 38.0008 24.4498 38.4334 24.4498H38.5744C38.6844 24.4498 38.7701 24.4748 38.8313 24.5248C38.8968 24.5748 38.9293 24.6435 38.9293 24.731C38.9293 24.8227 38.8968 24.8935 38.8313 24.9435C38.7701 24.9893 38.6844 25.0123 38.5744 25.0123H38.3784C38.0805 25.0123 37.8436 25.106 37.6683 25.2935C37.4929 25.4768 37.405 25.7289 37.405 26.0497V27.2434C37.405 27.3434 37.3725 27.4246 37.3071 27.4871C37.2458 27.5454 37.1642 27.5746 37.0621 27.5746ZM40.7327 27.5746C40.3819 27.5746 40.0757 27.5121 39.8146 27.3871C39.5574 27.258 39.3596 27.0747 39.2207 26.8371C39.086 26.5997 39.0187 26.3185 39.0187 25.9935C39.0187 25.4893 39.1657 25.0956 39.4594 24.8123C39.7534 24.529 40.1615 24.3873 40.6837 24.3873C41.0064 24.3873 41.292 24.4394 41.5409 24.5435C41.7897 24.6477 41.9836 24.7935 42.1225 24.981C42.2612 25.1643 42.3305 25.3747 42.3305 25.6123C42.3305 25.8039 42.2734 25.9518 42.1593 26.056C42.0449 26.1601 41.8838 26.2122 41.6756 26.2122H39.6921C39.6921 26.4705 39.782 26.6706 39.9616 26.8121C40.1411 26.9539 40.3981 27.0247 40.7327 27.0247C40.9245 27.0247 41.0939 27.004 41.2409 26.9622C41.3879 26.9204 41.5247 26.8539 41.6511 26.7621C41.7694 26.6831 41.8593 26.6435 41.9206 26.6435C41.9735 26.6435 42.0287 26.6727 42.0858 26.731C42.1509 26.7935 42.1838 26.8622 42.1838 26.9372C42.1838 27.0165 42.1491 27.083 42.0795 27.1373C41.7368 27.4288 41.2878 27.5746 40.7327 27.5746ZM41.4674 25.706C41.5367 25.706 41.5878 25.6914 41.6206 25.6622C41.6532 25.6331 41.6693 25.5831 41.6693 25.5122C41.6693 25.3414 41.5797 25.2039 41.4001 25.0997C41.2206 24.9914 40.9819 24.9373 40.6837 24.9373C40.382 24.9373 40.143 25.0081 39.9676 25.1498C39.7922 25.2873 39.7044 25.4727 39.7044 25.706H41.4674Z" fill="white"/>
</svg>
