<svg width="38" height="38" viewBox="0 0 38 38" fill="none" xmlns="http://www.w3.org/2000/svg">
<path d="M7.125 7.125C7.125 4.50165 9.25165 2.375 11.875 2.375C14.4984 2.375 16.625 4.50165 16.625 7.125C16.625 8.6563 15.9004 10.0184 14.7753 10.887C14.7415 10.912 14.7079 10.9372 14.6745 10.9628C13.8895 11.5364 12.9218 11.875 11.875 11.875C9.25165 11.875 7.125 9.74835 7.125 7.125ZM23.2246 10.887C23.2585 10.912 23.2921 10.9372 23.3255 10.9628C24.1105 11.5364 25.0783 11.875 26.125 11.875C28.7484 11.875 30.875 9.74835 30.875 7.125C30.875 4.50165 28.7484 2.375 26.125 2.375C23.5016 2.375 21.375 4.50165 21.375 7.125C21.375 8.6563 22.0996 10.0184 23.2246 10.887ZM14.8855 14.25C15.7068 12.8302 17.2418 11.875 19 11.875C20.7582 11.875 22.2932 12.8302 23.1145 14.25C23.5187 14.9487 23.75 15.7598 23.75 16.625C23.75 19.2484 21.6234 21.375 19 21.375C16.3766 21.375 14.25 19.2484 14.25 16.625C14.25 15.7598 14.4813 14.9487 14.8855 14.25ZM5.93745 14.25H12.2804C12.0179 14.9929 11.875 15.7922 11.875 16.625C11.875 18.4498 12.561 20.1144 13.6892 21.375H13.0625C10.4852 21.375 8.2916 23.0171 7.47049 25.3118C6.66309 24.9833 5.91608 24.5542 5.25386 24.0227C3.46505 22.5869 2.375 20.4632 2.375 17.8125C2.375 15.8451 3.96995 14.25 5.93745 14.25ZM24.9375 21.375C27.5146 21.375 29.7084 23.017 30.5294 25.3118C31.3369 24.9833 32.0839 24.5542 32.7463 24.0227C34.5349 22.5869 35.625 20.4632 35.625 17.8125C35.625 15.845 34.0299 14.25 32.0625 14.25H25.7196C25.982 14.9929 26.125 15.7922 26.125 16.625C26.125 18.4498 25.4389 20.1144 24.3107 21.375H24.9375ZM28.2319 25.954C28.4045 26.3727 28.5 26.8316 28.5 27.3125C28.5 29.9632 27.4099 32.087 25.6213 33.5227C23.8607 34.9358 21.5011 35.625 19 35.625C16.4989 35.625 14.1394 34.9358 12.3789 33.5227C10.5901 32.087 9.5 29.9632 9.5 27.3125C9.5 26.8316 9.59536 26.3727 9.76818 25.954C10.3022 24.6603 11.576 23.75 13.0625 23.75H24.9375C26.424 23.75 27.6977 24.6603 28.2319 25.954Z" fill="#363636"/>
<path d="M7.125 7.125C7.125 4.50165 9.25165 2.375 11.875 2.375C14.4984 2.375 16.625 4.50165 16.625 7.125C16.625 8.65631 15.9004 10.0184 14.7753 10.887C14.7415 10.912 14.7079 10.9372 14.6745 10.9628C13.8895 11.5364 12.9218 11.875 11.875 11.875C9.25165 11.875 7.125 9.74835 7.125 7.125ZM23.2246 10.887C23.2585 10.912 23.2921 10.9372 23.3255 10.9628C24.1105 11.5364 25.0783 11.875 26.125 11.875C28.7484 11.875 30.875 9.74835 30.875 7.125C30.875 4.50165 28.7484 2.375 26.125 2.375C23.5016 2.375 21.375 4.50165 21.375 7.125C21.375 8.65631 22.0996 10.0184 23.2246 10.887ZM14.8855 14.25C15.7068 12.8302 17.2418 11.875 19 11.875C20.7582 11.875 22.2932 12.8302 23.1145 14.25C23.5187 14.9487 23.75 15.7598 23.75 16.625C23.75 19.2484 21.6234 21.375 19 21.375C16.3766 21.375 14.25 19.2484 14.25 16.625C14.25 15.7598 14.4813 14.9487 14.8855 14.25Z" fill="#FEF200"/>
</svg>
