<svg width="69" height="69" viewBox="0 0 69 69" fill="none" xmlns="http://www.w3.org/2000/svg">
<path d="M16.2811 24.6894H29.2951V25.7078H17.474V33.3727H28.5902V34.3911H17.474V42.8064H29.4307V43.8248H16.2811V24.6894ZM30.461 24.6894H31.8437L37.9711 33.1047L44.2342 24.6894L52.7529 14L38.7574 33.9891L45.9694 43.8248H44.5324L37.9711 34.8735L31.3828 43.8248H29.9729L37.2391 33.9891L30.461 24.6894ZM46.4845 25.7078V24.6894H61.3151V25.7078H54.4827V43.8248H53.2897V25.7078H46.4845ZM0 24.6894H1.49119L22.0538 54.9846L13.5563 43.8248L1.24718 26.1366L1.19295 43.8248H0V24.6894ZM61.1949 42.499C60.9511 42.499 60.7683 42.3131 60.7683 42.0728C60.7683 41.8326 60.9511 41.6466 61.1949 41.6466C61.4415 41.6466 61.6214 41.8326 61.6214 42.0728C61.6214 42.3131 61.4415 42.499 61.1949 42.499ZM62.3671 41.3777H63.0054C63.0141 41.7181 63.2666 41.947 63.638 41.947C64.0529 41.947 64.2879 41.701 64.2879 41.2404V38.3227H64.9379V41.2433C64.9379 42.0728 64.4504 42.5505 63.6438 42.5505C62.8865 42.5505 62.3671 42.0871 62.3671 41.3777ZM65.788 41.3405H66.4321C66.4873 41.7324 66.8761 41.9813 67.4361 41.9813C67.9583 41.9813 68.3414 41.7153 68.3414 41.3491C68.3414 41.0345 68.0976 40.8457 67.5434 40.717L67.0037 40.5882C66.2464 40.4138 65.9012 40.0533 65.9012 39.4469C65.9012 38.7118 66.5105 38.2226 67.4245 38.2226C68.2746 38.2226 68.8955 38.7118 68.9333 39.4069H68.3007C68.2398 39.0264 67.9032 38.789 67.4158 38.789C66.9022 38.789 66.5598 39.0321 66.5598 39.404C66.5598 39.6986 66.7803 39.8674 67.3258 39.9933L67.7872 40.1048C68.646 40.3022 69 40.6455 69 41.2662C69 42.0557 68.3791 42.5505 67.3867 42.5505C66.4583 42.5505 65.8344 42.0786 65.788 41.3405Z" fill="black"/>
</svg>
