<svg width="69" height="69" viewBox="0 0 69 69" fill="none" xmlns="http://www.w3.org/2000/svg">
<path d="M21.1739 57.7116C21.1239 57.6231 21.0792 57.5317 21.0403 57.4378C20.7713 56.815 20.6887 56.1276 20.8023 55.4588H4.87501L28.5449 13.8035L36.316 27.4643L38.5687 23.4778L31.7946 11.5444C31.47 10.9332 30.9974 10.4131 30.42 10.0317C29.8425 9.65034 29.1787 9.41976 28.4892 9.36108C27.801 9.39236 27.1355 9.61614 26.5683 10.0069C26.001 10.3978 25.5549 10.9399 25.2805 11.5718L1.3011 53.7323C0.942659 54.3276 0.735995 55.0018 0.699283 55.6957C0.66257 56.3895 0.796934 57.0818 1.09056 57.7116C1.45932 58.2931 1.98348 58.7599 2.60373 59.059C3.22398 59.3582 3.91556 59.4778 4.60025 59.4043H24.6847C23.9999 59.4789 23.3079 59.3598 22.6874 59.0605C22.067 58.7613 21.543 58.2939 21.175 57.7116H21.1739Z" fill="#00C492"/>
<path d="M67.3496 53.7314L47.6442 19.0207C47.3209 18.4031 46.8473 17.8768 46.267 17.4904C45.6867 17.1041 45.0185 16.8701 44.324 16.8101C43.6367 16.8399 42.9716 17.0622 42.4047 17.4518C41.8377 17.8414 41.3917 18.3825 41.1174 19.0134L38.5688 23.4768L40.8364 27.4644L44.345 21.2524L63.8399 55.4578H56.4268C56.5216 56.0232 56.4683 56.6035 56.2721 57.1421C56.2308 57.2612 56.179 57.3764 56.1173 57.4864L56.0542 57.6127C55.6515 58.1815 55.1148 58.6424 54.4916 58.9545C53.8685 59.2666 53.178 59.4204 52.4813 59.4023H64.0779C64.7747 59.421 65.4653 59.2674 66.0886 58.9552C66.7118 58.6431 67.2484 58.1819 67.6507 57.6127C67.9683 57.0022 68.1084 56.315 68.0552 55.629C68.002 54.9429 67.7576 54.2855 67.3496 53.7314V53.7314Z" fill="#008776"/>
<path d="M56.0552 57.6137L56.1183 57.4873C56.1796 57.3773 56.231 57.2622 56.272 57.1431C56.4682 56.6044 56.5215 56.0242 56.4268 55.4588C56.3173 54.849 56.0983 54.2641 55.7804 53.7324L40.851 27.4644L38.5698 23.4778L36.3023 27.4644L21.3782 53.7324C21.0885 54.2705 20.8937 54.8545 20.8024 55.4588C20.6822 56.126 20.7579 56.8138 21.0203 57.4389C21.0592 57.5328 21.1038 57.6242 21.154 57.7126C21.5229 58.294 22.0471 58.7605 22.6673 59.0595C23.2876 59.3584 23.9791 59.4779 24.6637 59.4043H52.4602C53.1603 59.425 53.8546 59.2725 54.4816 58.9603C55.1086 58.6481 55.6487 58.1859 56.0541 57.6147L56.0552 57.6137ZM38.5688 31.452L52.2149 55.4577H24.929L38.5688 31.452Z" fill="#2D4A5D"/>
</svg>
