<svg width="69" height="69" viewBox="0 0 69 69" fill="none" xmlns="http://www.w3.org/2000/svg">
<path fill-rule="evenodd" clip-rule="evenodd" d="M34.5 52.4857C53.5539 52.4857 69 44.5417 69 34.7429C69 24.944 53.5539 17 34.5 17C15.4465 17 0 24.944 0 34.7429C0 44.5417 15.4465 52.4857 34.5 52.4857Z" fill="#6E81B6"/>
<path fill-rule="evenodd" clip-rule="evenodd" d="M19.5704 29.2991C21.1365 29.2991 22.1807 29.5925 22.7026 30.1793C23.2241 30.7661 23.3484 31.7737 23.0756 33.2009C22.7902 34.6873 22.2412 35.7483 21.4277 36.3842C20.6142 37.0201 19.376 37.3376 17.714 37.3376H15.2059L16.7453 29.2991H19.5704ZM9.52515 45.4751H13.6477L14.626 40.3689H18.1574C19.7156 40.3689 20.9976 40.2025 22.0039 39.8702C23.0101 39.5378 23.925 38.9811 24.7481 38.1991C25.4389 37.5552 25.9979 36.844 26.426 36.0666C26.8536 35.2893 27.1573 34.432 27.3371 33.4943C27.7735 31.2174 27.4443 29.4439 26.3505 28.1738C25.257 26.9033 23.517 26.2683 21.1319 26.2683H13.2038L9.52515 45.4751ZM30.365 21.1616H34.4554L33.4776 26.2683H37.1221C39.414 26.2683 40.9964 26.6738 41.8667 27.4854C42.7369 28.297 42.9976 29.6124 42.6497 31.4308L40.9384 40.3689H36.7829L38.4099 31.8702C38.5947 30.9033 38.5271 30.2441 38.2055 29.8923C37.8838 29.5409 37.1992 29.3648 36.1529 29.3648H32.8839L30.7767 40.3689H26.6863L30.365 21.1616ZM51.7509 29.2991C53.317 29.2991 54.3608 29.5925 54.8831 30.1793C55.4046 30.7661 55.5285 31.7737 55.2556 33.2009C54.9711 34.6873 54.4221 35.7483 53.6082 36.3842C52.7951 37.0201 51.5565 37.3376 49.8953 37.3376H47.3872L48.9262 29.2991H51.7509ZM41.7048 45.4751H45.8278L46.8057 40.3689H50.3371C51.8957 40.3689 53.1777 40.2025 54.1839 39.8702C55.1902 39.5378 56.105 38.9811 56.9281 38.1991C57.619 37.5552 58.178 36.844 58.6056 36.0666C59.0332 35.2893 59.3373 34.432 59.5176 33.4943C59.9535 31.2174 59.6244 29.4439 58.5309 28.1738C57.4367 26.9033 55.697 26.2683 53.312 26.2683H45.3839L41.7048 45.4751Z" fill="black"/>
</svg>
