<svg width="69" height="69" viewBox="0 0 69 69" fill="none" xmlns="http://www.w3.org/2000/svg">
<path d="M34.2772 3.58447C18.581 3.58447 19.5592 10.4268 19.5592 10.4268L19.5764 17.5156H34.5574V19.6443H13.6305C13.6305 19.6443 3.58447 18.4995 3.58447 34.4196C3.58447 50.3397 12.3516 49.7766 12.3516 49.7766H17.5839V42.3889C17.5839 42.3889 17.3021 33.576 26.211 33.576H41.0668C41.0668 33.576 49.4138 33.7118 49.4138 25.467V11.8364C49.4138 11.8364 50.6816 3.58447 34.2772 3.58447ZM26.0178 8.35155C26.6405 8.35215 27.2438 8.56976 27.7249 8.96732C28.206 9.36487 28.535 9.91778 28.6561 10.5319C28.7771 11.1459 28.6826 11.7832 28.3887 12.3351C28.0948 12.887 27.6196 13.3195 27.0441 13.5587C26.4686 13.798 25.8284 13.8293 25.2326 13.6473C24.6367 13.4653 24.122 13.0813 23.7762 12.5607C23.4303 12.0401 23.2748 11.415 23.3359 10.792C23.3971 10.169 23.6712 9.58664 24.1116 9.14402C24.3619 8.89246 24.6591 8.69298 24.9862 8.557C25.3133 8.42102 25.6638 8.3512 26.0178 8.35155Z" fill="url(#paint0_linear_3019_4201)"/>
<path d="M34.7229 65.4158C50.4197 65.4158 49.4398 58.5707 49.4398 58.5707L49.4226 51.4818H34.4433V49.356H55.3702C55.3702 49.356 65.4145 50.5013 65.4145 34.58C65.4145 18.6588 56.6474 19.2237 56.6474 19.2237H51.4168V26.6114C51.4168 26.6114 51.6986 35.4243 42.7897 35.4243H27.9333C27.9333 35.4243 19.5863 35.2885 19.5863 43.5337V57.1683C19.5863 57.1683 18.3213 65.4158 34.7229 65.4158ZM42.9823 60.6492C42.3594 60.6488 41.7559 60.4313 41.2747 60.0338C40.7934 59.6363 40.4641 59.0834 40.3428 58.4692C40.2216 57.855 40.3159 57.2176 40.6098 56.6655C40.9036 56.1134 41.3788 55.6807 41.9544 55.4413C42.5299 55.2018 43.1703 55.1703 43.7663 55.3522C44.3624 55.5341 44.8773 55.9181 45.2233 56.4387C45.5693 56.9594 45.725 57.5845 45.664 58.2077C45.603 58.8308 45.3289 59.4134 44.8885 59.8562C44.6382 60.1079 44.341 60.3075 44.014 60.4435C43.6869 60.5796 43.3363 60.6495 42.9823 60.6492Z" fill="url(#paint1_linear_3019_4201)"/>
<defs>
<linearGradient id="paint0_linear_3019_4201" x1="9.54524" y1="9.12782" x2="40.3086" y2="39.4797" gradientUnits="userSpaceOnUse">
<stop stop-color="#387EB8"/>
<stop offset="1" stop-color="#366994"/>
</linearGradient>
<linearGradient id="paint1_linear_3019_4201" x1="28.3212" y1="28.7373" x2="61.3822" y2="59.8106" gradientUnits="userSpaceOnUse">
<stop stop-color="#FFE052"/>
<stop offset="1" stop-color="#FFC331"/>
</linearGradient>
</defs>
</svg>
