<svg width="32" height="30" viewBox="0 0 32 30" fill="none" xmlns="http://www.w3.org/2000/svg">
<g opacity="0.6" clip-path="url(#clip0_2827_2587)">
<path d="M-0.966797 14.9652C-0.966797 17.5495 1.53483 19.9619 5.47867 21.3218C4.6911 25.3212 5.33761 28.5448 7.49672 29.8009C9.71596 31.092 13.0222 30.1983 16.1604 27.4311C19.2193 30.0865 22.3108 31.1315 24.468 29.8719C26.6853 28.5771 27.3595 25.1349 26.5502 21.0105C30.658 19.6406 32.9558 17.5835 32.9558 14.9652C32.9558 12.4409 30.4496 10.2572 26.5589 8.90605C27.4302 4.6113 26.6919 1.46591 24.4434 0.157972C22.2756 -1.10303 19.1481 -0.00395775 16.0442 2.72087C12.815 -0.171267 9.7185 -1.05421 7.47232 0.257362C5.30654 1.522 4.68857 4.80429 5.47867 8.87768C1.66789 10.2179 -0.966797 12.4511 -0.966797 14.9652Z" fill="white"/>
<path d="M25.7347 10.2488C25.4141 10.1379 25.0907 10.0351 24.7649 9.94058C24.8189 9.71912 24.8689 9.49668 24.9148 9.27336C25.6489 5.67864 25.1689 2.78274 23.5298 1.82945C21.9582 0.915173 19.3879 1.86846 16.7921 4.14717C16.5363 4.37222 16.2861 4.60376 16.042 4.84155C15.8784 4.68343 15.712 4.52838 15.5428 4.37648C12.8222 1.93974 10.0953 0.913021 8.45787 1.86913C6.8878 2.78597 6.42275 5.5085 7.08366 8.9152C7.14941 9.25257 7.22365 9.58819 7.30631 9.92175C6.92046 10.0323 6.54781 10.1501 6.19129 10.2755C3.00183 11.3971 0.964844 13.1552 0.964844 14.9787C0.964844 16.8621 3.15142 18.7512 6.47368 19.8965C6.74307 19.989 7.0147 20.0746 7.28831 20.1534C7.19942 20.5128 7.12051 20.8746 7.05166 21.2384C6.42155 24.5859 6.91366 27.2439 8.4796 28.1551C10.097 29.0958 12.8115 28.1288 15.4549 25.7981C15.6638 25.6138 15.8736 25.4184 16.0835 25.2136C16.348 25.471 16.6196 25.7209 16.8979 25.9631C19.4583 28.1856 21.987 29.0831 23.5516 28.1694C25.1676 27.2258 25.6926 24.3704 25.0108 20.8964C24.9588 20.631 24.8981 20.36 24.8301 20.084C25.0208 20.0273 25.2078 19.9686 25.3904 19.9076C28.8441 18.7533 31.0911 16.8873 31.0911 14.9787C31.0911 13.1486 28.9885 11.3787 25.7347 10.2488Z" fill="#363636"/>
<path d="M24.9858 18.6751C24.8211 18.7301 24.6521 18.7832 24.4798 18.8347C24.0985 17.6172 23.5839 16.3224 22.9543 14.9849C23.5552 13.6789 24.0498 12.4009 24.4205 11.1911C24.7286 11.2812 25.0278 11.376 25.3161 11.4762C28.1039 12.4442 29.8044 13.8756 29.8044 14.9784C29.8044 16.1532 27.9678 17.6784 24.9859 18.6751H24.9858ZM23.7485 21.1483C24.05 22.6844 24.093 24.0734 23.8933 25.1591C23.7139 26.1347 23.3531 26.7851 22.907 27.0456C21.9575 27.6 19.9271 26.8794 17.7376 24.9788C17.4865 24.7609 17.2336 24.5282 16.98 24.2821C17.8289 23.3455 18.6773 22.2566 19.5052 21.0475C20.9617 20.9172 22.3376 20.704 23.5855 20.4131C23.6468 20.6633 23.7015 20.9085 23.7485 21.1483ZM11.2357 26.9499C10.3081 27.2803 9.56938 27.2897 9.12286 27.03C8.1725 26.4773 7.77759 24.3429 8.31636 21.4802C8.38043 21.1419 8.45379 20.8054 8.53636 20.4712C9.7703 20.7465 11.1362 20.9446 12.5962 21.0641C13.4296 22.2472 14.3025 23.3347 15.1822 24.2871C14.9953 24.4695 14.8039 24.6473 14.6082 24.8202C13.4393 25.8509 12.2681 26.582 11.2358 26.9499H11.2357ZM6.89016 18.6678C5.42115 18.1613 4.208 17.5031 3.37644 16.7849C2.62927 16.1394 2.25195 15.4985 2.25195 14.9784C2.25195 13.8719 3.88748 12.4604 6.61524 11.5011C6.95761 11.3812 7.30339 11.2715 7.65213 11.172C8.02918 12.4089 8.52369 13.7022 9.12047 15.01C8.51596 16.3373 8.01438 17.6512 7.63386 18.9026C7.38409 18.8305 7.13611 18.7522 6.89016 18.6678ZM8.3469 8.6656C7.78065 5.7467 8.15664 3.54492 9.10287 2.99242C10.1108 2.40388 12.3394 3.24312 14.6884 5.34699C14.8385 5.48148 14.9893 5.62229 15.1403 5.76795C14.2652 6.71599 13.4003 7.79529 12.5741 8.97157C11.1572 9.10404 9.80084 9.31681 8.55396 9.6018C8.47715 9.29149 8.40811 8.97928 8.3469 8.66546V8.6656ZM21.342 11.9024C21.0474 11.3893 20.742 10.8826 20.4259 10.3827C21.3871 10.5051 22.308 10.6678 23.1728 10.867C22.9132 11.7063 22.5896 12.584 22.2086 13.4838C21.9302 12.9509 21.6412 12.4237 21.342 11.9024ZM16.0426 6.69568C16.6361 7.34434 17.2307 8.06872 17.8154 8.85456C16.6292 8.79802 15.441 8.79775 14.2548 8.85375C14.8401 8.07517 15.4397 7.35187 16.0426 6.69568ZM10.7092 11.9113C10.4137 12.4284 10.1301 12.9524 9.85883 13.4829C9.48405 12.5862 9.1634 11.7046 8.90154 10.8533C9.7611 10.6592 10.6777 10.5006 11.6328 10.3802C11.3131 10.8832 11.0051 11.3937 10.7092 11.9113ZM11.6602 19.6693C10.6736 19.5582 9.74311 19.4077 8.88381 19.219C9.1498 18.3526 9.47752 17.452 9.8603 16.5361C10.1327 17.067 10.4175 17.5913 10.7144 18.1086C11.0173 18.6363 11.3327 19.1567 11.6602 19.6693ZM16.0782 23.3529C15.4682 22.6889 14.8598 21.9546 14.2656 21.1647C14.8424 21.1875 15.4305 21.1991 16.0282 21.1991C16.6423 21.1991 17.2493 21.1853 17.8468 21.1584C17.2601 21.9626 16.6677 22.698 16.0782 23.3529ZM22.2208 16.4894C22.6235 17.4153 22.9629 18.311 23.2325 19.1628C22.359 19.3638 21.4159 19.5257 20.4223 19.646C20.7407 19.1368 21.049 18.6212 21.3472 18.0996C21.6502 17.5695 21.9415 17.0326 22.2208 16.4894ZM20.2323 17.4511C19.7759 18.2508 19.2939 19.0353 18.787 19.8033C17.8932 19.8678 16.9695 19.901 16.0282 19.901C15.0907 19.901 14.1788 19.8715 13.3006 19.8141C12.7805 19.0478 12.2894 18.2619 11.8282 17.4582C11.3692 16.6587 10.9405 15.8419 10.5429 15.0096C10.9395 14.1771 11.3669 13.3598 11.8244 12.5597V12.56C12.2816 11.7597 12.7689 10.9771 13.2851 10.2141C14.1811 10.1458 15.0997 10.11 16.0283 10.11C16.9611 10.11 17.8809 10.1461 18.7766 10.215C19.2876 10.9768 19.7717 11.7566 20.2281 12.5528C20.6871 13.3512 21.1203 14.1644 21.5269 14.9912C21.1245 15.8264 20.6927 16.6469 20.2324 17.4511H20.2323ZM22.8872 2.95382C23.896 3.54075 24.2884 5.90742 23.6545 9.01111C23.613 9.21329 23.5678 9.41471 23.5191 9.61525C22.2692 9.32434 20.912 9.10781 19.491 8.97332C18.6631 7.78427 17.8054 6.70308 16.9444 5.76728C17.17 5.54786 17.401 5.33413 17.6372 5.12629C19.8613 3.17372 21.9401 2.40281 22.8872 2.95382Z" fill="white"/>
<path d="M16.028 12.2646C17.5138 12.2646 18.7182 13.4797 18.7182 14.9783C18.7182 16.4771 17.5138 17.6921 16.028 17.6921C14.5424 17.6921 13.3379 16.4771 13.3379 14.9783C13.3379 13.4797 14.5424 12.2646 16.028 12.2646Z" fill="#363636"/>
</g>
<defs>
<clipPath id="clip0_2827_2587">
<rect width="32" height="28.8" fill="white" transform="translate(0 0.599609)"/>
</clipPath>
</defs>
</svg>
