<svg width="69" height="69" viewBox="0 0 69 69" fill="none" xmlns="http://www.w3.org/2000/svg">
<path d="M0.203125 34.4315C0.203125 39.6947 5.26013 44.6079 13.2325 47.3774C11.6405 55.5228 12.9474 62.0882 17.312 64.6463C21.7981 67.2759 28.4817 65.4557 34.8254 59.8199C41.009 65.2281 47.2584 67.3564 51.6192 64.7909C56.1013 62.1539 57.4643 55.1434 55.8283 46.7436C64.1322 43.9535 68.7771 39.764 68.7771 34.4315C68.7771 29.2904 63.7109 24.8429 55.8458 22.0911C57.6071 13.3443 56.1148 6.93826 51.5693 4.27446C47.1872 1.70625 40.8651 3.94467 34.5906 9.49415C28.0629 3.60392 21.8033 1.80568 17.2627 4.47688C12.8846 7.05249 11.6354 13.7373 13.2325 22.0333C5.52911 24.7629 0.203125 29.3112 0.203125 34.4315Z" fill="white"/>
<path d="M54.1794 24.8236C53.5312 24.5977 52.8775 24.3883 52.2189 24.1958C52.3281 23.7448 52.4291 23.2918 52.5218 22.8369C54.0058 15.5158 53.0356 9.61789 49.7221 7.6764C46.5452 5.81434 41.3494 7.75583 36.1019 12.3967C35.5848 12.8551 35.0792 13.3266 34.5856 13.811C34.255 13.4889 33.9186 13.1731 33.5765 12.8638C28.0769 7.90101 22.5644 5.80996 19.2544 7.7572C16.0806 9.62447 15.1405 15.1693 16.4765 22.1075C16.6094 22.7946 16.7595 23.4781 16.9266 24.1575C16.1466 24.3826 15.3933 24.6226 14.6726 24.8779C8.22515 27.1623 4.10742 30.7429 4.10742 34.4566C4.10742 38.2925 8.52755 42.1399 15.2435 44.4725C15.788 44.6608 16.3371 44.8352 16.8902 44.9957C16.7105 45.7275 16.551 46.4644 16.4118 47.2053C15.1381 54.023 16.1329 59.4364 19.2984 61.2921C22.5679 63.2081 28.0554 61.2387 33.3989 56.4918C33.8212 56.1165 34.2452 55.7185 34.6696 55.3014C35.2043 55.8257 35.7533 56.3347 36.3159 56.8279C41.4917 61.3543 46.6035 63.1821 49.7663 61.3214C53.0329 59.3997 54.0942 53.5842 52.7159 46.5088C52.6108 45.9683 52.4882 45.4164 52.3507 44.8543C52.7361 44.7387 53.1143 44.6193 53.4832 44.495C60.4649 42.1442 65.0071 38.3437 65.0071 34.4566C65.0071 30.7295 60.7568 27.1248 54.1794 24.8236Z" fill="#53C1DE"/>
<path d="M52.6651 41.9853C52.3322 42.0973 51.9905 42.2055 51.6423 42.3104C50.8714 39.8307 49.8311 37.1937 48.5584 34.4696C49.7731 31.8099 50.7731 29.2069 51.5223 26.7431C52.1452 26.9266 52.75 27.1197 53.3327 27.3238C58.9684 29.2951 62.4058 32.2104 62.4058 34.4565C62.4058 36.8491 58.6932 39.9553 52.6654 41.9853H52.6651ZM50.164 47.0222C50.7733 50.1509 50.8604 52.9796 50.4566 55.1909C50.0939 57.1778 49.3646 58.5025 48.4627 59.033C46.5435 60.1621 42.439 58.6945 38.0129 54.8236C37.5054 54.3798 36.9941 53.9059 36.4815 53.4047C38.1975 51.4972 39.9125 49.2796 41.5862 46.8171C44.5304 46.5517 47.3119 46.1175 49.8343 45.525C49.9583 46.0345 50.0688 46.5339 50.164 47.0222ZM24.8695 58.838C22.9945 59.511 21.501 59.5302 20.5984 59.0013C18.6773 57.8755 17.879 53.5285 18.9681 47.6983C19.0976 47.0092 19.2459 46.324 19.4128 45.6434C21.9072 46.2041 24.6684 46.6075 27.6197 46.8508C29.3045 49.2604 31.069 51.4752 32.8473 53.4148C32.4694 53.7864 32.0825 54.1484 31.687 54.5006C29.3241 56.5999 26.9564 58.0889 24.8698 58.838H24.8695ZM16.085 41.9705C13.1155 40.9389 10.6631 39.5984 8.98212 38.1357C7.47173 36.8209 6.70898 35.5157 6.70898 34.4565C6.70898 32.203 10.0152 29.3283 15.5293 27.3745C16.2214 27.1303 16.9204 26.9068 17.6254 26.7042C18.3876 29.2234 19.3872 31.8573 20.5936 34.5209C19.3716 37.2241 18.3576 39.9 17.5884 42.4487C17.0835 42.3018 16.5822 42.1424 16.085 41.9705ZM19.0298 21.5996C17.8852 15.6548 18.6452 11.1706 20.558 10.0454C22.5956 8.84671 27.1006 10.5559 31.849 14.8407C32.1525 15.1147 32.4573 15.4014 32.7627 15.6981C30.9935 17.6289 29.2452 19.8271 27.5749 22.2227C24.7108 22.4925 21.9689 22.9258 19.4484 23.5063C19.2931 22.8743 19.1536 22.2384 19.0298 21.5993V21.5996ZM45.2991 28.1918C44.7038 27.1467 44.0863 26.1147 43.4472 25.0966C45.3905 25.3459 47.2521 25.6773 49.0002 26.083C48.4754 27.7925 47.8213 29.58 47.051 31.4125C46.4882 30.3272 45.9041 29.2534 45.2991 28.1918ZM34.5865 17.5875C35.7864 18.9086 36.9882 20.3839 38.1703 21.9844C35.7724 21.8692 33.3705 21.8687 30.9725 21.9828C32.1557 20.3971 33.3677 18.924 34.5865 17.5875ZM23.8052 28.2099C23.2078 29.2631 22.6346 30.3302 22.0862 31.4106C21.3286 29.5844 20.6804 27.7889 20.151 26.055C21.8886 25.6598 23.7416 25.3368 25.6721 25.0917C25.0259 26.1161 24.4034 27.1558 23.8052 28.2099ZM25.7277 44.01C23.7332 43.7838 21.8522 43.4773 20.1152 43.093C20.6529 41.3284 21.3153 39.4943 22.0891 37.6289C22.6399 38.7101 23.2155 39.7779 23.8157 40.8315C24.4281 41.9063 25.0656 42.9661 25.7277 44.01ZM34.6585 51.5122C33.4254 50.1599 32.1956 48.6643 30.9943 47.0557C32.1603 47.1022 33.3491 47.1258 34.5574 47.1258C35.7988 47.1258 37.0259 47.0976 38.2336 47.0428C37.0478 48.6808 35.8503 50.1785 34.6585 51.5122ZM47.0758 37.5339C47.8897 39.4195 48.5759 41.2438 49.1209 42.9785C47.355 43.388 45.4487 43.7178 43.44 43.9626C44.0837 42.9255 44.707 41.8755 45.3096 40.8132C45.9222 39.7335 46.5111 38.6402 47.0758 37.5339ZM43.0559 39.4924C42.1334 41.121 41.159 42.7188 40.1343 44.2831C38.3274 44.4143 36.4602 44.482 34.5574 44.482C32.6624 44.482 30.8189 44.422 29.0436 44.305C27.9923 42.7444 26.9995 41.1438 26.0673 39.5069C25.1394 37.8786 24.2727 36.2151 23.4691 34.52C24.2707 32.8244 25.1347 31.16 26.0594 29.5304V29.531C26.9839 27.901 27.9688 26.3073 29.0123 24.7534C30.8235 24.6142 32.6805 24.5414 34.5577 24.5414C36.4432 24.5414 38.3027 24.6148 40.1133 24.755C41.1462 26.3066 42.1249 27.8947 43.0475 29.5165C43.9754 31.1424 44.851 32.7987 45.6729 34.4825C44.8595 36.1835 43.9867 37.8545 43.0562 39.4924H43.0559ZM48.4229 9.96674C50.462 11.1621 51.2552 15.9821 49.9739 22.3032C49.89 22.715 49.7987 23.1252 49.7001 23.5337C47.1736 22.9412 44.4299 22.5002 41.5574 22.2263C39.8839 19.8046 38.1501 17.6026 36.4095 15.6967C36.8656 15.2499 37.3326 14.8146 37.81 14.3913C42.3061 10.4146 46.5082 8.84452 48.4229 9.96674Z" fill="white"/>
<path d="M34.5572 28.9297C37.5608 28.9297 39.9953 31.4042 39.9953 34.4564C39.9953 37.5089 37.5608 39.9835 34.5572 39.9835C31.554 39.9835 29.1191 37.5089 29.1191 34.4564C29.1191 31.4042 31.554 28.9297 34.5572 28.9297Z" fill="#53C1DE"/>
</svg>
