<!-- Generated by IcoMoon.io -->
<svg version="1.1" xmlns="http://www.w3.org/2000/svg" width="34" height="32" viewBox="0 0 34 32">
<title>react</title>
<path d="M-1.031 15.963c0 2.757 2.668 5.33 6.875 6.78-0.84 4.266-0.15 7.705 2.153 9.044 2.367 1.377 5.894 0.424 9.241-2.528 3.263 2.832 6.56 3.947 8.861 2.604 2.365-1.381 3.084-5.053 2.221-9.452 4.382-1.461 6.833-3.655 6.833-6.448 0-2.693-2.673-5.022-6.823-6.463 0.929-4.581 0.142-7.936-2.257-9.331-2.312-1.345-5.648-0.173-8.959 2.734-3.444-3.085-6.747-4.027-9.143-2.628-2.31 1.349-2.969 4.85-2.127 9.195-4.065 1.43-6.875 3.812-6.875 6.493z"></path>
<path d="M27.45 10.932c-0.342-0.118-0.687-0.228-1.034-0.329 0.058-0.236 0.111-0.473 0.16-0.712 0.783-3.834 0.271-6.923-1.477-7.94-1.676-0.975-4.418 0.042-7.187 2.472-0.273 0.24-0.54 0.487-0.8 0.741-0.174-0.169-0.352-0.334-0.532-0.496-2.902-2.599-5.811-3.694-7.557-2.675-1.675 0.978-2.171 3.882-1.466 7.516 0.070 0.36 0.149 0.718 0.237 1.074-0.412 0.118-0.809 0.244-1.189 0.377-3.402 1.196-5.575 3.072-5.575 5.017 0 2.009 2.332 4.024 5.876 5.246 0.287 0.099 0.577 0.19 0.869 0.274-0.095 0.383-0.179 0.769-0.252 1.157-0.672 3.571-0.147 6.406 1.523 7.378 1.725 1.003 4.621-0.028 7.44-2.514 0.223-0.197 0.447-0.405 0.671-0.623 0.282 0.275 0.572 0.541 0.869 0.799 2.731 2.371 5.428 3.328 7.097 2.353 1.724-1.006 2.284-4.052 1.556-7.758-0.055-0.283-0.12-0.572-0.193-0.867 0.203-0.060 0.403-0.123 0.598-0.188 3.684-1.231 6.081-3.222 6.081-5.258 0-1.952-2.243-3.84-5.713-5.045z"></path>
<path d="M26.652 19.92c-0.176 0.059-0.356 0.115-0.54 0.17-0.407-1.299-0.956-2.68-1.627-4.106 0.641-1.393 1.169-2.756 1.564-4.047 0.329 0.096 0.648 0.197 0.955 0.304 2.974 1.033 4.788 2.559 4.788 3.736 0 1.253-1.959 2.88-5.14 3.943h-0zM25.332 22.558c0.322 1.639 0.367 3.12 0.154 4.278-0.191 1.041-0.576 1.734-1.052 2.012-1.013 0.591-3.179-0.177-5.514-2.205-0.268-0.232-0.538-0.481-0.808-0.743 0.905-0.999 1.81-2.161 2.694-3.45 1.554-0.139 3.021-0.366 4.352-0.677 0.065 0.267 0.124 0.528 0.174 0.784zM11.985 28.747c-0.989 0.352-1.777 0.362-2.254 0.085-1.014-0.59-1.435-2.866-0.86-5.92 0.068-0.361 0.147-0.72 0.235-1.076 1.316 0.294 2.773 0.505 4.331 0.632 0.889 1.262 1.82 2.422 2.758 3.438-0.199 0.195-0.404 0.384-0.612 0.569-1.247 1.099-2.496 1.879-3.597 2.272h-0zM7.349 19.912c-1.567-0.54-2.861-1.242-3.748-2.008-0.797-0.689-1.199-1.372-1.199-1.927 0-1.18 1.745-2.686 4.654-3.709 0.365-0.128 0.734-0.245 1.106-0.351 0.402 1.319 0.93 2.699 1.566 4.094-0.645 1.416-1.18 2.817-1.586 4.152-0.266-0.077-0.531-0.16-0.793-0.25zM8.903 9.243c-0.604-3.114-0.203-5.462 0.806-6.051 1.075-0.628 3.452 0.267 5.958 2.512 0.16 0.143 0.321 0.294 0.482 0.449-0.933 1.011-1.856 2.163-2.737 3.417-1.511 0.141-2.958 0.368-4.288 0.672-0.082-0.331-0.156-0.664-0.221-0.999v0zM22.765 12.696c-0.314-0.547-0.64-1.088-0.977-1.621 1.025 0.131 2.008 0.304 2.93 0.517-0.277 0.895-0.622 1.831-1.028 2.791-0.297-0.568-0.605-1.131-0.924-1.687zM17.112 7.142c0.633 0.692 1.267 1.465 1.891 2.303-1.265-0.060-2.533-0.061-3.798-0.001 0.624-0.831 1.264-1.602 1.907-2.302zM11.423 12.705c-0.315 0.552-0.618 1.111-0.907 1.676-0.4-0.956-0.742-1.897-1.021-2.805 0.917-0.207 1.895-0.376 2.913-0.505-0.341 0.537-0.67 1.081-0.985 1.633zM12.438 20.981c-1.052-0.119-2.045-0.279-2.961-0.48 0.284-0.924 0.633-1.885 1.042-2.862 0.291 0.566 0.594 1.126 0.911 1.677 0.323 0.563 0.66 1.118 1.009 1.665zM17.15 24.91c-0.651-0.708-1.3-1.492-1.933-2.334 0.615 0.024 1.243 0.037 1.88 0.037 0.655 0 1.302-0.015 1.94-0.043-0.626 0.858-1.258 1.642-1.887 2.341zM23.702 17.589c0.43 0.988 0.792 1.943 1.079 2.852-0.932 0.214-1.938 0.387-2.998 0.515 0.34-0.543 0.668-1.093 0.987-1.649 0.323-0.565 0.634-1.138 0.932-1.718zM21.581 18.614c-0.487 0.853-1.001 1.69-1.542 2.509-0.953 0.069-1.939 0.104-2.943 0.104-1 0-1.973-0.031-2.909-0.093-0.555-0.817-1.079-1.656-1.571-2.513-0.49-0.853-0.947-1.724-1.371-2.612 0.423-0.888 0.879-1.76 1.367-2.613v0c0.488-0.854 1.007-1.688 1.558-2.502 0.956-0.073 1.936-0.111 2.926-0.111 0.995 0 1.976 0.039 2.932 0.112 0.545 0.813 1.061 1.644 1.548 2.494 0.49 0.852 0.952 1.719 1.385 2.601-0.429 0.891-0.89 1.766-1.381 2.624h-0zM24.413 3.151c1.076 0.626 1.495 3.15 0.818 6.461-0.044 0.216-0.092 0.431-0.144 0.644-1.333-0.31-2.781-0.541-4.297-0.685-0.883-1.268-1.798-2.422-2.716-3.42 0.241-0.234 0.487-0.462 0.739-0.684 2.372-2.083 4.59-2.905 5.6-2.317z"></path>
<path d="M17.097 13.082c1.585 0 2.87 1.296 2.87 2.895s-1.285 2.895-2.87 2.895c-1.585 0-2.869-1.296-2.869-2.895s1.285-2.895 2.869-2.895z"></path>
</svg>
