<svg width="97" height="25" viewBox="0 0 97 25" fill="none" xmlns="http://www.w3.org/2000/svg">
<path d="M10.9883 10.3086H12.9326V22.0071H10.9883V10.3086Z" fill="white"/>
<path d="M19.6969 18.2992C19.6969 20.1116 18.1753 20.2764 17.668 20.2764C16.4845 20.2764 16.3155 19.2054 16.3155 18.6288V14.0977H14.3711V18.5463C14.3711 19.6174 14.7092 20.606 15.3855 21.1827C15.9773 21.7593 16.7381 22.0065 17.668 22.0065C18.3443 22.0065 19.1897 21.8417 19.6969 21.3474V22.0065H21.6412V14.0977H19.6969V18.2992Z" fill="white"/>
<path d="M25.4459 11.2139H23.5016V14.0973H22.0645V15.9097H23.5016V22.0061H25.4459V15.9097H26.883V14.0973H25.4459V11.2139Z" fill="white"/>
<path d="M32.9692 19.618C32.5465 19.9476 31.9547 20.1947 31.363 20.1947C30.0104 20.1947 29.0805 19.2061 29.0805 17.888C29.0805 16.5698 30.0104 15.6636 31.363 15.6636C31.9547 15.6636 32.5465 15.8284 32.9692 16.2403L33.2228 16.4874L34.5754 15.2517L34.2372 15.0046C33.4764 14.3455 32.462 13.9336 31.363 13.9336C28.9959 13.9336 27.2207 15.6636 27.2207 17.9704C27.2207 20.2771 28.9959 22.0072 31.363 22.0072C32.462 22.0072 33.4764 21.5952 34.2372 20.9362L34.5754 20.689L33.2228 19.3709L32.9692 19.618Z" fill="white"/>
<path d="M41.4215 14.7573C40.8297 14.1807 40.238 13.9335 39.3081 13.9335C38.6318 13.9335 37.9554 14.0983 37.4483 14.5926V10.3086H35.5039V22.0071H37.4483V17.6408C37.4483 15.8283 38.7163 15.6636 39.2235 15.6636C40.4071 15.6636 40.3225 16.7345 40.3225 17.3112V21.9247H42.2669V17.3936C42.2669 16.3226 42.0132 15.334 41.4215 14.7573Z" fill="white"/>
<path d="M31.2783 19.2877C32.0253 19.2877 32.631 18.6975 32.631 17.9695C32.631 17.2415 32.0253 16.6514 31.2783 16.6514C30.5313 16.6514 29.9258 17.2415 29.9258 17.9695C29.9258 18.6975 30.5313 19.2877 31.2783 19.2877Z" fill="#EF4335"/>
<path d="M8.28464 19.1229C7.60833 19.782 6.59388 20.1939 5.4949 20.1939C3.38148 20.1939 1.85981 18.5462 1.85981 16.3219C1.85981 14.0975 3.38148 12.4498 5.57944 12.4498C6.59388 12.4498 7.60833 12.8618 8.36913 13.6032L8.62276 13.8504L9.89081 12.6146L9.63719 12.3674C8.53827 11.2965 7.10111 10.7198 5.57944 10.7198C2.36704 10.6374 0 13.1089 0 16.3219C0 19.5348 2.36704 22.0063 5.4949 22.0063C7.01657 22.0063 8.53827 21.4297 9.55269 20.3587L9.80632 20.1115L8.53827 18.8758L8.28464 19.1229Z" fill="white"/>
<path d="M1.99012 4.95526H1.16864V6.56658H0.431641V2.38459H1.92312C2.41251 2.38459 2.79024 2.49278 3.0563 2.70916C3.32235 2.92554 3.45538 3.2386 3.45538 3.64838C3.45538 3.92794 3.38643 4.16251 3.24855 4.35208C3.11261 4.53973 2.92229 4.6843 2.67759 4.78579L3.63016 6.52924V6.56658H2.84072L1.99012 4.95526ZM1.16864 4.37219H1.92603C2.17461 4.37219 2.36881 4.31091 2.50864 4.18836C2.64847 4.0639 2.71838 3.89444 2.71838 3.67997C2.71838 3.45594 2.65332 3.28266 2.5232 3.1601C2.39503 3.03755 2.20277 2.97436 1.94643 2.97053H1.16864V4.37219ZM7.02129 4.69963H5.27929V5.98638H7.31551V6.56658H4.54229V2.38459H7.29512V2.97053H5.27929V4.12518H7.02129V4.69963ZM9.79781 5.65608L10.8756 2.38459H11.6854L10.159 6.56658H9.4453L7.92466 2.38459H8.73162L9.79781 5.65608ZM13.3316 6.56658H12.5975V2.38459H13.3316V6.56658ZM17.1044 4.69963H15.3624V5.98638H17.3986V6.56658H14.6253V2.38459H17.3782V2.97053H15.3624V4.12518H17.1044V4.69963ZM21.7132 5.53257L22.3657 2.38459H23.0969L22.1181 6.56658H21.4131L20.6063 3.51338L19.7818 6.56658H19.074L18.0952 2.38459H18.8263L19.4847 5.52683L20.2945 2.38459H20.9121L21.7132 5.53257ZM26.5026 4.69963H24.7605V5.98638H26.7968V6.56658H24.0235V2.38459H26.7764V2.97053H24.7605V4.12518H26.5026V4.69963ZM27.7847 6.56658V2.38459H29.0373C29.4121 2.38459 29.7442 2.46693 30.0335 2.6316C30.3248 2.79628 30.5501 3.02989 30.7094 3.33244C30.8686 3.63497 30.9482 3.98156 30.9482 4.37219V4.58186C30.9482 4.97824 30.8676 5.32673 30.7065 5.62736C30.5472 5.92798 30.319 6.15968 30.0219 6.32244C29.7267 6.48521 29.3878 6.56658 29.0052 6.56658H27.7847ZM28.5217 2.97053V5.98638H29.0023C29.3887 5.98638 29.685 5.86766 29.8908 5.63023C30.0986 5.39087 30.2044 5.04812 30.2083 4.60197V4.36931C30.2083 3.91549 30.1083 3.56891 29.9082 3.32956C29.7082 3.09021 29.4179 2.97053 29.0373 2.97053H28.5217ZM37.3285 4.58474C37.3285 4.99451 37.2566 5.3545 37.1129 5.6647C36.9692 5.97299 36.7634 6.21042 36.4953 6.37701C36.2293 6.54169 35.9225 6.62402 35.5748 6.62402C35.2311 6.62402 34.9242 6.54169 34.6543 6.37701C34.3863 6.21042 34.1785 5.97394 34.0309 5.66758C33.8853 5.3612 33.8115 5.00791 33.8096 4.60772V4.37219C33.8096 3.96433 33.8823 3.60434 34.028 3.29222C34.1756 2.9801 34.3824 2.74171 34.6485 2.57703C34.9165 2.41044 35.2233 2.32715 35.569 2.32715C35.9147 2.32715 36.2205 2.40949 36.4866 2.57416C36.7546 2.73692 36.9614 2.97244 37.1071 3.28073C37.2527 3.5871 37.3265 3.94423 37.3285 4.35208V4.58474ZM36.5915 4.36644C36.5915 3.90305 36.5021 3.54785 36.3234 3.30085C36.1468 3.05383 35.8952 2.93032 35.569 2.93032C35.2505 2.93032 35.001 3.05383 34.8203 3.30085C34.6417 3.54594 34.5504 3.89348 34.5465 4.34347V4.58474C34.5465 5.0443 34.6368 5.39949 34.8174 5.65033C35 5.90118 35.2524 6.0266 35.5748 6.0266C35.9011 6.0266 36.1516 5.90405 36.3264 5.65895C36.5031 5.41385 36.5915 5.05579 36.5915 4.58474V4.36644ZM41.8149 6.56658H41.0779L39.1874 3.59956V6.56658H38.4504V2.38459H39.1874L41.0837 5.36311V2.38459H41.8149V6.56658Z" fill="white"/>
<path d="M52.7573 22.0073H51.8761V17.8102L50.5762 18.2482V17.5122L52.6445 16.7618H52.7573V22.0073ZM58.613 17.2645L56.4938 22.0073H55.5652L57.6808 17.4799H54.9389V16.7798H58.613V17.2645ZM64.2397 19.9932H63.2128V22.0073H62.2916V16.7798H64.1559C64.7677 16.7798 65.2398 16.9151 65.5724 17.1855C65.905 17.4559 66.0712 17.8473 66.0712 18.3596C66.0712 18.709 65.9851 19.0022 65.8127 19.2392C65.6428 19.4737 65.4049 19.6544 65.099 19.7813L66.2897 21.9606V22.0073H65.303L64.2397 19.9932ZM63.2128 19.2643H64.1596C64.4703 19.2643 64.713 19.1877 64.8878 19.0345C65.0626 18.879 65.15 18.6671 65.15 18.399C65.15 18.119 65.0686 17.9023 64.906 17.7492C64.7458 17.596 64.5055 17.517 64.185 17.5122H63.2128V19.2643ZM70.5287 19.6736H68.3512V21.282H70.8965V22.0073H67.4299V16.7798H70.8709V17.5122H68.3512V18.9555H70.5287V19.6736ZM73.9992 20.8692L75.3464 16.7798H76.3591L74.4508 22.0073H73.5587L71.6578 16.7798H72.6665L73.9992 20.8692ZM78.4166 22.0073H77.4986V16.7798H78.4166V22.0073ZM83.1327 19.6736H80.9551V21.282H83.5003V22.0073H80.0334V16.7798H83.475V17.5122H80.9551V18.9555H83.1327V19.6736ZM88.8935 20.7148L89.7094 16.7798H90.6229L89.3999 22.0073H88.5184L87.5094 18.1908L86.4796 22.0073H85.5944L84.3714 16.7798H85.2849L86.1082 20.7076L87.1202 16.7798H87.892L88.8935 20.7148ZM94.5522 20.6609C94.5522 20.4312 94.4702 20.254 94.3046 20.1295C94.142 20.0051 93.8475 19.8794 93.4202 19.7526C92.9929 19.6257 92.6528 19.4845 92.4007 19.3289C91.9175 19.0297 91.6759 18.6395 91.6759 18.1584C91.6759 17.7372 91.8496 17.3901 92.1964 17.1173C92.5462 16.8444 92.9988 16.708 93.5551 16.708C93.9235 16.708 94.2524 16.775 94.5418 16.909C94.8304 17.0431 95.0578 17.2346 95.2226 17.4835C95.3874 17.7301 95.4702 18.0041 95.4702 18.3057H94.5522C94.5522 18.0328 94.4649 17.8198 94.2904 17.6666C94.1182 17.511 93.8706 17.4332 93.5477 17.4332C93.2464 17.4332 93.0122 17.4967 92.8444 17.6235C92.6796 17.7504 92.5969 17.9275 92.5969 18.1549C92.5969 18.3464 92.6871 18.5068 92.8668 18.636C93.0465 18.7629 93.3426 18.8873 93.755 19.0094C94.1674 19.129 94.4992 19.2667 94.7491 19.4223C94.9989 19.5754 95.1823 19.7526 95.2987 19.9536C95.4158 20.1523 95.4739 20.3857 95.4739 20.6537C95.4739 21.0893 95.3039 21.4364 94.9638 21.6949C94.6268 21.951 94.1674 22.0791 93.5872 22.0791C93.2039 22.0791 92.8512 22.0097 92.5283 21.8709C92.2076 21.7296 91.9578 21.5357 91.778 21.2893C91.6006 21.0427 91.5118 20.7554 91.5118 20.4276H92.4335C92.4335 20.7243 92.5327 20.9541 92.7318 21.1169C92.931 21.2796 93.2158 21.361 93.5872 21.361C93.9079 21.361 94.148 21.2976 94.3083 21.1707C94.4709 21.0415 94.5522 20.8715 94.5522 20.6609Z" fill="white"/>
<path d="M54.9171 1.95399C55.0265 1.73539 55.3426 1.73539 55.452 1.95399L56.4302 3.90809C56.4736 3.9949 56.5576 4.05506 56.6548 4.06898L58.8419 4.38234C59.0866 4.4174 59.1842 4.71386 59.0072 4.88401L57.4246 6.40507C57.3543 6.47264 57.3222 6.56999 57.3388 6.6654L57.7124 8.81314C57.7541 9.05343 57.4984 9.23659 57.2796 9.12321L55.3233 8.10917C55.2365 8.06409 55.1326 8.06409 55.0458 8.10917L53.0895 9.12321C52.8707 9.23659 52.615 9.05343 52.6567 8.81314L53.0303 6.6654C53.0469 6.56999 53.0148 6.47264 52.9445 6.40507L51.3619 4.88401C51.1848 4.71386 51.2825 4.4174 51.5272 4.38234L53.7143 4.06898C53.8115 4.05506 53.8955 3.9949 53.9389 3.90809L54.9171 1.95399Z" fill="#E93F33"/>
<path d="M63.8663 1.95399C63.9757 1.73539 64.2919 1.73539 64.4013 1.95399L65.3794 3.90809C65.4229 3.9949 65.5068 4.05506 65.604 4.06898L67.7911 4.38234C68.0358 4.4174 68.1335 4.71386 67.9564 4.88401L66.3738 6.40507C66.3035 6.47264 66.2714 6.56999 66.288 6.6654L66.6616 8.81314C66.7034 9.05343 66.4476 9.23659 66.2288 9.12321L64.2726 8.10917C64.1857 8.06409 64.0819 8.06409 63.995 8.10917L62.0388 9.12321C61.8199 9.23659 61.5642 9.05343 61.6059 8.81314L61.9796 6.6654C61.9961 6.56999 61.964 6.47264 61.8937 6.40507L60.3111 4.88401C60.1341 4.71386 60.2318 4.4174 60.4764 4.38234L62.6635 4.06898C62.7607 4.05506 62.8447 3.9949 62.8882 3.90809L63.8663 1.95399Z" fill="#E93F33"/>
<path d="M72.8135 1.95399C72.9229 1.73539 73.2391 1.73539 73.3485 1.95399L74.3266 3.90809C74.3701 3.9949 74.4541 4.05506 74.5513 4.06898L76.738 4.38234C76.9826 4.4174 77.0803 4.71386 76.9035 4.88401L75.3211 6.40507C75.2502 6.47264 75.2182 6.56999 75.2353 6.6654L75.6089 8.81314C75.6507 9.05343 75.3949 9.23659 75.1757 9.12321L73.2198 8.10917C73.1329 8.06409 73.0291 8.06409 72.9422 8.10917L70.986 9.12321C70.7672 9.23659 70.5114 9.05343 70.5532 8.81314L70.9268 6.6654C70.9434 6.56999 70.9113 6.47264 70.841 6.40507L69.2584 4.88401C69.0813 4.71386 69.179 4.4174 69.4237 4.38234L71.6108 4.06898C71.708 4.05506 71.7919 3.9949 71.8354 3.90809L72.8135 1.95399Z" fill="#E93F33"/>
<path d="M81.7643 1.95399C81.8739 1.73539 82.1901 1.73539 82.2997 1.95399L83.2774 3.90809C83.3214 3.9949 83.4049 4.05506 83.5018 4.06898L85.6891 4.38234C85.9337 4.4174 86.0314 4.71386 85.8546 4.88401L84.2722 6.40507C84.2013 6.47264 84.1693 6.56999 84.1864 6.6654L84.56 8.81314C84.6018 9.05343 84.346 9.23659 84.1268 9.12321L82.1707 8.10917C82.0842 8.06409 81.9798 8.06409 81.8933 8.10917L79.9372 9.12321C79.718 9.23659 79.4622 9.05343 79.5039 8.81314L79.8775 6.6654C79.8947 6.56999 79.8626 6.47264 79.7918 6.40507L78.2093 4.88401C78.0326 4.71386 78.1303 4.4174 78.3749 4.38234L80.5621 4.06898C80.6591 4.05506 80.7426 3.9949 80.7866 3.90809L81.7643 1.95399Z" fill="#E93F33"/>
<path d="M90.7115 1.95399C90.8212 1.73539 91.1373 1.73539 91.247 1.95399L92.2246 3.90809C92.2686 3.9949 92.3522 4.05506 92.4491 4.06898L94.6364 4.38234C94.881 4.4174 94.9786 4.71386 94.8019 4.88401L93.2194 6.40507C93.1486 6.47264 93.1165 6.56999 93.1337 6.6654L93.5073 8.81314C93.5491 9.05343 93.2933 9.23659 93.074 9.12321L91.118 8.10917C91.0315 8.06409 90.9271 8.06409 90.8405 8.10917L88.8845 9.12321C88.6652 9.23659 88.4094 9.05343 88.4512 8.81314L88.8248 6.6654C88.842 6.56999 88.8099 6.47264 88.7391 6.40507L87.1566 4.88401C86.9799 4.71386 87.0775 4.4174 87.3222 4.38234L89.5094 4.06898C89.6063 4.05506 89.6899 3.9949 89.7339 3.90809L90.7115 1.95399Z" fill="#E93F33"/>
</svg>
