<svg width="67" height="25" viewBox="0 0 67 25" fill="none" xmlns="http://www.w3.org/2000/svg">
<path d="M5.39554 18.851C5.39554 18.851 4.86333 18.7991 4.86333 19.2647V21.3326H8.37794V21.9532C8.37794 21.9532 8.38843 22.2632 8.05842 22.2632H4.86333V24.9517H8.69744C8.69744 24.9517 11.0189 24.6 11.0404 22.2632V18.851H5.39554ZM10.9336 15.542H4.01115C1.50803 16.1209 1.45508 18.1373 1.45508 18.1373V24.9517H4.11797V18.7475C4.11797 18.2202 4.65018 18.1274 4.65018 18.1274H10.934V15.542H10.9336ZM20.0724 23.0017C19.8899 23.1213 19.7548 23.2091 19.6594 23.2651C19.3179 23.4726 18.9925 23.6326 18.6908 23.7603C18.2539 23.9359 17.8646 24.0238 17.5154 24.0238C16.3164 24.0238 15.3236 23.6644 14.5212 22.9376C13.7188 22.2108 13.3226 21.3008 13.3226 20.1989C13.3226 19.137 13.68 18.2184 14.4025 17.4356C15.125 16.6532 15.9987 16.2696 17.0311 16.2696C17.4602 16.2696 17.9203 16.3414 18.3968 16.4937C19.0163 16.6851 19.5164 16.9727 19.9136 17.3477L19.2225 18.0983C18.9291 17.8191 18.5479 17.6112 18.1029 17.4835C17.7697 17.3876 17.4045 17.3401 16.9992 17.3401C16.2766 17.3401 15.665 17.6269 15.1808 18.1942C14.6965 18.7691 14.4505 19.4479 14.4505 20.2464C14.4505 21.0373 14.728 21.6838 15.284 22.2032C15.8398 22.7221 16.5464 22.9856 17.4041 22.9856C17.7615 22.9856 18.1271 22.8735 18.5 22.6585C18.8099 22.4268 18.9687 22.3148 18.9766 22.3067V20.6698H16.6578L16.991 19.6478H20.0724V23.0017ZM27.0766 21.005C27.0766 21.7955 26.7908 22.4823 26.2189 23.0573C25.647 23.6321 24.9404 23.9279 24.0987 23.9279C23.3205 23.9279 22.6376 23.6402 22.0497 23.0734C21.4619 22.5066 21.1761 21.8196 21.1761 21.0131C21.1761 20.2146 21.4545 19.5277 22.01 18.9367C22.5655 18.3456 23.2488 18.0584 24.0508 18.0584C24.9404 18.0584 25.663 18.338 26.2267 18.9049C26.7908 19.456 27.0766 20.1586 27.0766 21.005ZM25.9884 21.0212C25.9884 20.4862 25.8058 20.0309 25.4406 19.6635C25.0754 19.288 24.6227 19.1042 24.0828 19.1042C23.5748 19.1042 23.1457 19.296 22.7883 19.6796C22.4309 20.0627 22.2561 20.5018 22.2561 20.997C22.2561 21.5163 22.4385 21.9554 22.7961 22.3228C23.1534 22.6903 23.5985 22.8816 24.138 22.8816C24.6387 22.8816 25.0673 22.6979 25.433 22.3305C25.8058 21.963 25.9889 21.5239 25.9889 21.0212H25.9884ZM33.9853 21.005C33.9853 21.7955 33.6995 22.4823 33.1276 23.0573C32.5557 23.6321 31.8491 23.9279 31.0074 23.9279C30.2292 23.9279 29.5464 23.6402 28.9585 23.0734C28.371 22.5066 28.0848 21.8196 28.0848 21.0131C28.0848 20.2146 28.3632 19.5277 28.9188 18.9367C29.4747 18.3456 30.1576 18.0584 30.9595 18.0584C31.8491 18.0584 32.5716 18.338 33.1354 18.9049C33.6995 19.456 33.9853 20.1586 33.9853 21.005ZM32.897 21.0212C32.897 20.4862 32.7145 20.0309 32.3494 19.6635C31.9842 19.288 31.5314 19.1042 30.9914 19.1042C30.4834 19.1042 30.0544 19.296 29.6969 19.6796C29.3396 20.0627 29.1648 20.5018 29.1648 20.997C29.1648 21.5163 29.3473 21.9554 29.7052 22.3228C30.0621 22.6903 30.5072 22.8816 31.0472 22.8816C31.5473 22.8816 31.9761 22.6979 32.3416 22.3305C32.7145 21.963 32.8975 21.5239 32.8975 21.0212H32.897ZM40.3782 23.7679L39.3777 23.9198V22.9694L39.1631 23.2087C38.9742 23.3825 38.7601 23.5279 38.5278 23.6402C38.1869 23.7946 37.8156 23.8737 37.44 23.8719C36.6618 23.8719 35.9945 23.5923 35.4546 23.025C34.9146 22.4577 34.6448 21.7874 34.6448 21.005C34.6448 20.1985 34.9146 19.5039 35.4468 18.9286C35.979 18.3532 36.6299 18.0661 37.4081 18.0661C37.8532 18.0661 38.2421 18.1377 38.5676 18.2816C38.798 18.3855 38.9965 18.5213 39.1631 18.6894C39.2188 18.761 39.2745 18.8407 39.3302 18.9124V16.4211L40.3937 16.2692L40.3782 23.7679ZM39.4412 21.0767C39.4412 20.518 39.2504 20.0466 38.8614 19.6635C38.4726 19.2719 38.0352 19.0805 37.5355 19.0805C36.9796 19.0805 36.5349 19.2642 36.1935 19.6317C35.8754 19.9825 35.7088 20.414 35.7088 20.9172C35.7088 21.484 35.8754 21.955 36.2091 22.3224C36.5422 22.6898 36.9636 22.8735 37.4797 22.8735C37.9878 22.8735 38.4328 22.706 38.83 22.3628C39.2348 22.011 39.4416 21.58 39.4416 21.0767H39.4412ZM45.9924 17.4598H43.0146V19.4479H45.3251V20.47H43.0146V23.7603L41.8551 23.9279V16.4291H45.7619L45.9924 17.4598ZM48.3828 16.8764L47.668 17.7627L46.9852 16.8764L47.7077 15.9981L48.3828 16.8764ZM48.1682 23.7679L47.1043 23.9118V18.3618L48.1682 18.2022V23.7684V23.7679ZM52.9728 18.1462L52.4724 19.2799C52.4067 19.2701 52.3404 19.2648 52.274 19.2642C52.1708 19.2642 52.0676 19.2722 51.964 19.288C51.8604 19.3037 51.7495 19.344 51.6308 19.4C51.4086 19.4959 51.2178 19.7034 51.0512 20.0147C50.8668 20.3682 50.7714 20.7599 50.7727 21.157V23.7603L49.7092 23.9279V18.3618L50.6938 18.1861V19.344C50.8206 19.1441 50.9558 18.9447 51.0827 18.7372C51.2652 18.5294 51.4798 18.3779 51.718 18.2896C51.845 18.2421 52.0755 18.2018 52.4246 18.17C52.7583 18.1462 52.9491 18.1301 52.9728 18.1462ZM60.8976 23.7679L59.8336 23.9198V20.1107C59.8336 19.7589 59.7542 19.5035 59.5953 19.344C59.4364 19.184 59.1982 19.1042 58.8883 19.1042C58.5154 19.1042 58.2291 19.2562 58.0389 19.5595C57.9115 19.767 57.8403 19.9905 57.8403 20.2142V23.7598L56.7763 23.9516V20.1344C56.7763 19.7992 56.6969 19.5434 56.5458 19.3682C56.387 19.1921 56.1806 19.1042 55.9104 19.1042H55.8073C55.434 19.1042 55.1637 19.2562 54.9971 19.5676C54.8702 19.7992 54.8068 20.0945 54.8068 20.4539V23.7598L53.7031 23.9516V18.3618L54.6954 18.1942V18.9049C54.8068 18.7369 54.9177 18.6011 55.0213 18.5056C55.307 18.2421 55.6406 18.1139 56.0137 18.1139C56.4344 18.1139 56.7439 18.1781 56.9585 18.3139C57.141 18.4259 57.3158 18.649 57.4906 18.9685C57.8558 18.4017 58.3721 18.1139 59.0554 18.1139C59.7062 18.1139 60.191 18.3139 60.5083 18.7212C60.7707 19.0563 60.8976 19.5514 60.8976 20.1985V23.7679ZM65.7587 22.0831C65.7587 22.594 65.5761 23.0174 65.2109 23.3449C64.8458 23.6801 64.3847 23.8401 63.8288 23.8401C63.408 23.8401 63.0345 23.7441 62.6932 23.5524C62.3517 23.3611 62.098 23.1451 61.9309 22.8897L62.6777 22.235C62.7329 22.3148 62.7808 22.3784 62.8284 22.4263C63.1067 22.706 63.4399 22.8498 63.8288 22.8498C64.099 22.8498 64.3135 22.7781 64.4642 22.6423C64.623 22.5066 64.6947 22.3148 64.6947 22.067C64.6947 21.7878 64.5121 21.596 64.147 21.4921C63.424 21.2765 63.0345 21.157 62.9793 21.1327C62.6457 20.9652 62.4074 20.7895 62.2564 20.5897C62.0897 20.358 62.0026 20.0547 62.0026 19.6635C62.0026 19.184 62.1852 18.7852 62.5426 18.4657C62.9 18.1462 63.3285 17.9944 63.8206 17.9944C64.1945 17.9944 64.5435 18.0741 64.8613 18.2421C65.179 18.4097 65.409 18.5854 65.5442 18.7932L64.9087 19.4717C64.8133 19.3779 64.7098 19.2924 64.5993 19.2162C64.345 19.0406 64.099 18.9528 63.869 18.9528C63.6462 18.9528 63.4636 19.0007 63.3208 19.0962C63.1537 19.2162 63.0665 19.3919 63.0665 19.6236C63.0665 19.8472 63.146 20.0147 63.313 20.1187C63.4559 20.2065 63.7576 20.3024 64.2341 20.406C64.7102 20.518 65.0758 20.7097 65.3378 20.9813C65.6318 21.2685 65.7587 21.6278 65.7587 22.0831Z" fill="white"/>
<path d="M14.1687 0.72168L15.5698 3.50859L18.7026 3.95549L16.4357 6.12478L16.9709 9.18788L14.1687 7.74168L11.3666 9.18788L11.9017 6.12478L9.63477 3.95549L12.7676 3.50859L14.1687 0.72168Z" fill="#FDC900"/>
<path d="M23.7019 0.72168L25.1029 3.50859L28.2358 3.95549L25.9689 6.12478L26.504 9.18788L23.7019 7.74168L20.8998 9.18788L21.4349 6.12478L19.168 3.95549L22.3007 3.50859L23.7019 0.72168Z" fill="#FDC900"/>
<path d="M33.2371 0.72168L34.6382 3.50859L37.771 3.95549L35.504 6.12478L36.0392 9.18788L33.2371 7.74168L30.4349 9.18788L30.9701 6.12478L28.7031 3.95549L31.836 3.50859L33.2371 0.72168Z" fill="#FDC900"/>
<path d="M42.7702 0.72168L44.1714 3.50859L47.3041 3.95549L45.0372 6.12478L45.5723 9.18788L42.7702 7.74168L39.9681 9.18788L40.5032 6.12478L38.2363 3.95549L41.3692 3.50859L42.7702 0.72168Z" fill="#FDC900"/>
<path d="M52.3093 0.72168L53.7103 3.50859L56.8432 3.95549L54.5763 6.12478L55.1114 9.18788L52.3093 7.74168L49.5072 9.18788L50.0423 6.12478L47.7754 3.95549L50.9081 3.50859L52.3093 0.72168Z" fill="#FDC900"/>
</svg>
