<svg width="40" height="32" viewBox="0 0 40 32" fill="none" xmlns="http://www.w3.org/2000/svg">
<path d="M27.2269 17.3533H24.2971C24.3798 16.8866 24.6612 16.6282 25.2323 16.3366L25.7703 16.0615C26.7387 15.5615 27.2518 15.0032 27.2518 14.0781C27.2518 13.4948 27.0283 13.0448 26.5896 12.7114C26.1593 12.3781 25.6213 12.2197 25.0171 12.2197C24.5288 12.2197 24.0901 12.3448 23.6763 12.6031C23.2791 12.8531 22.9729 13.1698 22.7908 13.5781L23.6433 14.4365C23.9744 13.7698 24.4461 13.4365 25.075 13.4365C25.6047 13.4365 25.9358 13.7115 25.9358 14.0948C25.9358 14.4198 25.7786 14.6865 25.1661 14.9949L24.8185 15.1615C24.0653 15.5449 23.5439 15.9783 23.246 16.4783C22.9481 16.9699 22.7908 17.6033 22.7908 18.3617V18.57H27.2269V17.3533ZM26.8297 19.9867H21.9714L19.5547 24.2202H24.413L26.838 28.4537L29.2629 24.2202L26.8297 19.9867Z" fill="#FF492C" stroke="#FF492C"/>
<path d="M19.9677 27.0369C16.8806 27.0369 14.3646 24.5034 14.3646 21.395C14.3646 18.2865 16.8806 15.7531 19.9677 15.7531L21.8878 11.7112C21.2588 11.5862 20.6133 11.5195 19.9677 11.5195C14.5548 11.5195 10.1602 15.9447 10.1602 21.395C10.1602 26.8535 14.5548 31.2703 19.9677 31.2703C22.1279 31.2703 24.1224 30.5703 25.7446 29.3786L23.6176 25.6702C22.641 26.5201 21.3664 27.0369 19.9677 27.0369Z" fill="#FF492C" stroke="#FF492C"/>
<path d="M5.06701 0L6.18981 2.28669L8.7004 2.65337L6.88373 4.43331L7.31261 6.94663L5.06701 5.76L2.82144 6.94663L3.2503 4.43331L1.43359 2.65337L3.94423 2.28669L5.06701 0Z" fill="#FDC900"/>
<path d="M12.7077 0L13.8305 2.28669L16.3411 2.65337L14.5243 4.43331L14.9532 6.94663L12.7077 5.76L10.4621 6.94663L10.891 4.43331L9.07422 2.65337L11.5849 2.28669L12.7077 0Z" fill="#FDC900"/>
<path d="M20.3483 0L21.4711 2.28669L23.9817 2.65337L22.165 4.43331L22.5939 6.94663L20.3483 5.76L18.1027 6.94663L18.5316 4.43331L16.7148 2.65337L19.2255 2.28669L20.3483 0Z" fill="#FDC900"/>
<path d="M27.9889 0L29.1117 2.28669L31.6224 2.65337L29.8057 4.43331L30.2346 6.94663L27.9889 5.76L25.7433 6.94663L26.1722 4.43331L24.3555 2.65337L26.8662 2.28669L27.9889 0Z" fill="#FDC900"/>
<path d="M35.6296 0L36.7523 2.28669L39.263 2.65337L37.4462 4.43331L37.8751 6.94663L35.6296 5.76L33.3839 6.94663L33.8128 4.43331L31.9961 2.65337L34.5067 2.28669L35.6296 0Z" fill="#FDC900"/>
</svg>
