<svg width="33" height="25" viewBox="0 0 33 25" fill="none" xmlns="http://www.w3.org/2000/svg">
<path d="M22.2814 13.5565H19.952C20.0178 13.1919 20.2416 12.99 20.6956 12.7622L21.1233 12.5473C21.8932 12.1567 22.3012 11.7205 22.3012 10.9978C22.3012 10.5421 22.1235 10.1904 21.7747 9.93C21.4326 9.66962 21.0049 9.5459 20.5245 9.5459C20.1363 9.5459 19.7875 9.64359 19.4585 9.84539C19.1427 10.0407 18.8993 10.2881 18.7545 10.6071L19.4322 11.2778C19.6955 10.7569 20.0705 10.4965 20.5705 10.4965C20.9917 10.4965 21.2549 10.7113 21.2549 11.0108C21.2549 11.2647 21.1299 11.4731 20.643 11.714L20.3666 11.8442C19.7678 12.1437 19.3533 12.4822 19.1164 12.8729C18.8795 13.257 18.7545 13.7518 18.7545 14.3443V14.5071H22.2814V13.5565ZM21.9656 15.6138H18.1031L16.1816 18.9213H20.0442L21.9722 22.2287L23.9001 18.9213L21.9656 15.6138Z" fill="#FF492C" stroke="#FF492C"/>
<path d="M16.5103 21.122C14.056 21.122 12.0556 19.1427 12.0556 16.7142C12.0556 14.2857 14.056 12.3065 16.5103 12.3065L18.0369 9.14877C17.5368 9.05114 17.0236 8.99902 16.5103 8.99902C12.2069 8.99902 8.71289 12.4562 8.71289 16.7142C8.71289 20.9787 12.2069 24.4293 16.5103 24.4293C18.2278 24.4293 19.8135 23.8824 21.1032 22.9515L19.4122 20.0542C18.6357 20.7183 17.6224 21.122 16.5103 21.122Z" fill="#FF492C" stroke="#FF492C"/>
<path d="M4.66412 0L5.55679 1.78647L7.55282 2.07295L6.10849 3.46353L6.44947 5.42705L4.66412 4.5L2.87879 5.42705L3.21976 3.46353L1.77539 2.07295L3.77146 1.78647L4.66412 0Z" fill="#FDC900"/>
<path d="M10.7384 0L11.631 1.78647L13.6271 2.07295L12.1827 3.46353L12.5237 5.42705L10.7384 4.5L8.953 5.42705L9.29399 3.46353L7.84961 2.07295L9.84572 1.78647L10.7384 0Z" fill="#FDC900"/>
<path d="M16.8145 0L17.7072 1.78647L19.7033 2.07295L18.2589 3.46353L18.5999 5.42705L16.8145 4.5L15.0292 5.42705L15.3702 3.46353L13.9258 2.07295L15.9218 1.78647L16.8145 0Z" fill="#FDC900"/>
<path d="M22.8888 0L23.7814 1.78647L25.7775 2.07295L24.3332 3.46353L24.6741 5.42705L22.8888 4.5L21.1034 5.42705L21.4444 3.46353L20 2.07295L21.9961 1.78647L22.8888 0Z" fill="#FDC900"/>
<path d="M28.963 0L29.8556 1.78647L31.8517 2.07295L30.4073 3.46353L30.7483 5.42705L28.963 4.5L27.1776 5.42705L27.5186 3.46353L26.0742 2.07295L28.0703 1.78647L28.963 0Z" fill="#FDC900"/>
</svg>
