<svg width="67" height="56" viewBox="0 0 67 56" fill="none" xmlns="http://www.w3.org/2000/svg">
<g opacity="0.3">
<path d="M45.6862 30.5218H40.497C40.6436 29.7009 41.142 29.2465 42.1535 28.7336L43.1063 28.2498C44.8215 27.3704 45.7303 26.3883 45.7303 24.7613C45.7303 23.7353 45.3345 22.9438 44.5575 22.3574C43.7952 21.7712 42.8424 21.4927 41.7724 21.4927C40.9075 21.4927 40.1305 21.7126 39.3976 22.1669C38.6941 22.6067 38.1518 23.1637 37.8292 23.8818L39.3391 25.3917C39.9255 24.2189 40.761 23.6327 41.8749 23.6327C42.8131 23.6327 43.3994 24.1165 43.3994 24.7907C43.3994 25.3624 43.1211 25.8314 42.0363 26.3737L41.4206 26.6668C40.0866 27.3411 39.1631 28.1034 38.6354 28.9828C38.1078 29.8476 37.8292 30.9615 37.8292 32.2954V32.6619H45.6862V30.5218ZM44.9827 35.1536H36.378L32.0977 42.5997H40.7023L44.9973 50.0459L49.2923 42.5997L44.9827 35.1536Z" fill="#363636" stroke="#363636"/>
<path d="M32.8274 47.554C27.3599 47.554 22.9036 43.0979 22.9036 37.6307C22.9036 32.1632 27.3599 27.7075 32.8274 27.7075L36.2283 20.5984C35.1142 20.3786 33.9709 20.2612 32.8274 20.2612C23.2406 20.2612 15.457 28.0445 15.457 37.6307C15.457 47.2314 23.2406 54.9999 32.8274 54.9999C36.6535 54.9999 40.1861 53.7686 43.0593 51.6727L39.292 45.1501C37.5622 46.6451 35.3049 47.554 32.8274 47.554Z" fill="#363636" stroke="#363636"/>
<path d="M6.43528 0L8.42389 4.02194L12.8705 4.66689L9.65293 7.79753L10.4125 12.2181L6.43528 10.131L2.45806 12.2181L3.21764 7.79753L0 4.66689L4.44667 4.02194L6.43528 0Z" fill="#363636"/>
<path d="M19.9686 0L21.9572 4.02194L26.4038 4.66689L23.1861 7.79753L23.9457 12.2181L19.9686 10.131L15.9912 12.2181L16.7509 7.79753L13.5332 4.66689L17.98 4.02194L19.9686 0Z" fill="#363636"/>
<path d="M33.4998 0L35.4884 4.02194L39.935 4.66689L36.7174 7.79753L37.477 12.2181L33.4998 10.131L29.5225 12.2181L30.2821 7.79753L27.0645 4.66689L31.5111 4.02194L33.4998 0Z" fill="#363636"/>
<path d="M47.033 0L49.0216 4.02194L53.4684 4.66689L50.2507 7.79753L51.0103 12.2181L47.033 10.131L43.0557 12.2181L43.8153 7.79753L40.5977 4.66689L45.0444 4.02194L47.033 0Z" fill="#363636"/>
<path d="M60.5643 0L62.5529 4.02194L66.9995 4.66689L63.7818 7.79753L64.5414 12.2181L60.5643 10.131L56.587 12.2181L57.3466 7.79753L54.1289 4.66689L58.5755 4.02194L60.5643 0Z" fill="#363636"/>
</g>
</svg>
