<svg width="82" height="32" viewBox="0 0 82 32" fill="none" xmlns="http://www.w3.org/2000/svg">
<path d="M5.7512 24.1281C5.7512 24.1281 5.0818 24.0617 5.0818 24.6576V27.3045H9.50244V28.0989C9.50244 28.0989 9.51564 28.4957 9.10055 28.4957H5.0818V31.937H9.90431C9.90431 31.937 12.8242 31.4868 12.8512 28.4957V24.1281H5.7512ZM12.7169 19.8926H4.00993C0.861519 20.6336 0.794922 23.2146 0.794922 23.2146V31.937H4.14428V23.9956C4.14428 23.3207 4.81369 23.2019 4.81369 23.2019H12.7175V19.8926H12.7169ZM24.2117 29.441C23.9821 29.5941 23.8122 29.7065 23.6921 29.7781C23.2626 30.0437 22.8533 30.2485 22.4739 30.412C21.9244 30.6368 21.4347 30.7493 20.9955 30.7493C19.4873 30.7493 18.2386 30.2892 17.2294 29.3589C16.2201 28.4286 15.7218 27.2638 15.7218 25.8534C15.7218 24.4942 16.1713 23.3184 17.0801 22.3164C17.9889 21.3149 19.0878 20.8239 20.3864 20.8239C20.926 20.8239 21.5048 20.9158 22.1041 21.1108C22.8833 21.3557 23.5124 21.7239 24.0119 22.2039L23.1426 23.1646C22.7736 22.8073 22.2941 22.5412 21.7344 22.3777C21.3153 22.2549 20.8559 22.1941 20.3461 22.1941C19.4373 22.1941 18.6681 22.5613 18.059 23.2874C17.4499 24.0233 17.1404 24.8921 17.1404 25.9142C17.1404 26.9266 17.4895 27.7541 18.1888 28.4189C18.8879 29.0831 19.7766 29.4204 20.8554 29.4204C21.305 29.4204 21.7649 29.2769 22.2339 29.0017C22.6237 28.7051 22.8234 28.5618 22.8333 28.5514V26.4562H19.9168L20.3359 25.148H24.2117V29.441ZM33.0214 26.8852C33.0214 27.8971 32.662 28.7762 31.9426 29.5122C31.2233 30.2479 30.3345 30.6265 29.2759 30.6265C28.2971 30.6265 27.4381 30.2583 26.6987 29.5328C25.9593 28.8073 25.5999 27.9279 25.5999 26.8956C25.5999 25.8735 25.9501 24.9943 26.6487 24.2378C27.3474 23.4812 28.2069 23.1136 29.2156 23.1136C30.3345 23.1136 31.2434 23.4715 31.9525 24.1971C32.662 24.9025 33.0214 25.8018 33.0214 26.8852ZM31.6528 26.906C31.6528 26.2212 31.4231 25.6384 30.9637 25.1681C30.5044 24.6875 29.935 24.4522 29.2558 24.4522C28.6169 24.4522 28.0772 24.6977 27.6276 25.1887C27.1781 25.6791 26.9583 26.2411 26.9583 26.875C26.9583 27.5397 27.1878 28.1017 27.6375 28.572C28.0869 29.0424 28.6467 29.2873 29.3253 29.2873C29.9551 29.2873 30.4942 29.0521 30.9541 28.5819C31.4231 28.1115 31.6533 27.5494 31.6533 26.906H31.6528ZM41.7111 26.8852C41.7111 27.8971 41.3517 28.7762 40.6323 29.5122C39.913 30.2479 39.0243 30.6265 37.9656 30.6265C36.9868 30.6265 36.1279 30.2583 35.3885 29.5328C34.6495 28.8073 34.2896 27.9279 34.2896 26.8956C34.2896 25.8735 34.6398 24.9943 35.3386 24.2378C36.0377 23.4812 36.8967 23.1136 37.9053 23.1136C39.0243 23.1136 39.933 23.4715 40.6422 24.1971C41.3517 24.9025 41.7111 25.8018 41.7111 26.8852ZM40.3424 26.906C40.3424 26.2212 40.1128 25.6384 39.6535 25.1681C39.1942 24.6875 38.6247 24.4522 37.9455 24.4522C37.3066 24.4522 36.7669 24.6977 36.3173 25.1887C35.8678 25.6791 35.648 26.2411 35.648 26.875C35.648 27.5397 35.8776 28.1017 36.3277 28.572C36.7766 29.0424 37.3364 29.2873 38.0156 29.2873C38.6447 29.2873 39.184 29.0521 39.6437 28.5819C40.1128 28.1115 40.343 27.5494 40.343 26.906H40.3424ZM49.7521 30.4217L48.4937 30.6162V29.3997L48.2237 29.706C47.9862 29.9284 47.7168 30.1145 47.4247 30.2583C46.9959 30.4559 46.5289 30.5572 46.0565 30.5549C45.0776 30.5549 44.2384 30.197 43.5592 29.4708C42.88 28.7447 42.5407 27.8867 42.5407 26.8852C42.5407 25.8529 42.88 24.9638 43.5494 24.2274C44.2188 23.4909 45.0375 23.1234 46.0164 23.1234C46.5761 23.1234 47.0653 23.2151 47.4747 23.3993C47.7645 23.5323 48.0142 23.7061 48.2237 23.9212C48.2938 24.0129 48.3639 24.1149 48.434 24.2067V21.0178L49.7716 20.8234L49.7521 30.4217ZM48.5735 26.977C48.5735 26.2619 48.3335 25.6585 47.8443 25.1681C47.3553 24.6669 46.8051 24.4219 46.1765 24.4219C45.4773 24.4219 44.9181 24.657 44.4886 25.1274C44.0885 25.5764 43.879 26.1287 43.879 26.7728C43.879 27.4983 44.0885 28.1012 44.5082 28.5715C44.9272 29.0418 45.4572 29.2769 46.1064 29.2769C46.7455 29.2769 47.3052 29.0625 47.8047 28.6232C48.3139 28.1729 48.574 27.6212 48.574 26.977H48.5735ZM56.8136 22.3474H53.0681V24.8921H55.9742V26.2004H53.0681V30.412L51.6098 30.6265V21.0281H56.5236L56.8136 22.3474ZM59.8202 21.6006L58.9211 22.7351L58.0623 21.6006L58.9711 20.4764L59.8202 21.6006ZM59.5503 30.4217L58.2121 30.6059V23.5019L59.5503 23.2976V30.4224V30.4217ZM65.5935 23.226L64.9641 24.6771C64.8815 24.6645 64.7981 24.6578 64.7145 24.657C64.5848 24.657 64.455 24.6672 64.3247 24.6875C64.1944 24.7076 64.0548 24.7591 63.9056 24.8308C63.626 24.9536 63.386 25.2192 63.1765 25.6176C62.9446 26.0701 62.8246 26.5715 62.8262 27.0798V30.412L61.4886 30.6265V23.5019L62.7269 23.277V24.7591C62.8865 24.5033 63.0565 24.248 63.2161 23.9824C63.4457 23.7164 63.7156 23.5225 64.0152 23.4095C64.1749 23.3487 64.4648 23.2971 64.9039 23.2564C65.3237 23.226 65.5636 23.2053 65.5935 23.226ZM75.5612 30.4217L74.223 30.6162V25.7405C74.223 25.2902 74.123 24.9633 73.9231 24.7591C73.7234 24.5543 73.4237 24.4522 73.034 24.4522C72.5649 24.4522 72.2049 24.6468 71.9655 25.035C71.8054 25.3006 71.7158 25.5867 71.7158 25.873V30.4114L70.3775 30.6569V25.7708C70.3775 25.3418 70.2776 25.0144 70.0876 24.7901C69.8879 24.5647 69.6283 24.4522 69.2884 24.4522H69.1587C68.6891 24.4522 68.3492 24.6468 68.1396 25.0453C67.9801 25.3418 67.9002 25.7198 67.9002 26.1798V30.4114L66.512 30.6569V23.5019L67.7602 23.2874V24.1971C67.9002 23.982 68.0398 23.8082 68.1701 23.686C68.5295 23.3487 68.9491 23.1846 69.4183 23.1846C69.9474 23.1846 70.3368 23.2668 70.6066 23.4406C70.8362 23.584 71.0561 23.8695 71.276 24.2785C71.7353 23.553 72.3846 23.1846 73.2441 23.1846C74.0627 23.1846 74.6724 23.4406 75.0715 23.962C75.4016 24.3909 75.5612 25.0246 75.5612 25.8529V30.4217ZM81.6755 28.2652C81.6755 28.9191 81.4457 29.4611 80.9864 29.8803C80.5272 30.3093 79.9473 30.5141 79.248 30.5141C78.7187 30.5141 78.249 30.3913 77.8197 30.1459C77.3902 29.901 77.0711 29.6245 76.8609 29.2976L77.8002 28.4596C77.8697 28.5618 77.9299 28.6432 77.9897 28.7045C78.3399 29.0625 78.759 29.2466 79.248 29.2466C79.5879 29.2466 79.8578 29.1548 80.0473 28.981C80.247 28.8073 80.3372 28.5618 80.3372 28.2446C80.3372 27.8872 80.1075 27.6417 79.6483 27.5087C78.7389 27.2327 78.249 27.0798 78.1796 27.0487C77.76 26.8343 77.4603 26.6094 77.2703 26.3536C77.0607 26.0571 76.9511 25.6688 76.9511 25.1681C76.9511 24.5543 77.1807 24.0439 77.6303 23.6349C78.0798 23.226 78.6188 23.0317 79.2378 23.0317C79.708 23.0317 80.1471 23.1337 80.5467 23.3487C80.9463 23.5632 81.2356 23.7881 81.4056 24.0541L80.6064 24.9226C80.4864 24.8025 80.3562 24.6931 80.2172 24.5956C79.8974 24.3708 79.5879 24.2584 79.2986 24.2584C79.0184 24.2584 78.7887 24.3197 78.6091 24.442C78.3989 24.5956 78.2893 24.8205 78.2893 25.117C78.2893 25.4032 78.3892 25.6176 78.5993 25.7508C78.7791 25.8631 79.1585 25.9859 79.7578 26.1185C80.3567 26.2619 80.8165 26.5072 81.1461 26.8549C81.5158 27.2225 81.6755 27.6824 81.6755 28.2652Z" fill="#3A7AF3"/>
<path d="M16.7847 0.922852L18.5471 4.49009L22.4875 5.06212L19.6362 7.83882L20.3093 11.7596L16.7847 9.90845L13.2603 11.7596L13.9333 7.83882L11.082 5.06212L15.0225 4.49009L16.7847 0.922852Z" fill="#FDC900"/>
<path d="M28.7769 0.922852L30.5392 4.49009L34.4797 5.06212L31.6284 7.83882L32.3014 11.7596L28.7769 9.90845L25.2525 11.7596L25.9255 7.83882L23.0742 5.06212L27.0146 4.49009L28.7769 0.922852Z" fill="#FDC900"/>
<path d="M40.7692 0.922852L42.5315 4.49009L46.472 5.06212L43.6205 7.83882L44.2937 11.7596L40.7692 9.90845L37.2447 11.7596L37.9178 7.83882L35.0664 5.06212L39.0069 4.49009L40.7692 0.922852Z" fill="#FDC900"/>
<path d="M52.7613 0.922852L54.5237 4.49009L58.464 5.06212L55.6127 7.83882L56.2858 11.7596L52.7613 9.90845L49.2368 11.7596L49.9099 7.83882L47.0586 5.06212L50.9991 4.49009L52.7613 0.922852Z" fill="#FDC900"/>
<path d="M64.7554 0.922852L66.5177 4.49009L70.4582 5.06212L67.6069 7.83882L68.2799 11.7596L64.7554 9.90845L61.231 11.7596L61.904 7.83882L59.0527 5.06212L62.9931 4.49009L64.7554 0.922852Z" fill="#FDC900"/>
</svg>
