<svg width="121" height="32" viewBox="0 0 121 32" fill="none" xmlns="http://www.w3.org/2000/svg">
<path d="M13.8223 13.1943H16.2679V28.1685H13.8223V13.1943Z" fill="#17313B"/>
<path d="M24.775 23.4229C24.775 25.7428 22.861 25.9537 22.223 25.9537C20.7344 25.9537 20.5218 24.5829 20.5218 23.8447V18.0449H18.0762V23.7392C18.0762 25.1101 18.5015 26.3756 19.3521 27.1137C20.0964 27.8519 21.0534 28.1682 22.223 28.1682C23.0737 28.1682 24.137 27.9573 24.775 27.3246V28.1682H27.2205V18.0449H24.775V23.4229Z" fill="#17313B"/>
<path d="M32.0051 14.3545H29.5595V18.0453H27.752V20.3652H29.5595V28.1686H32.0051V20.3652H33.8127V18.0453H32.0051V14.3545Z" fill="#17313B"/>
<path d="M41.4686 25.111C40.937 25.5328 40.1927 25.8492 39.4484 25.8492C37.7471 25.8492 36.5775 24.5838 36.5775 22.8966C36.5775 21.2094 37.7471 20.0494 39.4484 20.0494C40.1927 20.0494 40.937 20.2603 41.4686 20.7875L41.7877 21.1039L43.489 19.5221L43.0636 19.2058C42.1067 18.3622 40.8307 17.835 39.4484 17.835C36.4712 17.835 34.2383 20.0494 34.2383 23.002C34.2383 25.9547 36.4712 28.1692 39.4484 28.1692C40.8307 28.1692 42.1067 27.6418 43.0636 26.7983L43.489 26.4819L41.7877 24.7947L41.4686 25.111Z" fill="#17313B"/>
<path d="M52.1013 18.8887C51.357 18.1506 50.6127 17.8342 49.443 17.8342C48.5924 17.8342 47.7417 18.0452 47.1038 18.6778V13.1943H44.6582V28.1685H47.1038V22.5796C47.1038 20.2596 48.6988 20.0487 49.3367 20.0487C50.8254 20.0487 50.719 21.4196 50.719 22.1577V28.0629H53.1646V22.2631C53.1646 20.8923 52.8456 19.6269 52.1013 18.8887Z" fill="#17313B"/>
<path d="M39.3418 24.6889C40.2814 24.6889 41.0432 23.9336 41.0432 23.0017C41.0432 22.0698 40.2814 21.3145 39.3418 21.3145C38.4023 21.3145 37.6406 22.0698 37.6406 23.0017C37.6406 23.9336 38.4023 24.6889 39.3418 24.6889Z" fill="#EF4335"/>
<path d="M10.4204 24.4774C9.56969 25.3209 8.29373 25.8482 6.91145 25.8482C4.2532 25.8482 2.33926 23.7392 2.33926 20.892C2.33926 18.0448 4.2532 15.9358 7.01778 15.9358C8.29373 15.9358 9.56969 16.4631 10.5266 17.4121L10.8456 17.7285L12.4406 16.1467L12.1216 15.8303C10.7394 14.4595 8.93171 13.7213 7.01778 13.7213C2.97724 13.6159 0 16.7794 0 20.892C0 25.0046 2.97724 28.1681 6.91145 28.1681C8.82538 28.1681 10.7394 27.43 12.0153 26.0591L12.3343 25.7428L10.7394 24.161L10.4204 24.4774Z" fill="#17313B"/>
<path d="M2.50321 6.3425H1.46996V8.40499H0.542969V3.05204H2.41893C3.03449 3.05204 3.50959 3.19053 3.84424 3.46749C4.17888 3.74445 4.3462 4.14518 4.3462 4.66969C4.3462 5.02753 4.25948 5.32778 4.08606 5.57042C3.91507 5.81062 3.67569 5.99567 3.36791 6.12557L4.56605 8.35719V8.40499H3.57309L2.50321 6.3425ZM1.46996 5.59616H2.4226C2.73526 5.59616 2.97953 5.51773 3.1554 5.36087C3.33127 5.20156 3.41921 4.98464 3.41921 4.71013C3.41921 4.42336 3.33738 4.20157 3.17372 4.0447C3.01251 3.88783 2.77068 3.80695 2.44825 3.80205H1.46996V5.59616ZM8.83138 6.01529H6.6403V7.66234H9.20144V8.40499H5.71331V3.05204H9.1758V3.80205H6.6403V5.27999H8.83138V6.01529ZM12.3237 7.23954L13.6793 3.05204H14.6979L12.7779 8.40499H11.8803L9.96763 3.05204H10.9826L12.3237 7.23954ZM16.7685 8.40499H15.8451V3.05204H16.7685V8.40499ZM21.5138 6.01529H19.3227V7.66234H21.8839V8.40499H18.3957V3.05204H21.8583V3.80205H19.3227V5.27999H21.5138V6.01529ZM27.3107 7.08145L28.1314 3.05204H29.0511L27.82 8.40499H26.9333L25.9184 4.4969L24.8815 8.40499H23.9911L22.76 3.05204H23.6796L24.5077 7.07411L25.5264 3.05204H26.3031L27.3107 7.08145ZM33.3348 6.01529H31.1437V7.66234H33.7048V8.40499H30.2166V3.05204H33.6792V3.80205H31.1437V5.27999H33.3348V6.01529ZM34.9474 8.40499V3.05204H36.5229C36.9943 3.05204 37.412 3.15743 37.776 3.36822C38.1423 3.57901 38.4257 3.87803 38.6261 4.26528C38.8263 4.65253 38.9265 5.09616 38.9265 5.59616V5.86454C38.9265 6.37191 38.8251 6.81798 38.6224 7.20278C38.422 7.58758 38.135 7.88415 37.7613 8.09248C37.3901 8.30083 36.9638 8.40499 36.4826 8.40499H34.9474ZM35.8744 3.80205V7.66234H36.4789C36.965 7.66234 37.3375 7.51038 37.5964 7.20646C37.8578 6.90008 37.9909 6.46136 37.9958 5.89028V5.59248C37.9958 5.0116 37.87 4.56797 37.6184 4.2616C37.3668 3.95523 37.0017 3.80205 36.5229 3.80205H35.8744ZM46.9515 5.86823C46.9515 6.39274 46.8611 6.85353 46.6803 7.25058C46.4996 7.64519 46.2407 7.9491 45.9036 8.16234C45.5689 8.37312 45.183 8.47852 44.7457 8.47852C44.3134 8.47852 43.9275 8.37312 43.588 8.16234C43.2509 7.9491 42.9895 7.6464 42.8038 7.25426C42.6206 6.8621 42.5279 6.40989 42.5254 5.89764V5.59616C42.5254 5.07411 42.617 4.61332 42.8002 4.21381C42.9858 3.8143 43.246 3.50915 43.5807 3.29837C43.9177 3.08513 44.3037 2.97852 44.7384 2.97852C45.1733 2.97852 45.5579 3.08391 45.8926 3.29469C46.2297 3.50302 46.4898 3.80449 46.673 4.1991C46.8562 4.59126 46.9491 5.04838 46.9515 5.57042V5.86823ZM46.0245 5.58881C46.0245 4.99567 45.9121 4.54102 45.6874 4.22485C45.4652 3.90867 45.1488 3.75057 44.7384 3.75057C44.3378 3.75057 44.024 3.90867 43.7968 4.22485C43.572 4.53857 43.4572 4.98342 43.4524 5.5594V5.86823C43.4524 6.45646 43.566 6.91111 43.7931 7.23219C44.0228 7.55327 44.3403 7.71381 44.7457 7.71381C45.1561 7.71381 45.4713 7.55695 45.6911 7.24322C45.9133 6.92949 46.0245 6.47117 46.0245 5.86823V5.58881ZM52.5945 8.40499H51.6675L49.2896 4.6072V8.40499H48.3626V3.05204H49.2896L51.6748 6.86454V3.05204H52.5945V8.40499Z" fill="#6A797E"/>
<path d="M66.3587 28.1698H65.2503V22.7975L63.6152 23.3582V22.4161L66.2167 21.4556H66.3587V28.1698ZM73.7239 22.099L71.0583 28.1698H69.8904L72.5514 22.3748H69.1026V21.4786H73.7239V22.099ZM80.8011 25.5917H79.5095V28.1698H78.3508V21.4786H80.6957C81.4652 21.4786 82.059 21.6518 82.4774 21.9979C82.8957 22.3441 83.1048 22.8451 83.1048 23.5007C83.1048 23.9479 82.9964 24.3233 82.7797 24.6266C82.5659 24.9269 82.2667 25.1581 81.8819 25.3206L83.3796 28.11V28.1698H82.1385L80.8011 25.5917ZM79.5095 24.6587H80.7003C81.0911 24.6587 81.3964 24.5607 81.6163 24.3646C81.8361 24.1655 81.9461 23.8944 81.9461 23.5512C81.9461 23.1927 81.8437 22.9155 81.6392 22.7194C81.4377 22.5234 81.1354 22.4222 80.7323 22.4161H79.5095V24.6587ZM88.7113 25.1827H85.9725V27.2415H89.1739V28.1698H84.8137V21.4786H89.1418V22.4161H85.9725V24.2635H88.7113V25.1827ZM93.0766 26.713L94.7711 21.4786H96.0448L93.6445 28.1698H92.5224L90.1316 21.4786H91.4003L93.0766 26.713ZM98.6327 28.1698H97.4781V21.4786H98.6327V28.1698ZM104.565 25.1827H101.826V27.2415H105.027V28.1698H100.666V21.4786H104.995V22.4161H101.826V24.2635H104.565V25.1827ZM111.81 26.5154L112.837 21.4786H113.986L112.447 28.1698H111.339L110.07 23.2847L108.774 28.1698H107.661L106.123 21.4786H107.272L108.307 26.5062L109.58 21.4786H110.551L111.81 26.5154ZM118.928 26.4465C118.928 26.1524 118.825 25.9256 118.616 25.7663C118.412 25.607 118.042 25.4461 117.504 25.2838C116.967 25.1214 116.539 24.9406 116.222 24.7414C115.614 24.3585 115.31 23.8591 115.31 23.2433C115.31 22.7041 115.529 22.2598 115.965 21.9106C116.405 21.5613 116.974 21.3867 117.674 21.3867C118.137 21.3867 118.551 21.4725 118.915 21.644C119.278 21.8156 119.564 22.0607 119.771 22.3794C119.978 22.695 120.083 23.0457 120.083 23.4317H118.928C118.928 23.0824 118.818 22.8098 118.599 22.6137C118.382 22.4146 118.071 22.315 117.664 22.315C117.285 22.315 116.991 22.3962 116.78 22.5586C116.573 22.7209 116.469 22.9477 116.469 23.2388C116.469 23.4838 116.582 23.6891 116.808 23.8546C117.034 24.0169 117.406 24.1762 117.925 24.3325C118.444 24.4856 118.861 24.6618 119.176 24.861C119.49 25.057 119.721 25.2838 119.867 25.5411C120.014 25.7954 120.087 26.0941 120.087 26.4373C120.087 26.9948 119.873 27.439 119.446 27.77C119.022 28.0978 118.444 28.2617 117.714 28.2617C117.232 28.2617 116.788 28.1729 116.382 27.9952C115.979 27.8144 115.665 27.5662 115.439 27.2507C115.215 26.9351 115.104 26.5674 115.104 26.1478H116.263C116.263 26.5276 116.388 26.8217 116.638 27.0301C116.889 27.2384 117.247 27.3426 117.714 27.3426C118.117 27.3426 118.42 27.2614 118.621 27.099C118.826 26.9335 118.928 26.716 118.928 26.4465Z" fill="#6A797E"/>
<path d="M69.0736 2.50087C69.2112 2.22106 69.609 2.22106 69.7466 2.50087L70.9768 5.00212C71.0315 5.11323 71.1371 5.19025 71.2593 5.20807L74.0103 5.60916C74.318 5.65403 74.4409 6.03351 74.2182 6.2513L72.2276 8.19826C72.1392 8.28474 72.0988 8.40935 72.1197 8.53148L72.5896 11.2806C72.6421 11.5882 72.3205 11.8226 72.0452 11.6775L69.5847 10.3795C69.4754 10.3218 69.3448 10.3218 69.2355 10.3795L66.775 11.6775C66.4997 11.8226 66.1781 11.5882 66.2306 11.2806L66.7005 8.53148C66.7214 8.40935 66.681 8.28474 66.5926 8.19826L64.602 6.2513C64.3793 6.03351 64.5022 5.65403 64.8099 5.60916L67.5609 5.20807C67.6831 5.19025 67.7887 5.11323 67.8434 5.00213L69.0736 2.50087Z" fill="#E93F33"/>
<path d="M80.3295 2.50087C80.4671 2.22106 80.8648 2.22106 81.0024 2.50087L82.2327 5.00212C82.2874 5.11323 82.393 5.19025 82.5152 5.20807L85.2661 5.60916C85.5739 5.65403 85.6967 6.03351 85.4741 6.2513L83.4835 8.19826C83.395 8.28474 83.3547 8.40935 83.3755 8.53148L83.8454 11.2806C83.898 11.5882 83.5763 11.8226 83.301 11.6775L80.8405 10.3795C80.7312 10.3218 80.6007 10.3218 80.4914 10.3795L78.0309 11.6775C77.7556 11.8226 77.4339 11.5882 77.4865 11.2806L77.9564 8.53148C77.9772 8.40935 77.9369 8.28474 77.8484 8.19826L75.8579 6.2513C75.6352 6.03351 75.7581 5.65403 76.0658 5.60916L78.8167 5.20807C78.9389 5.19025 79.0446 5.11323 79.0992 5.00213L80.3295 2.50087Z" fill="#E93F33"/>
<path d="M91.5854 2.50087C91.723 2.22106 92.1207 2.22106 92.2583 2.50087L93.4885 5.00212C93.5432 5.11323 93.6488 5.19025 93.7711 5.20807L96.5215 5.60916C96.8292 5.65403 96.952 6.03351 96.7297 6.2513L94.7393 8.19826C94.6502 8.28474 94.6099 8.40935 94.6315 8.53148L95.1014 11.2806C95.1539 11.5882 94.8322 11.8226 94.5564 11.6775L92.0964 10.3795C91.9871 10.3218 91.8565 10.3218 91.7473 10.3795L89.2867 11.6775C89.0114 11.8226 88.6898 11.5882 88.7423 11.2806L89.2123 8.53148C89.2331 8.40935 89.1928 8.28474 89.1043 8.19826L87.1137 6.2513C86.891 6.03351 87.0139 5.65403 87.3217 5.60916L90.0726 5.20807C90.1948 5.19025 90.3004 5.11323 90.3551 5.00213L91.5854 2.50087Z" fill="#E93F33"/>
<path d="M102.841 2.50087C102.979 2.22106 103.376 2.22106 103.514 2.50087L104.744 5.00212C104.799 5.11323 104.904 5.19025 105.026 5.20807L107.777 5.60916C108.085 5.65403 108.208 6.03351 107.986 6.2513L105.995 8.19826C105.906 8.28474 105.866 8.40935 105.887 8.53148L106.357 11.2806C106.41 11.5882 106.088 11.8226 105.812 11.6775L103.352 10.3795C103.243 10.3218 103.112 10.3218 103.003 10.3795L100.543 11.6775C100.267 11.8226 99.9451 11.5882 99.9976 11.2806L100.468 8.53148C100.489 8.40935 100.449 8.28474 100.36 8.19826L98.3693 6.2513C98.147 6.03351 98.2699 5.65403 98.5775 5.60916L101.329 5.20807C101.451 5.19025 101.556 5.11323 101.611 5.00213L102.841 2.50087Z" fill="#E93F33"/>
<path d="M114.097 2.50087C114.234 2.22106 114.632 2.22106 114.77 2.50087L116 5.00212C116.055 5.11323 116.16 5.19025 116.282 5.20807L119.033 5.60916C119.341 5.65403 119.464 6.03351 119.241 6.2513L117.251 8.19826C117.162 8.28474 117.122 8.40935 117.143 8.53148L117.613 11.2806C117.666 11.5882 117.344 11.8226 117.068 11.6775L114.608 10.3795C114.499 10.3218 114.368 10.3218 114.259 10.3795L111.798 11.6775C111.523 11.8226 111.201 11.5882 111.254 11.2806L111.723 8.53148C111.745 8.40935 111.705 8.28474 111.616 8.19826L109.625 6.2513C109.403 6.03351 109.526 5.65403 109.833 5.60916L112.584 5.20807C112.706 5.19025 112.811 5.11323 112.867 5.00213L114.097 2.50087Z" fill="#E93F33"/>
</svg>
