<svg width="38" height="38" viewBox="0 0 38 38" fill="none" xmlns="http://www.w3.org/2000/svg">
<path d="M19.5352 25.2046C19.8914 25.828 20.4258 26.3327 21.0195 26.689C21.3758 26.8968 21.7617 27.0749 22.1773 27.164C22.5039 27.253 22.8602 27.2827 23.2461 27.2827C23.6023 27.2827 23.9586 27.2233 24.3148 27.164C24.7305 27.0749 25.1164 26.8968 25.4727 26.689C26.0961 26.3327 26.6008 25.7983 26.957 25.2046C27.1648 24.8483 27.343 24.4624 27.432 24.0468C27.5211 23.7202 27.5508 23.364 27.5508 22.978C27.5508 22.6218 27.4914 22.2655 27.432 21.9093C27.343 21.4937 27.1648 21.1077 26.957 20.7515C26.6008 20.128 26.0664 19.6233 25.4727 19.2671C25.1164 19.0593 24.7305 18.8812 24.3148 18.7921C23.9883 18.703 23.632 18.6733 23.2461 18.6733C22.8898 18.6733 22.5336 18.7327 22.1773 18.7921C21.7617 18.8812 21.3758 19.0593 21.0195 19.2671C20.3961 19.6233 19.8914 20.1577 19.5352 20.7515C19.3273 21.1077 19.1492 21.4937 19.0602 21.9093C18.9711 22.2358 18.9414 22.5921 18.9414 22.978C18.9414 23.3343 19.0008 23.6905 19.0602 24.0468C19.1492 24.4624 19.3273 24.8483 19.5352 25.2046Z" fill="#363636"/>
<path d="M35.5062 21.0782H34.6453C34.3484 19.3267 33.6656 17.6938 32.6562 16.2985L33.25 15.7048C33.9922 14.9626 33.9922 13.7454 33.25 12.9735C32.5078 12.2313 31.2609 12.2313 30.5188 12.9735L29.925 13.5673C28.5594 12.5579 26.9266 11.8751 25.175 11.5782V10.7173C25.175 9.64853 24.3141 8.7876 23.2453 8.7876C22.6813 8.7876 22.1766 9.0251 21.8203 9.44072C22.0578 9.85635 22.1766 10.3313 22.1766 10.836C22.1766 12.2017 21.1969 13.3595 19.9203 13.6563C19.7422 14.2798 19.5047 14.8735 19.1781 15.4079C19.3266 15.6157 19.4156 15.8532 19.5047 16.0907C20.0687 15.7938 20.6922 15.5267 21.3156 15.3782C21.9391 15.2298 22.5922 15.1407 23.2453 15.1407C23.8984 15.1407 24.5516 15.2298 25.175 15.3782C25.9172 15.5563 26.6297 15.8532 27.2531 16.2392C28.3813 16.8923 29.3016 17.8423 29.9844 18.9704C30.3703 19.6235 30.6672 20.3063 30.8453 21.0485C30.9938 21.672 31.0828 22.3251 31.0828 22.9782C31.0828 23.6313 30.9938 24.2845 30.8453 24.9079C30.6672 25.6501 30.3703 26.3626 29.9844 26.986C29.3312 28.1142 28.3813 29.0345 27.2531 29.7173C26.6 30.1032 25.9172 30.4001 25.175 30.5782C24.5516 30.7267 23.8984 30.8157 23.2453 30.8157C22.5922 30.8157 21.9391 30.7267 21.3156 30.5782C20.5734 30.4001 19.8609 30.1032 19.2375 29.7173C18.1094 29.0642 17.1891 28.1142 16.5062 26.986C16.1203 26.3329 15.8234 25.6501 15.6453 24.9079C15.4969 24.2845 15.4078 23.6313 15.4078 22.9782C15.4078 22.3251 15.4969 21.672 15.6453 21.0485C15.7641 20.6032 15.9125 20.1579 16.0906 19.7423C15.7641 19.6532 15.4672 19.5345 15.2 19.3563C14.6359 19.6532 14.0422 19.8907 13.4484 20.0985C13.1812 21.4048 12.0234 22.3548 10.6281 22.3548C10.1531 22.3548 9.70781 22.236 9.29219 22.0282C9.14375 22.2954 9.05469 22.622 9.05469 22.9485C9.05469 24.0173 9.91563 24.8782 10.9844 24.8782H11.8453C12.1422 26.6298 12.825 28.2626 13.8344 29.6579L13.2406 30.2517C12.4984 30.9938 12.4984 32.211 13.2406 32.9829C13.6266 33.3688 14.1016 33.547 14.6063 33.547C15.1109 33.547 15.5859 33.3688 15.9719 32.9829L16.5656 32.3892C17.9609 33.3688 19.5938 34.0813 21.3453 34.3782V35.2392C21.3453 36.3079 22.2063 37.1688 23.275 37.1688C24.3438 37.1688 25.2047 36.3079 25.2047 35.2392V34.3782C26.9563 34.0813 28.5891 33.3985 29.9844 32.3892L30.5781 32.9829C30.9641 33.3688 31.4391 33.547 31.9437 33.547C32.4484 33.547 32.9234 33.3688 33.3094 32.9829C34.0516 32.2407 34.0516 30.9938 33.3094 30.2517L32.7156 29.6579C33.6953 28.2626 34.4078 26.6298 34.7047 24.8782H35.5656C36.6344 24.8782 37.4953 24.0173 37.4953 22.9485C37.4359 21.9392 36.575 21.0782 35.5062 21.0782Z" fill="#363636"/>
<path d="M9.23281 19.5046C9.23281 20.2468 9.85625 20.8703 10.5984 20.8703C11.3406 20.8703 11.9641 20.2468 11.9641 19.5046V18.9109C13.2109 18.7031 14.3688 18.2281 15.3484 17.5156L15.7641 17.9312C16.0312 18.1984 16.3875 18.3171 16.7141 18.3171C17.0703 18.3171 17.3969 18.1984 17.6641 17.9312C18.1984 17.3968 18.1984 16.5359 17.6641 16.0015L17.2484 15.5859C17.9609 14.6062 18.4359 13.4484 18.6437 12.2015H19.2375C19.9797 12.2015 20.6031 11.5781 20.6031 10.8359C20.6031 10.0937 19.9797 9.47026 19.2375 9.47026H18.6437C18.4359 8.22339 17.9312 7.06558 17.2484 6.08589L17.6641 5.67026C18.1984 5.13589 18.1984 4.27495 17.6641 3.74058C17.1297 3.2062 16.2687 3.2062 15.7344 3.74058L15.3484 4.1562C14.3688 3.4437 13.2109 2.9687 11.9641 2.76089V2.16714C11.9641 1.42495 11.3406 0.801514 10.5984 0.801514C9.85625 0.801514 9.23281 1.42495 9.23281 2.16714V2.76089C8.01563 2.9687 6.85781 3.47339 5.87812 4.1562L5.4625 3.74058C4.92812 3.2062 4.06719 3.2062 3.53281 3.74058C2.99844 4.27495 2.99844 5.13589 3.53281 5.67026L3.94844 6.08589C3.23594 7.06558 2.76094 8.22339 2.55313 9.47026H1.95937C1.21719 9.47026 0.59375 10.0937 0.59375 10.8359C0.59375 11.5781 1.21719 12.2015 1.95937 12.2015H2.55313C2.76094 13.4484 3.23594 14.6062 3.94844 15.5859L3.53281 16.0015C2.99844 16.5359 2.99844 17.3968 3.53281 17.9312C3.8 18.1984 4.15625 18.3171 4.48281 18.3171C4.83906 18.3171 5.19531 18.1984 5.43281 17.9312L5.84844 17.5156C6.82813 18.2281 7.98594 18.7031 9.23281 18.9109V19.5046ZM8.34219 14.6359C7.71875 14.25 7.18437 13.7453 6.79844 13.0921C6.59062 12.7359 6.4125 12.35 6.32344 11.9046C6.23437 11.5484 6.175 11.1921 6.175 10.8359C6.175 10.45 6.23437 10.0937 6.32344 9.76714C6.44219 9.35151 6.59062 8.96558 6.79844 8.57964C7.18437 7.9562 7.68906 7.42183 8.34219 7.03589C8.69844 6.82808 9.08437 6.64995 9.52969 6.56089C9.88594 6.47183 10.2422 6.41245 10.5984 6.41245C10.9844 6.41245 11.3406 6.47183 11.6672 6.56089C12.0828 6.67964 12.4687 6.82808 12.8547 7.03589C13.4781 7.42183 14.0125 7.92651 14.3984 8.57964C14.6062 8.93589 14.7844 9.32183 14.8734 9.76714C14.9625 10.1234 15.0219 10.4796 15.0219 10.8359C15.0219 11.2218 14.9625 11.5781 14.8734 11.9046C14.7547 12.3203 14.6062 12.7062 14.3984 13.0921C14.0125 13.7156 13.5078 14.25 12.8547 14.6359C12.4984 14.8437 12.1125 15.0218 11.6672 15.1109C11.3109 15.2 10.9547 15.2593 10.5984 15.2593C10.2125 15.2593 9.85625 15.2 9.52969 15.1109C9.11406 15.0218 8.72813 14.8437 8.34219 14.6359Z" fill="#FEF200"/>
</svg>
