<svg width="38" height="38" viewBox="0 0 38 38" fill="none" xmlns="http://www.w3.org/2000/svg">
<path d="M33.25 16.625H32.0625V14.25C32.0625 10.7856 30.6863 7.46311 28.2366 5.01342C25.7869 2.56372 22.4644 1.1875 19 1.1875C15.5356 1.1875 12.2131 2.56372 9.76342 5.01342C7.31372 7.46311 5.9375 10.7856 5.9375 14.25V16.625H4.75C3.80517 16.625 2.89903 17.0003 2.23093 17.6684C1.56283 18.3365 1.1875 19.2427 1.1875 20.1875V24.9375C1.1875 25.8823 1.56283 26.7885 2.23093 27.4566C2.89903 28.1247 3.80517 28.5 4.75 28.5H5.9375C5.9375 29.4448 6.31283 30.351 6.98093 31.0191C7.64903 31.6872 8.55517 32.0625 9.5 32.0625C10.4448 32.0625 11.351 31.6872 12.0191 31.0191C12.6872 30.351 13.0625 29.4448 13.0625 28.5V16.625C13.0628 16.0549 12.9263 15.4931 12.6644 14.9867C12.4025 14.4803 12.023 14.0442 11.5576 13.7149C11.0922 13.3856 10.5546 13.1729 9.9899 13.0945C9.42523 13.0161 8.84998 13.0743 8.3125 13.2644C8.56303 10.6159 9.79228 8.15615 11.7599 6.36583C13.7276 4.57551 16.2922 3.58338 18.9525 3.58338C21.6128 3.58338 24.1774 4.57551 26.1451 6.36583C28.1127 8.15615 29.342 10.6159 29.5925 13.2644C29.0605 13.093 28.4957 13.0491 27.9436 13.1364C27.3915 13.2237 26.8678 13.4396 26.4146 13.7667C25.9614 14.0939 25.5916 14.5231 25.335 15.0196C25.0784 15.5162 24.9422 16.0661 24.9375 16.625V28.5C24.9391 29.0691 25.077 29.6295 25.3397 30.1343C25.6024 30.6392 25.9821 31.0737 26.4473 31.4017C26.9124 31.7296 27.4493 31.9413 28.013 32.0191C28.5768 32.0968 29.151 32.0384 29.6875 31.8487V34.4375H26.0063C25.8364 35.3005 25.4708 36.113 24.9375 36.8125H30.875C31.1899 36.8125 31.492 36.6874 31.7147 36.4647C31.9374 36.242 32.0625 35.9399 32.0625 35.625V28.5H33.25C34.1948 28.5 35.101 28.1247 35.7691 27.4566C36.4372 26.7885 36.8125 25.8823 36.8125 24.9375V20.1875C36.8125 19.2427 36.4372 18.3365 35.7691 17.6684C35.101 17.0003 34.1948 16.625 33.25 16.625Z" fill="#363636"/>
<path d="M20.1875 29.6875H17.8125C16.8677 29.6875 15.9615 30.0628 15.2934 30.7309C14.6253 31.399 14.25 32.3052 14.25 33.25C14.25 34.1948 14.6253 35.101 15.2934 35.7691C15.9615 36.4372 16.8677 36.8125 17.8125 36.8125H20.1875C21.1323 36.8125 22.0385 36.4372 22.7066 35.7691C23.3747 35.101 23.75 34.1948 23.75 33.25C23.75 32.3052 23.3747 31.399 22.7066 30.7309C22.0385 30.0628 21.1323 29.6875 20.1875 29.6875Z" fill="#FEF200"/>
</svg>
