<svg width="69" height="69" viewBox="0 0 69 69" fill="none" xmlns="http://www.w3.org/2000/svg">
<g clip-path="url(#clip0_3091_1021)">
<path d="M59.2626 9.12217C52.9489 -0.0583412 40.3794 -2.74817 31.3432 3.04081L15.4141 13.3323C11.0698 16.0806 8.05772 20.5832 7.18886 25.6705C6.43584 29.9391 7.07301 34.3247 9.10035 38.1256C7.71017 40.2306 6.78339 42.5696 6.37792 45.0256C5.45113 50.2298 6.66754 55.6095 9.67959 59.8781C16.0512 69.0586 28.5628 71.7484 37.599 65.9595L53.5281 55.7264C57.8724 52.9781 60.8845 48.4756 61.7533 43.3883C62.5064 39.1196 61.8692 34.734 59.8419 30.9332C61.232 28.8281 62.1588 26.4891 62.5643 24.0332C63.549 18.7705 62.3326 13.3908 59.2626 9.12217Z" fill="#FF3E00"/>
<path d="M29.7793 60.7552C24.624 62.1001 19.2371 60.0535 16.225 55.6679C14.3715 53.095 13.6764 49.8789 14.1977 46.7213C14.3135 46.195 14.4294 45.7272 14.5452 45.201L14.8348 44.2654L15.6458 44.8501C17.5573 46.2535 19.6425 47.306 21.9016 48.0077L22.4808 48.1832L22.4229 48.7679C22.365 49.5866 22.5967 50.4637 23.0601 51.1654C23.9869 52.5103 25.6087 53.1535 27.1727 52.7442C27.5202 52.6272 27.8678 52.5103 28.1574 52.3349L44.0286 42.1018C44.8395 41.5755 45.3608 40.8154 45.5346 39.8798C45.7084 38.9442 45.4767 37.9501 44.9554 37.1899C44.0286 35.845 42.4067 35.2603 40.8428 35.6696C40.4952 35.7866 40.1477 35.9035 39.8581 36.0789L33.776 39.9967C32.7913 40.6399 31.6908 41.1077 30.5323 41.4001C25.377 42.745 19.9901 40.6984 16.978 36.3128C15.1824 33.7399 14.4294 30.5238 15.0086 27.3662C15.5299 24.3255 17.3835 21.5772 19.9901 19.9399L35.9192 9.70689C36.9039 9.06367 38.0045 8.59588 39.163 8.24503C44.3182 6.90012 49.7051 8.94672 52.7172 13.3323C54.5708 15.9052 55.2659 19.1213 54.7445 22.2789C54.6287 22.8052 54.5128 23.273 54.3391 23.7993L54.0495 24.7349L53.2385 24.1501C51.327 22.7467 49.2418 21.6942 46.9827 20.9925L46.4035 20.8171L46.4614 20.2323C46.5193 19.4137 46.2876 18.5366 45.8242 17.8349C44.8974 16.4899 43.2756 15.9052 41.7116 16.3145C41.3641 16.4315 41.0165 16.5484 40.7269 16.7238L24.8557 26.9569C24.0448 27.4832 23.5235 28.2433 23.3497 29.1789C23.1759 30.1145 23.4076 31.1086 23.9289 31.8688C24.8557 33.2137 26.4776 33.7984 28.0415 33.3891C28.3891 33.2721 28.7366 33.1552 29.0262 32.9798L35.1083 29.062C36.093 28.4188 37.1935 27.951 38.352 27.6001C43.5073 26.2552 48.8942 28.3018 51.9063 32.6874C53.7598 35.2603 54.4549 38.4764 53.9336 41.634C53.4123 44.6747 51.5587 47.423 48.9521 49.0603L33.023 59.2933C32.0383 59.9366 30.9377 60.4044 29.7793 60.7552Z" fill="white"/>
</g>
<defs>
<clipPath id="clip0_3091_1021">
<rect width="69" height="69" fill="white"/>
</clipPath>
</defs>
</svg>
