<svg width="38" height="38" viewBox="0 0 38 38" fill="none" xmlns="http://www.w3.org/2000/svg">
<path d="M14.3845 10.1555C14.9784 10.7494 15.7838 11.083 16.6237 11.083C17.4635 11.083 18.269 10.7494 18.8629 10.1555C19.4567 9.56165 19.7904 8.75619 19.7904 7.91634V6.33301H13.457V7.91634C13.457 8.75619 13.7907 9.56165 14.3845 10.1555Z" fill="#363636"/>
<path d="M18.397 24.2959C17.8752 23.9377 17.2566 23.7471 16.6237 23.7497C15.7838 23.7497 14.9784 24.0833 14.3845 24.6772C13.7907 25.271 13.457 26.0765 13.457 26.9163V28.4997H16.6633C16.8177 26.959 17.4205 25.4975 18.397 24.2959Z" fill="#363636"/>
<path d="M17.6845 33.2497C17.3935 32.7498 17.1598 32.2186 16.9879 31.6663C16.8267 31.1508 16.7179 30.6204 16.6633 30.083H12.6654C12.4554 30.083 12.254 29.9996 12.1056 29.8511C11.9571 29.7027 11.8737 29.5013 11.8737 29.2913V26.9163C11.8748 25.7946 12.2729 24.7095 12.9974 23.8532C13.7219 22.9969 14.726 22.4245 15.832 22.2376V12.5951C14.726 12.4081 13.7219 11.8358 12.9974 10.9795C12.2729 10.1231 11.8748 9.03803 11.8737 7.91634V5.54134C11.8737 5.33138 11.9571 5.13001 12.1056 4.98155C12.254 4.83308 12.4554 4.74967 12.6654 4.74967H20.582C20.792 4.74967 20.9934 4.83308 21.1418 4.98155C21.2903 5.13001 21.3737 5.33138 21.3737 5.54134V7.91634C21.3726 9.03803 20.9745 10.1231 20.25 10.9795C19.5255 11.8358 18.5214 12.4081 17.4154 12.5951V22.2376C18.1847 22.3655 18.9106 22.6809 19.5291 23.1559C20.4781 22.3812 21.595 21.839 22.7908 21.5726C21.9401 20.7103 20.9179 20.0361 19.7904 19.5934V15.2393C21.428 14.6082 22.835 13.4942 23.8248 12.0449C24.8145 10.5956 25.3402 8.87965 25.332 7.12467V3.16634H26.9154V1.58301H6.33203V3.16634H7.91536V7.12467C7.90719 8.87965 8.43285 10.5956 9.4226 12.0449C10.4124 13.4942 11.8194 14.6082 13.457 15.2393V19.5934C11.8194 20.2244 10.4124 21.3385 9.4226 22.7878C8.43285 24.237 7.90719 25.953 7.91536 27.708V31.6663H6.33203V33.2497H17.6845Z" fill="#363636"/>
<path d="M24.6482 22.0811C23.2263 22.0811 21.8363 22.5027 20.6541 23.2927C19.4718 24.0826 18.5504 25.2054 18.0062 26.5191C17.4621 27.8327 17.3197 29.2782 17.5971 30.6728C17.8745 32.0674 18.5592 33.3483 19.5647 34.3538C20.5701 35.3592 21.8511 36.0439 23.2456 36.3213C24.6402 36.5987 26.0857 36.4563 27.3994 35.9122C28.713 35.3681 29.8358 34.4466 30.6258 33.2643C31.4157 32.0821 31.8374 30.6921 31.8374 29.2702C31.8374 28.3261 31.6514 27.3913 31.2901 26.5191C30.9288 25.6468 30.3993 24.8543 29.7317 24.1867C29.0641 23.5191 28.2716 22.9896 27.3994 22.6283C26.5271 22.267 25.5923 22.0811 24.6482 22.0811ZM27.0446 27.6726H23.8494V28.4714H26.2458C26.4576 28.4714 26.6608 28.5556 26.8106 28.7054C26.9604 28.8552 27.0446 29.0584 27.0446 29.2702V31.6666C27.0446 31.8785 26.9604 32.0817 26.8106 32.2315C26.6608 32.3813 26.4576 32.4654 26.2458 32.4654H25.447V33.2642H23.8494V32.4654H22.2518V30.8678H25.447V30.069H23.0506C22.8387 30.069 22.6355 29.9849 22.4857 29.8351C22.3359 29.6853 22.2518 29.4821 22.2518 29.2702V26.8738C22.2518 26.662 22.3359 26.4588 22.4857 26.309C22.6355 26.1592 22.8387 26.075 23.0506 26.075H23.8494V25.2763H25.447V26.075H27.0446V27.6726Z" fill="#FEF200"/>
</svg>
