<svg width="38" height="38" viewBox="0 0 38 38" fill="none" xmlns="http://www.w3.org/2000/svg">
<path d="M34.1703 30.3745C34.1703 30.7524 34.0202 31.1149 33.753 31.3821C33.4857 31.6493 33.1233 31.7995 32.7453 31.7995H5.22383C4.84589 31.7995 4.48344 31.6493 4.2162 31.3821C3.94896 31.1149 3.79883 30.7524 3.79883 30.3745V7.5998C3.79883 7.22187 3.94896 6.85942 4.2162 6.59218C4.48344 6.32494 4.84589 6.1748 5.22383 6.1748C5.60176 6.1748 5.96422 6.32494 6.23146 6.59218C6.4987 6.85942 6.64883 7.22187 6.64883 7.5998V28.9511H32.7453C33.123 28.9511 33.4852 29.101 33.7524 29.3679C34.0196 29.6348 34.1699 29.9968 34.1703 30.3745ZM9.52575 21.8751C9.52646 21.2413 9.66809 20.6156 9.94038 20.0433C10.2127 19.471 10.6088 18.9664 11.1001 18.566C11.5914 18.1656 12.1656 17.8795 12.7811 17.7283C13.3966 17.5772 14.038 17.5647 14.6589 17.692L16.9373 13.6576C16.4582 13.1112 16.1262 12.4517 15.9728 11.7413C15.8194 11.031 15.8496 10.2932 16.0606 9.59778C16.2716 8.90234 16.6564 8.27217 17.1787 7.7668C17.7009 7.26143 18.3434 6.89754 19.0454 6.70951C19.7474 6.52148 20.4857 6.51552 21.1907 6.69219C21.8956 6.86885 22.5439 7.22231 23.0742 7.71918C23.6046 8.21605 23.9995 8.83992 24.2217 9.53186C24.4439 10.2238 24.4861 10.961 24.3442 11.6737L27.1783 13.3457C27.9506 12.6969 28.9273 12.3421 29.9359 12.3439C30.9445 12.3457 31.92 12.704 32.6899 13.3556C33.4598 14.0071 33.9745 14.9099 34.1431 15.9043C34.3117 16.8987 34.1233 17.9207 33.6111 18.7896C33.099 19.6585 32.2961 20.3183 31.3445 20.6525C30.3929 20.9866 29.3537 20.9735 28.4108 20.6155C27.4679 20.2575 26.6819 19.5776 26.1918 18.6961C25.7018 17.8146 25.5392 16.7881 25.7327 15.7983L22.9033 14.1263C22.4284 14.5307 21.8694 14.8243 21.2669 14.9859C20.6644 15.1475 20.0335 15.173 19.42 15.0605L17.0957 19.1661C17.5331 19.6952 17.8366 20.3219 17.9806 20.9932C18.1246 21.6645 18.1048 22.3606 17.9229 23.0226C17.741 23.6846 17.4023 24.293 16.9355 24.7965C16.4687 25.2999 15.8876 25.6835 15.2412 25.9148C14.5948 26.1462 13.9022 26.2184 13.2219 26.1255C12.5417 26.0325 11.8939 25.7771 11.3332 25.3809C10.7726 24.9846 10.3156 24.4591 10.001 23.8489C9.68641 23.2387 9.52339 22.5617 9.52575 21.8751Z" fill="#363636"/>
<ellipse cx="20.0279" cy="10.7837" rx="4.62162" ry="4.62162" fill="#FEF200"/>
</svg>
