<svg width="20" height="20" viewBox="0 0 20 20" fill="none" xmlns="http://www.w3.org/2000/svg">
<path d="M18.3327 4.83351C17.7063 5.10525 17.0439 5.28489 16.366 5.36684C17.0812 4.93961 17.6171 4.26749 17.8743 3.47517C17.2023 3.87523 16.4667 4.15709 15.6993 4.30851C15.1865 3.75232 14.5035 3.38209 13.7575 3.25588C13.0116 3.12968 12.2448 3.25464 11.5775 3.61117C10.9102 3.96769 10.3801 4.53562 10.0704 5.22587C9.76064 5.91613 9.68876 6.68967 9.86602 7.42517C8.50721 7.35645 7.17805 7.00264 5.96489 6.38673C4.75174 5.77082 3.68172 4.90659 2.82435 3.85017C2.52363 4.37532 2.36562 4.97003 2.36602 5.57517C2.36495 6.13716 2.50286 6.69069 2.76748 7.18648C3.03209 7.68227 3.4152 8.10493 3.88268 8.41684C3.33933 8.40206 2.80759 8.25626 2.33268 7.99184V8.03351C2.33675 8.82092 2.61268 9.58275 3.11378 10.1901C3.61488 10.7975 4.3104 11.2132 5.08268 11.3668C4.7854 11.4573 4.47674 11.505 4.16602 11.5085C3.95092 11.506 3.73637 11.4865 3.52435 11.4502C3.74427 12.1275 4.16987 12.7195 4.74191 13.1436C5.31395 13.5678 6.004 13.8031 6.71602 13.8168C5.51368 14.7629 4.02925 15.2792 2.49935 15.2835C2.2208 15.2844 1.94246 15.2677 1.66602 15.2335C3.22804 16.2421 5.04836 16.7774 6.90768 16.7752C8.19076 16.7885 9.46363 16.546 10.6519 16.0619C11.8403 15.5778 12.9202 14.8617 13.8287 13.9556C14.7372 13.0494 15.456 11.9713 15.9431 10.7843C16.4303 9.59719 16.676 8.32495 16.666 7.04184C16.666 6.90017 16.666 6.75017 16.666 6.60017C17.3199 6.11252 17.8839 5.5147 18.3327 4.83351Z" fill="white"/>
</svg>
