<svg width="69" height="69" viewBox="0 0 69 69" fill="none" xmlns="http://www.w3.org/2000/svg">
<path d="M5.71777 34.4585V63.1953H63.1913V5.72168H5.71777V34.4585ZM52.0323 32.1595C53.4088 32.479 54.66 33.1989 55.6278 34.2286C56.1607 34.7833 56.6239 35.4009 57.0072 36.0677C57.0072 36.1413 54.5243 37.8195 53.0116 38.7575C52.9565 38.7943 52.7358 38.5552 52.4921 38.192C52.2159 37.7155 51.8236 37.3167 51.3516 37.0329C50.8796 36.7491 50.3435 36.5894 49.7931 36.5689C48.0505 36.4494 46.9286 37.3643 46.9378 38.8678C46.9234 39.2422 47.0091 39.6136 47.1861 39.9437C47.5677 40.7392 48.2804 41.2128 50.515 42.1783C54.6301 43.9485 56.3911 45.1164 57.4854 46.7762C58.7084 48.6154 58.9797 51.5856 58.1521 53.7834C57.2325 56.1743 54.9795 57.7973 51.7932 58.3353C50.3379 58.502 48.8675 58.4865 47.416 58.2893C45.2008 57.93 43.1574 56.8752 41.5813 55.2777C41.0525 54.6938 40.0226 53.1719 40.087 53.0615C40.2548 52.9369 40.4315 52.8247 40.6157 52.7259L42.7308 51.512L44.3814 50.5557L44.7262 51.066C45.3082 51.8985 46.0488 52.6079 46.9056 53.1535C48.7448 54.119 51.2552 53.9857 52.4967 52.8684C52.9135 52.459 53.1735 51.9164 53.2315 51.335C53.2894 50.7536 53.1417 50.1703 52.8139 49.6867C52.3541 49.0476 51.4346 48.5096 48.8643 47.3877C45.8987 46.1095 44.6205 45.3187 43.4526 44.0589C42.7236 43.2275 42.1853 42.2467 41.8755 41.1852C41.6445 39.9725 41.6104 38.7304 41.7744 37.5069C42.3859 34.6424 44.5331 32.6423 47.6689 32.0492C49.1211 31.8695 50.5921 31.9098 52.0323 32.1687V32.1595ZM38.5421 34.5688V36.9229H31.0797V58.179H25.7875V36.9183H18.3068V34.6194C18.2867 33.828 18.3082 33.0361 18.3712 32.2469C18.3987 32.2101 22.969 32.1917 28.4865 32.2009H38.5145L38.5421 34.5688Z" fill="#007ACC"/>
</svg>
