<svg width="41" height="24" viewBox="0 0 41 24" fill="none" xmlns="http://www.w3.org/2000/svg">
<path d="M41 0.0231934H0V23.9767H41V0.0231934Z" fill="#F0F0F0"/>
<path d="M41 3.01709H0V6.01098H41V3.01709Z" fill="#D80027"/>
<path d="M41 9.00574H0V11.9996H41V9.00574Z" fill="#D80027"/>
<path d="M41 14.9935H0V17.9874H41V14.9935Z" fill="#D80027"/>
<path d="M41 20.9821H0V23.976H41V20.9821Z" fill="#D80027"/>
<path d="M20.5 0.0231934H0V12.9212H20.5V0.0231934Z" fill="#2E52B2"/>
<path d="M7.99379 5.30701L7.66362 6.19711H6.5957L7.45983 6.74694L7.12966 7.63697L7.99379 7.08715L8.85735 7.63697L8.52727 6.74694L9.39139 6.19711H8.32339L7.99379 5.30701Z" fill="#F0F0F0"/>
<path d="M8.32339 9.40908L7.99379 8.51904L7.66362 9.40908H6.5957L7.45983 9.95897L7.12966 10.849L7.99379 10.2991L8.85735 10.849L8.52727 9.95897L9.39139 9.40908H8.32339Z" fill="#F0F0F0"/>
<path d="M3.8098 9.40908L3.48012 8.51904L3.14995 9.40908H2.08203L2.94615 9.95897L2.61599 10.849L3.48012 10.2991L4.34376 10.849L4.01368 9.95897L4.87764 9.40908H3.8098Z" fill="#F0F0F0"/>
<path d="M3.48012 5.30701L3.14995 6.19711H2.08203L2.94615 6.74694L2.61599 7.63697L3.48012 7.08715L4.34376 7.63697L4.01368 6.74694L4.87764 6.19711H3.8098L3.48012 5.30701Z" fill="#F0F0F0"/>
<path d="M7.99379 2.09473L7.66362 2.9849H6.5957L7.45983 3.5348L7.12966 4.42483L7.99379 3.87494L8.85735 4.42483L8.52727 3.5348L9.39139 2.9849H8.32339L7.99379 2.09473Z" fill="#F0F0F0"/>
<path d="M3.48012 2.09473L3.14995 2.9849H2.08203L2.94615 3.5348L2.61599 4.42483L3.48012 3.87494L4.34376 4.42483L4.01368 3.5348L4.87764 2.9849H3.8098L3.48012 2.09473Z" fill="#F0F0F0"/>
<path d="M12.5074 5.30701L12.1773 6.19711H11.1094L11.9734 6.74694L11.6434 7.63697L12.5074 7.08715L13.3711 7.63697L13.0409 6.74694L13.9051 6.19711H12.8371L12.5074 5.30701Z" fill="#F0F0F0"/>
<path d="M12.8371 9.40908L12.5074 8.51904L12.1773 9.40908H11.1094L11.9734 9.95897L11.6434 10.849L12.5074 10.2991L13.3711 10.849L13.0409 9.95897L13.9051 9.40908H12.8371Z" fill="#F0F0F0"/>
<path d="M17.3507 9.40908L17.0211 8.51904L16.6909 9.40908H15.623L16.487 9.95897L16.1569 10.849L17.0211 10.2991L17.8847 10.849L17.5545 9.95897L18.4187 9.40908H17.3507Z" fill="#F0F0F0"/>
<path d="M17.0211 5.30701L16.6909 6.19711H15.623L16.487 6.74694L16.1569 7.63697L17.0211 7.08715L17.8847 7.63697L17.5545 6.74694L18.4187 6.19711H17.3507L17.0211 5.30701Z" fill="#F0F0F0"/>
<path d="M12.5074 2.09473L12.1773 2.9849H11.1094L11.9734 3.5348L11.6434 4.42483L12.5074 3.87494L13.3711 4.42483L13.0409 3.5348L13.9051 2.9849H12.8371L12.5074 2.09473Z" fill="#F0F0F0"/>
<path d="M17.0211 2.09473L16.6909 2.9849H15.623L16.487 3.5348L16.1569 4.42483L17.0211 3.87494L17.8847 4.42483L17.5545 3.5348L18.4187 2.9849H17.3507L17.0211 2.09473Z" fill="#F0F0F0"/>
</svg>
