<svg width="38" height="38" viewBox="0 0 38 38" fill="none" xmlns="http://www.w3.org/2000/svg">
<path d="M33.3111 16.4166L30.935 20.5319C30.4711 21.3355 30.7464 22.3631 31.5499 22.827C32.3537 23.291 33.3813 23.0156 33.8452 22.212L36.2205 18.098C37.5687 19.676 37.8492 21.9933 36.7522 23.8932C35.7389 25.6482 33.8296 26.5634 31.9357 26.3945L27.5702 33.9554C26.9904 34.9601 25.7058 35.3042 24.7015 34.7241C23.6969 34.1444 23.3527 32.8598 23.9327 31.8554L28.289 24.3098C27.1733 22.7509 27.001 20.6211 28.022 18.8528C29.1198 16.9515 31.2691 16.036 33.3111 16.4166ZM25.6005 3.16968C29.244 3.16968 32.1978 6.12336 32.1978 9.7669V13.6956C31.2924 13.7188 30.398 13.9018 29.5589 14.2335L29.5 9H6L5.80881 25.6002C5.80881 27.7862 7.58101 29.5585 9.76714 29.5585H22.2116L21.6473 30.536C21.342 31.0648 21.1502 31.6279 21.0643 32.1974H9.76714C6.1236 32.1974 3.16992 29.2437 3.16992 25.6002V9.7669C3.16992 6.12336 6.1236 3.16968 9.76714 3.16968H25.6005ZM21.256 14.111L25.3783 18.2334C24.6983 19.7466 24.5489 21.3861 24.8661 22.9225L21.256 26.5325C20.7408 27.0479 19.9053 27.0479 19.39 26.5325C18.8748 26.0174 18.8748 25.1819 19.39 24.6665L23.7348 20.3218L19.39 15.977C18.8748 15.4618 18.8748 14.6263 19.39 14.111C19.9053 13.5958 20.7407 13.5958 21.256 14.111ZM15.9763 14.111C16.4916 14.6263 16.4916 15.4618 15.9763 15.977L11.6315 20.3218L15.9763 24.6665C16.4916 25.1819 16.4916 26.0174 15.9763 26.5325C15.461 27.0479 14.6256 27.0479 14.1103 26.5325L8.83256 21.2548C8.58511 21.0074 8.44609 20.6718 8.44609 20.3218C8.44609 19.9719 8.58511 19.6363 8.83256 19.3888L14.1103 14.111C14.6256 13.5958 15.461 13.5958 15.9763 14.111Z" fill="#363636"/>
<path d="M33.3105 16.4166L30.9345 20.5319C30.4706 21.3355 30.7458 22.3631 31.5493 22.827C32.3531 23.291 33.3807 23.0156 33.8446 22.2121L36.2199 18.098C37.5681 19.6761 37.8486 21.9933 36.7516 23.8932C35.7383 25.6482 33.8291 26.5634 31.9351 26.3945L27.5696 33.9555C26.9899 34.9601 25.7053 35.3042 24.7009 34.7242C23.6963 34.1444 23.3522 32.8598 23.9321 31.8554L28.2885 24.3098C27.1727 22.7509 27.0004 20.6211 28.0214 18.8528C29.1192 16.9516 31.2686 16.036 33.3105 16.4166Z" fill="#FEF200"/>
</svg>
