<svg width="38" height="38" viewBox="0 0 38 38" fill="none" xmlns="http://www.w3.org/2000/svg">
<path d="M28.5013 27.3125C28.5072 27.2533 28.5072 27.1936 28.5013 27.1344L28.3351 26.125H9.50133V29.6875H28.5013V27.3125ZM31.2088 32.0625H6.79382L5.93883 35.34C5.89435 35.5153 5.89049 35.6984 5.92753 35.8753C5.96457 36.0523 6.04155 36.2185 6.15258 36.3612C6.26806 36.5076 6.41639 36.6247 6.58556 36.7031C6.75473 36.7815 6.93999 36.819 7.12633 36.8125H30.8763C31.0567 36.8135 31.2349 36.7733 31.3975 36.6951C31.56 36.617 31.7026 36.5028 31.8144 36.3612C31.9255 36.2185 32.0024 36.0523 32.0395 35.8753C32.0765 35.6984 32.0727 35.5153 32.0282 35.34L31.2088 32.0625ZM6.8532 19.7956L9.50133 21.0544V23.75H27.9669L27.8244 22.8356C27.6766 21.8464 27.1895 20.9394 26.4464 20.27C25.7033 19.6006 24.7505 19.2104 23.7513 19.1662C22.7011 18.9871 21.7471 18.445 21.0557 17.6344C22.2328 17.6235 23.3883 17.3173 24.4163 16.7437L25.4376 17.4919C25.9124 17.8376 26.4572 18.0752 27.0337 18.188C27.6101 18.3008 28.2043 18.2862 28.7744 18.145C29.4986 17.9686 30.1586 17.5923 30.6793 17.059C31.2 16.5257 31.5604 15.8569 31.7194 15.1287C31.9397 14.1287 31.8775 13.0871 31.5399 12.1204C31.2023 11.1537 30.6025 10.2999 29.8076 9.65437L24.9388 5.69999L25.3307 3.56249C25.3893 3.2215 25.3576 2.87111 25.2389 2.54613C25.1201 2.22115 24.9184 1.9329 24.6538 1.70999C24.3966 1.48435 24.085 1.32956 23.7498 1.26085C23.4146 1.19214 23.0672 1.21188 22.7419 1.31812C21.1319 1.80496 19.7154 2.78527 18.6926 4.12062C17.1721 3.82913 15.6061 3.87639 14.1059 4.25905C12.6058 4.6417 11.2085 5.35034 10.0134 6.33452C8.81833 7.3187 7.8549 8.55422 7.19169 9.95313C6.52848 11.352 6.1818 12.88 6.17633 14.4281V18.7269C6.17696 18.9507 6.24084 19.1698 6.3606 19.3589C6.48036 19.548 6.65112 19.6994 6.8532 19.7956Z" fill="#363636"/>
<path d="M9.5 26.123H28.5V29.7835H9.5V26.123Z" fill="#FEF200"/>
</svg>
