<svg width="38" height="38" viewBox="0 0 38 38" fill="none" xmlns="http://www.w3.org/2000/svg">
<path d="M33.821 21.66C33.2502 21.662 32.6953 21.848 32.2385 22.1902C31.7817 22.5325 31.4473 23.0128 31.285 23.56H29.4425C30.0746 22.1228 30.401 20.57 30.401 19C30.4009 17.43 30.0745 15.8771 29.4424 14.44H31.285C31.4676 15.0523 31.8644 15.5784 32.403 15.9222C32.9416 16.266 33.5859 16.4044 34.2181 16.3121C34.8504 16.2199 35.4283 15.9031 35.8462 15.4198C36.2641 14.9365 36.4941 14.3189 36.4941 13.68C36.4941 13.0411 36.2641 12.4235 35.8462 11.9402C35.4283 11.4568 34.8504 11.1401 34.2181 11.0479C33.5859 10.9556 32.9416 11.094 32.403 11.4378C31.8644 11.7816 31.4676 12.3077 31.285 12.92H28.6274C27.7213 11.4907 26.5102 10.2797 25.081 9.3736V6.71595C25.6933 6.5334 26.2194 6.13655 26.5632 5.59796C26.9069 5.05938 27.0453 4.41506 26.9531 3.78281C26.8609 3.15057 26.5441 2.57265 26.0608 2.15473C25.5775 1.73682 24.9599 1.50684 24.321 1.50684C23.682 1.50684 23.0644 1.73682 22.5811 2.15473C22.0978 2.57265 21.7811 3.15057 21.6888 3.78281C21.5966 4.41506 21.735 5.05938 22.0788 5.59796C22.4225 6.13655 22.9487 6.5334 23.561 6.71595V8.5585C22.1238 7.9264 20.571 7.59999 19.001 7.59999C17.431 7.59999 15.8781 7.9264 14.441 8.5585V6.71595C15.0533 6.5334 15.5794 6.13655 15.9232 5.59796C16.2669 5.05938 16.4053 4.41506 16.3131 3.78281C16.2209 3.15057 15.9041 2.57265 15.4208 2.15473C14.9375 1.73682 14.3199 1.50684 13.681 1.50684C13.042 1.50684 12.4244 1.73682 11.9411 2.15473C11.4578 2.57265 11.1411 3.15057 11.0488 3.78281C10.9566 4.41506 11.095 5.05938 11.4388 5.59796C11.7825 6.13655 12.3087 6.5334 12.921 6.71595V9.3736C11.4917 10.2797 10.2806 11.4907 9.37457 12.92H6.71693C6.53438 12.3077 6.13752 11.7816 5.59894 11.4378C5.06036 11.094 4.41603 10.9556 3.78379 11.0479C3.15154 11.1401 2.57363 11.4568 2.15571 11.9402C1.7378 12.4235 1.50781 13.0411 1.50781 13.68C1.50781 14.3189 1.7378 14.9365 2.15571 15.4198C2.57363 15.9031 3.15154 16.2199 3.78379 16.3121C4.41603 16.4044 5.06036 16.266 5.59894 15.9222C6.13752 15.5784 6.53438 15.0523 6.71693 14.44H8.55947C7.92738 15.8771 7.60097 17.43 7.60096 19C7.60095 20.57 7.92733 22.1228 8.5594 23.56H6.71693C6.53438 22.9477 6.13752 22.4215 5.59894 22.0778C5.06036 21.734 4.41603 21.5956 3.78379 21.6879C3.15154 21.7801 2.57363 22.0968 2.15571 22.5801C1.7378 23.0635 1.50781 23.6811 1.50781 24.32C1.50781 24.9589 1.7378 25.5765 2.15571 26.0598C2.57363 26.5431 3.15154 26.8599 3.78379 26.9521C4.41603 27.0444 5.06036 26.906 5.59894 26.5622C6.13752 26.2184 6.53438 25.6923 6.71693 25.08H9.37442C10.2805 26.5093 11.4917 27.7204 12.921 28.6265V31.284C12.3087 31.4666 11.7825 31.8634 11.4388 32.402C11.095 32.9406 10.9566 33.5849 11.0488 34.2172C11.1411 34.8494 11.4578 35.4273 11.9411 35.8452C12.4244 36.2632 13.042 36.4931 13.681 36.4931C14.3199 36.4931 14.9375 36.2632 15.4208 35.8452C15.9041 35.4273 16.2209 34.8494 16.3131 34.2172C16.4053 33.5849 16.2669 32.9406 15.9232 32.402C15.5794 31.8634 15.0533 31.4666 14.441 31.284V29.4416C15.8781 30.0736 17.431 30.4 19.001 30.4C20.571 30.4 22.1238 30.0736 23.561 29.4416V31.284C22.9487 31.4666 22.4225 31.8634 22.0788 32.402C21.735 32.9406 21.5966 33.5849 21.6888 34.2172C21.7811 34.8494 22.0978 35.4273 22.5811 35.8452C23.0644 36.2632 23.682 36.4931 24.321 36.4931C24.9599 36.4931 25.5775 36.2632 26.0608 35.8452C26.5441 35.4273 26.8609 34.8494 26.9531 34.2172C27.0453 33.5849 26.9069 32.9406 26.5632 32.402C26.2194 31.8634 25.6933 31.4666 25.081 31.284V28.6265C26.5103 27.7204 27.7214 26.5093 28.6275 25.08H31.285C31.427 25.5513 31.6972 25.9738 32.0654 26.3004C32.4337 26.6269 32.8855 26.8447 33.3704 26.9293C33.8552 27.0139 34.3541 26.962 34.8112 26.7794C35.2683 26.5968 35.6656 26.2908 35.9587 25.8954C36.2519 25.5 36.4294 25.0309 36.4713 24.5405C36.5133 24.0501 36.418 23.5577 36.1962 23.1183C35.9744 22.6789 35.6349 22.3098 35.2154 22.0523C34.796 21.7948 34.3132 21.6589 33.821 21.66ZM33.821 12.54C34.0464 12.54 34.2668 12.6069 34.4543 12.7321C34.6418 12.8574 34.7879 13.0354 34.8742 13.2437C34.9605 13.452 34.983 13.6813 34.9391 13.9024C34.8951 14.1235 34.7865 14.3267 34.6271 14.4861C34.4676 14.6455 34.2645 14.7541 34.0434 14.7981C33.8222 14.8421 33.593 14.8195 33.3847 14.7332C33.1764 14.6469 32.9984 14.5008 32.8731 14.3133C32.7478 14.1259 32.681 13.9055 32.681 13.68C32.6813 13.3777 32.8015 13.088 33.0152 12.8743C33.229 12.6606 33.5187 12.5403 33.821 12.54ZM23.181 4.17999C23.181 3.95452 23.2478 3.73411 23.3731 3.54664C23.4984 3.35917 23.6764 3.21305 23.8847 3.12677C24.093 3.04049 24.3222 3.01791 24.5434 3.0619C24.7645 3.10588 24.9676 3.21446 25.1271 3.37389C25.2865 3.53332 25.3951 3.73645 25.4391 3.95759C25.483 4.17873 25.4605 4.40794 25.3742 4.61625C25.2879 4.82456 25.1418 5.0026 24.9543 5.12787C24.7668 5.25313 24.5464 5.31999 24.321 5.31999C24.0187 5.31966 23.7289 5.19944 23.5152 4.98572C23.3015 4.772 23.1813 4.48224 23.181 4.17999ZM12.541 4.17999C12.541 3.95452 12.6078 3.73411 12.7331 3.54664C12.8584 3.35917 13.0364 3.21305 13.2447 3.12677C13.453 3.04049 13.6822 3.01791 13.9034 3.0619C14.1245 3.10588 14.3276 3.21446 14.4871 3.37389C14.6465 3.53332 14.7551 3.73645 14.7991 3.95759C14.843 4.17873 14.8205 4.40794 14.7342 4.61625C14.6479 4.82456 14.5018 5.0026 14.3143 5.12787C14.1268 5.25313 13.9064 5.31999 13.681 5.31999C13.3787 5.31966 13.089 5.19944 12.8752 4.98572C12.6615 4.772 12.5413 4.48224 12.541 4.17999ZM4.18096 14.82C3.95549 14.82 3.73508 14.7531 3.54761 14.6279C3.36014 14.5026 3.21402 14.3246 3.12774 14.1162C3.04146 13.9079 3.01888 13.6787 3.06287 13.4576C3.10685 13.2365 3.21543 13.0333 3.37486 12.8739C3.53429 12.7145 3.73742 12.6059 3.95856 12.5619C4.1797 12.5179 4.40891 12.5405 4.61722 12.6268C4.82553 12.7131 5.00357 12.8592 5.12884 13.0466C5.2541 13.2341 5.32096 13.4545 5.32096 13.68C5.32062 13.9822 5.2004 14.272 4.98669 14.4857C4.77297 14.6994 4.4832 14.8196 4.18096 14.82ZM4.18096 25.46C3.95549 25.46 3.73508 25.3931 3.54761 25.2679C3.36014 25.1426 3.21402 24.9646 3.12774 24.7562C3.04146 24.5479 3.01888 24.3187 3.06287 24.0976C3.10685 23.8764 3.21543 23.6733 3.37486 23.5139C3.53429 23.3545 3.73742 23.2459 3.95856 23.2019C4.1797 23.1579 4.40891 23.1805 4.61722 23.2668C4.82553 23.3531 5.00357 23.4992 5.12884 23.6866C5.2541 23.8741 5.32096 24.0945 5.32096 24.32C5.32062 24.6222 5.2004 24.912 4.98669 25.1257C4.77297 25.3394 4.4832 25.4596 4.18096 25.46ZM14.821 33.82C14.821 34.0455 14.7541 34.2659 14.6288 34.4533C14.5036 34.6408 14.3255 34.7869 14.1172 34.8732C13.9089 34.9595 13.6797 34.9821 13.4586 34.9381C13.2374 34.8941 13.0343 34.7855 12.8749 34.6261C12.7154 34.4667 12.6069 34.2635 12.5629 34.0424C12.5189 33.8213 12.5415 33.592 12.6277 33.3837C12.714 33.1754 12.8601 32.9974 13.0476 32.8721C13.2351 32.7468 13.4555 32.68 13.681 32.68C13.9832 32.6803 14.273 32.8006 14.4867 33.0143C14.7004 33.228 14.8206 33.5177 14.821 33.82ZM25.461 33.82C25.461 34.0455 25.3941 34.2659 25.2688 34.4533C25.1436 34.6408 24.9655 34.7869 24.7572 34.8732C24.5489 34.9595 24.3197 34.9821 24.0986 34.9381C23.8774 34.8941 23.6743 34.7855 23.5149 34.6261C23.3554 34.4667 23.2469 34.2635 23.2029 34.0424C23.1589 33.8213 23.1815 33.592 23.2677 33.3837C23.354 33.1754 23.5001 32.9974 23.6876 32.8721C23.8751 32.7468 24.0955 32.68 24.321 32.68C24.6232 32.6803 24.913 32.8006 25.1267 33.0143C25.3404 33.228 25.4606 33.5177 25.461 33.82ZM25.2331 19C25.2327 19.2476 25.2172 19.495 25.1868 19.7407L25.8974 20.4495C26.0864 20.6389 26.2079 20.8852 26.2432 21.1505C26.2784 21.4158 26.2255 21.6853 26.0926 21.9176L25.0735 23.681C24.9403 23.9135 24.7338 24.0952 24.4863 24.1978C24.2388 24.3004 23.9643 24.3181 23.7057 24.248L22.733 23.986C22.3374 24.2824 21.9076 24.5301 21.4528 24.7238L21.1938 25.6975C21.1243 25.9561 20.9715 26.1847 20.759 26.3478C20.5466 26.511 20.2864 26.5996 20.0185 26.6H17.9834C17.7157 26.5996 17.4556 26.5111 17.2432 26.3481C17.0308 26.1852 16.8781 25.9568 16.8085 25.6982L16.5491 24.7245C16.0945 24.5301 15.6647 24.2822 15.2689 23.986L14.2973 24.248C14.0382 24.3178 13.7633 24.2998 13.5155 24.197C13.2677 24.0942 13.0608 23.9122 12.9273 23.6795L11.9105 21.919C11.777 21.6869 11.7237 21.4173 11.7587 21.1518C11.7937 20.8864 11.9151 20.6398 12.1042 20.4502L12.8152 19.7407C12.7534 19.2488 12.7534 18.7512 12.8152 18.2593L12.1046 17.5498C11.9152 17.3605 11.7935 17.1141 11.7584 16.8487C11.7232 16.5833 11.7765 16.3138 11.9101 16.0817L12.928 14.3186C13.0618 14.0863 13.2688 13.9048 13.5165 13.8025C13.7643 13.7001 14.039 13.6826 14.2977 13.7527L15.2689 14.014C15.6646 13.7179 16.0943 13.4702 16.5487 13.2759L16.8081 12.3029C16.8775 12.0441 17.0302 11.8154 17.2427 11.6522C17.4552 11.489 17.7155 11.4003 17.9834 11.4H20.0185C20.2862 11.4003 20.5464 11.4888 20.7588 11.6518C20.9712 11.8148 21.1239 12.0432 21.1934 12.3017L21.4532 13.2759C21.9076 13.4702 22.3373 13.718 22.733 14.014L23.705 13.7523C23.9637 13.6832 24.238 13.7013 24.4855 13.8037C24.7329 13.9061 24.9397 14.0872 25.0739 14.319L26.0918 16.0814C26.2254 16.3135 26.2787 16.5833 26.2435 16.8488C26.2083 17.1143 26.0865 17.3608 25.897 17.5501L25.1868 18.2593C25.2172 18.505 25.2327 18.7524 25.2331 19ZM33.821 25.46C33.5955 25.46 33.3751 25.3931 33.1876 25.2679C33.0001 25.1426 32.854 24.9646 32.7677 24.7562C32.6815 24.5479 32.6589 24.3187 32.7029 24.0976C32.7469 23.8764 32.8554 23.6733 33.0149 23.5139C33.1743 23.3545 33.3774 23.2459 33.5986 23.2019C33.8197 23.1579 34.0489 23.1805 34.2572 23.2668C34.4655 23.3531 34.6436 23.4992 34.7688 23.6866C34.8941 23.8741 34.961 24.0945 34.961 24.32C34.9606 24.6222 34.8404 24.912 34.6267 25.1257C34.413 25.3394 34.1232 25.4596 33.821 25.46Z" fill="#363636"/>
<path d="M23.6635 19.6671C23.7303 19.2248 23.7303 18.775 23.6635 18.3327C23.6356 18.1445 23.652 17.9523 23.7113 17.7715C23.7706 17.5907 23.8713 17.4262 24.0053 17.2911L24.6587 16.6391L23.8746 15.2808L22.9792 15.522C22.7963 15.57 22.6047 15.575 22.4196 15.5364C22.2344 15.4978 22.0608 15.4168 21.9123 15.2997C21.5593 15.0222 21.1684 14.7968 20.7515 14.6303C20.5758 14.5602 20.4188 14.4503 20.2927 14.3093C20.1667 14.1683 20.075 14 20.0249 13.8176L19.7855 12.9199H18.2173L17.9783 13.8165C17.9283 13.999 17.8367 14.1675 17.7107 14.3086C17.5846 14.4498 17.4275 14.5597 17.2517 14.6299C16.8348 14.7966 16.4439 15.022 16.0909 15.2994C15.9424 15.4171 15.7684 15.4985 15.5829 15.5371C15.3973 15.5756 15.2053 15.5704 15.0222 15.5216L14.1282 15.2808L13.3441 16.6391L13.998 17.2917C14.1319 17.4268 14.2324 17.5912 14.2917 17.7719C14.3509 17.9526 14.3673 18.1446 14.3393 18.3327C14.2726 18.775 14.2726 19.2248 14.3393 19.6671C14.3673 19.8553 14.3509 20.0474 14.2916 20.2282C14.2323 20.4089 14.1316 20.5734 13.9976 20.7084L13.3438 21.3608L14.1286 22.7191L15.0233 22.4778C15.2059 22.4294 15.3973 22.4242 15.5823 22.4626C15.7673 22.5009 15.9408 22.5819 16.0891 22.699C16.4421 22.9767 16.8331 23.2024 17.2502 23.3692C17.4265 23.4382 17.5842 23.5476 17.7106 23.6886C17.837 23.8297 17.9285 23.9983 17.9779 24.1811L18.2173 25.0799H19.7855L20.0245 24.1826C20.0736 23.9999 20.1647 23.8313 20.2907 23.6902C20.4166 23.5491 20.5738 23.4394 20.7496 23.3699C21.1672 23.2037 21.5586 22.9782 21.9119 22.7004C22.061 22.5837 22.2349 22.5029 22.4203 22.4644C22.6057 22.426 22.7974 22.4308 22.9806 22.4785L23.8742 22.7191L24.6591 21.3608L24.0049 20.7084C23.871 20.5733 23.7704 20.4089 23.7111 20.2281C23.6519 20.0474 23.6356 19.8553 23.6635 19.6671ZM19.0014 22.0399C18.4002 22.0399 17.8124 21.8616 17.3125 21.5276C16.8126 21.1936 16.4229 20.7188 16.1928 20.1633C15.9627 19.6078 15.9025 18.9966 16.0198 18.4068C16.1371 17.8171 16.4267 17.2755 16.8518 16.8503C17.277 16.4252 17.8186 16.1356 18.4083 16.0183C18.998 15.901 19.6093 15.9612 20.1648 16.1913C20.7203 16.4214 21.195 16.8111 21.5291 17.311C21.8631 17.8109 22.0414 18.3987 22.0414 18.9999C22.0406 19.8059 21.72 20.5787 21.1501 21.1486C20.5802 21.7185 19.8074 22.0391 19.0014 22.0399Z" fill="#FEF200"/>
<path d="M19.0005 20.52C19.8399 20.52 20.5205 19.8395 20.5205 19C20.5205 18.1605 19.8399 17.48 19.0005 17.48C18.161 17.48 17.4805 18.1605 17.4805 19C17.4805 19.8395 18.161 20.52 19.0005 20.52Z" fill="#FEF200"/>
</svg>
