<!-- Generated by IcoMoon.io -->
<svg version="1.1" xmlns="http://www.w3.org/2000/svg" width="34" height="32" viewBox="0 0 34 32">
<title>xamarin</title>
<path d="M9.849 0.931c-0.922 0.002-1.824 0.521-2.288 1.312l-7.218 12.43c-0.457 0.793-0.457 1.831 0 2.624l7.218 12.43c0.464 0.791 1.366 1.31 2.288 1.312h14.436c0.922-0.002 1.824-0.521 2.288-1.312l7.218-12.43c0.457-0.794 0.457-1.831 0-2.624l-7.218-12.43c-0.464-0.792-1.366-1.31-2.288-1.312h-14.436zM9.98 8.203c0.020-0.002 0.041-0.002 0.061 0h2.49c0.055 0.002 0.109 0.017 0.157 0.045s0.087 0.068 0.115 0.115l4.224 7.462c0.021 0.037 0.035 0.078 0.040 0.12 0.005-0.042 0.019-0.083 0.040-0.12l4.214-7.462c0.029-0.049 0.070-0.089 0.12-0.117s0.105-0.043 0.162-0.043h2.49c0.22 0.002 0.386 0.277 0.282 0.471l-4.123 7.312 4.123 7.302c0.113 0.195-0.056 0.483-0.282 0.481h-2.49c-0.058-0.001-0.115-0.018-0.164-0.048s-0.090-0.072-0.118-0.123l-4.214-7.462c-0.021-0.037-0.035-0.078-0.040-0.12-0.005 0.042-0.019 0.083-0.040 0.12l-4.224 7.462c-0.027 0.049-0.066 0.091-0.114 0.12s-0.102 0.047-0.158 0.050h-2.49c-0.226 0.002-0.395-0.286-0.282-0.481l4.123-7.302-4.123-7.312c-0.099-0.177 0.022-0.433 0.222-0.471h0z"></path>
</svg>
