<svg width="69" height="69" viewBox="0 0 69 69" fill="none" xmlns="http://www.w3.org/2000/svg">
<g clip-path="url(#clip0_3019_4174)">
<path d="M19.9093 4.00562C18.0457 4.00963 16.2215 5.05953 15.2836 6.661L0.692763 31.8148C-0.230921 33.4206 -0.230921 35.5196 0.692763 37.1253L15.2836 62.2794C16.2215 63.8809 18.0457 64.931 19.9093 64.9348H49.0909C50.9544 64.9308 52.7786 63.8809 53.7166 62.2794L68.3074 37.1253C69.231 35.5196 69.2308 33.4206 68.3074 31.8148L53.7166 6.661C52.7786 5.05926 50.9544 4.00936 49.0909 4.00562H19.9093ZM20.1742 18.7211C20.2144 18.7171 20.2564 18.7171 20.2966 18.7211H25.3298C25.4416 18.7247 25.5508 18.7563 25.647 18.813C25.7432 18.8697 25.8234 18.9496 25.8802 19.0453L34.4187 34.1457C34.4618 34.2206 34.4893 34.3036 34.4995 34.3892C34.5103 34.3036 34.5378 34.2206 34.5809 34.1457L43.0989 19.0453C43.1576 18.9469 43.241 18.8653 43.3411 18.8084C43.4411 18.7516 43.5543 18.7215 43.6695 18.7211H48.703C49.1485 18.7249 49.4825 19.282 49.2736 19.6737L40.9389 34.4702L49.2736 49.2464C49.5022 49.6402 49.1604 50.223 48.703 50.2193H43.6695C43.5523 50.2168 43.4377 50.1837 43.3375 50.1232C43.2373 50.0627 43.155 49.977 43.0989 49.8748L34.5809 34.7741C34.5378 34.6994 34.5103 34.6163 34.4998 34.5309C34.4893 34.6166 34.4617 34.6993 34.4187 34.7743L25.8799 49.8748C25.8256 49.9741 25.7466 50.0579 25.6503 50.1182C25.554 50.1786 25.4438 50.2134 25.3301 50.2193H20.2963C19.8389 50.2233 19.4971 49.6402 19.7257 49.2464L28.0604 34.4702L19.7257 19.6737C19.526 19.3163 19.7696 18.7973 20.1739 18.7211H20.1742Z" fill="#3498DB"/>
</g>
<defs>
<clipPath id="clip0_3019_4174">
<rect width="69" height="69" fill="white"/>
</clipPath>
</defs>
</svg>
