<svg width="418" height="193" viewBox="0 0 418 193" fill="none" xmlns="https://www.w3.org/2000/svg">
<path d="M312.436 93.1472C281.253 88.521 245.744 86.0525 208.762 86.0525C174.918 86.0525 142.311 88.1169 113.129 92.0093C113.136 91.5927 113.142 91.1761 113.162 90.7595C113.936 66.5777 124.854 43.6365 143.582 26.8391C162.31 10.0417 187.363 0.720849 213.387 0.868644C239.41 1.01644 264.339 10.6212 282.845 27.63C301.351 44.6389 311.966 67.7024 312.422 91.8912C312.429 92.314 312.436 92.7306 312.436 93.1472Z" fill="#363636"/>
<g opacity="0.1">
<path opacity="0.1" d="M225.853 0.834028C212.012 -0.903921 197.933 0.081098 184.528 3.72524C171.123 7.36938 158.691 13.5913 148.038 21.9878C137.385 30.3843 128.749 40.768 122.689 52.4659C116.629 64.1638 113.281 76.9149 112.861 89.8927C112.841 90.3093 112.835 90.7259 112.828 91.1425C121.498 89.986 130.476 88.9951 139.693 88.1676C140.82 66.5472 150.054 45.9758 165.792 30.0232C181.53 14.0707 202.78 3.74359 225.853 0.834028V0.834028Z" fill="white"/>
</g>
<path d="M356.032 100.496C341.678 96.8785 327.119 94.0055 312.422 91.8902C288.334 88.4201 264.049 86.2505 239.69 85.3924C229.544 85.0069 219.21 84.808 208.762 84.808C200.482 84.808 192.268 84.9323 184.168 85.181C160.408 85.8336 136.703 87.6956 113.162 90.7585C95.7355 92.9893 78.478 96.2415 61.4927 100.496C21.8895 110.675 0.078125 124.317 0.078125 138.904C0.078125 153.491 21.8895 167.133 61.4927 177.312C89.3441 184.475 123.683 189.356 161.099 191.595C176.543 192.527 192.509 193 208.762 193C225.069 193 241.088 192.521 256.579 191.589C290.631 189.543 322.134 185.308 348.5 179.153C348.641 179.115 348.775 179.084 348.915 179.053C350.694 178.643 352.446 178.214 354.179 177.785C354.801 177.623 355.416 177.468 356.032 177.312C356.066 177.299 356.102 177.289 356.139 177.281C356.727 177.132 357.309 176.976 357.891 176.827C359.055 176.516 360.205 176.212 361.336 175.894C361.389 175.882 361.436 175.87 361.483 175.857C362.466 175.584 363.429 175.31 364.386 175.036C365.168 174.806 365.944 174.582 366.713 174.352C367.275 174.185 367.831 174.017 368.379 173.849C368.78 173.724 369.175 173.606 369.563 173.482C370.091 173.32 370.62 173.152 371.141 172.984C371.362 172.916 371.583 172.848 371.797 172.773C372.298 172.618 372.787 172.456 373.275 172.294C373.803 172.12 374.332 171.94 374.853 171.766C375.288 171.623 375.723 171.474 376.151 171.324C376.512 171.194 376.867 171.069 377.228 170.945C378.211 170.603 379.174 170.249 380.124 169.9C380.599 169.72 381.074 169.546 381.542 169.366C382.003 169.192 382.472 169.011 382.927 168.831C383.675 168.539 384.411 168.246 385.134 167.954C385.482 167.805 385.836 167.662 386.177 167.525C386.438 167.413 386.692 167.308 386.953 167.196C387.14 167.121 387.328 167.04 387.508 166.959C388.184 166.673 388.853 166.381 389.508 166.089C392.023 164.97 394.371 163.826 396.551 162.657C410.229 155.375 417.446 147.298 417.446 138.904C417.446 124.317 395.635 110.675 356.032 100.496ZM355.671 176.118C327.786 183.288 293.353 188.169 255.836 190.388C240.58 191.29 224.808 191.756 208.762 191.756C192.77 191.756 177.052 191.296 161.842 190.395C124.265 188.181 89.7788 183.3 61.8539 176.118C22.8794 166.095 1.41584 152.882 1.41584 138.904C1.41802 137.669 1.58432 136.439 1.91096 135.242C5.32188 122.632 26.3041 110.83 61.8539 101.69C78.7108 97.4685 95.8361 94.235 113.129 92.0083C136.812 88.9281 160.659 87.0599 184.563 86.4122C192.536 86.1697 200.602 86.0495 208.762 86.0516C219.069 86.0516 229.263 86.2443 239.282 86.6174C263.783 87.4678 288.209 89.6478 312.435 93.1462C327.005 95.2521 341.439 98.1042 355.671 101.69C391.214 110.83 412.189 122.625 415.607 135.229C415.939 136.43 416.107 137.664 416.109 138.904C416.109 152.882 394.645 166.095 355.671 176.118V176.118Z" fill="#363636"/>
<path d="M417.066 139.47C417.066 147.777 409.701 155.637 396.551 162.657C394.365 163.826 392.01 164.97 389.509 166.089C388.853 166.382 388.184 166.674 387.509 166.96C387.328 167.041 387.141 167.121 386.954 167.196C386.693 167.308 386.439 167.414 386.178 167.526C385.837 167.662 385.482 167.805 385.134 167.955C384.412 168.247 383.676 168.539 382.927 168.831C382.472 169.012 382.004 169.192 381.542 169.366C381.074 169.546 380.599 169.72 380.125 169.901C379.175 170.249 378.211 170.603 377.228 170.945C376.867 171.07 376.512 171.194 376.151 171.325C375.723 171.474 375.289 171.623 374.854 171.766C374.332 171.94 373.804 172.121 373.275 172.295C372.787 172.456 372.299 172.618 371.797 172.774C371.583 172.848 371.362 172.917 371.142 172.985C370.62 173.153 370.092 173.321 369.563 173.482C369.175 173.607 368.781 173.725 368.379 173.849C367.831 174.017 367.275 174.185 366.714 174.353C365.945 174.583 365.169 174.807 364.386 175.037C363.43 175.31 362.466 175.584 361.483 175.858C361.436 175.87 361.39 175.882 361.336 175.895C360.206 176.212 359.055 176.517 357.892 176.828C357.31 176.977 356.728 177.132 356.139 177.282C356.103 177.289 356.067 177.299 356.032 177.313C355.417 177.468 354.801 177.623 354.179 177.785C352.454 178.208 350.695 178.637 348.915 179.054C348.775 179.085 348.641 179.116 348.501 179.153C322.85 185.11 291.38 189.45 256.553 191.545C241.296 192.459 225.39 192.944 209.05 192.944C192.563 192.944 176.524 192.453 161.147 191.521C69.3522 185.956 1.03516 164.765 1.03516 139.47C1.04238 137.931 1.29475 136.402 1.78403 134.931C1.8242 135.037 1.86437 135.136 1.9114 135.242C11.4557 158.547 79.1914 177.381 167.079 181.976C180.544 182.685 194.489 183.052 208.763 183.052C223.096 183.052 237.095 182.679 250.613 181.97C338.428 177.356 406.096 158.516 415.607 135.23C415.768 134.857 415.909 134.483 416.029 134.11C416.707 135.827 417.058 137.641 417.066 139.47V139.47Z" fill="#363636"/>
<path d="M61.3921 132.776C50.2605 132.776 38.4297 130.549 38.4297 126.423C38.4297 122.296 50.2605 120.07 61.3921 120.07C72.5237 120.07 84.3545 122.296 84.3545 126.423C84.3545 130.549 72.5237 132.776 61.3921 132.776ZM61.3921 121.314C48.6483 121.314 39.7674 124.006 39.7674 126.423C39.7674 128.839 48.6483 131.532 61.3921 131.532C74.1359 131.532 83.0168 128.839 83.0168 126.423C83.0168 124.006 74.1359 121.314 61.3921 121.314V121.314Z" fill="#363636"/>
<path d="M108.884 162C97.7526 162 85.9219 159.773 85.9219 155.647C85.9219 151.521 97.7527 149.294 108.884 149.294C120.016 149.294 131.847 151.521 131.847 155.647C131.847 159.773 120.016 162 108.884 162ZM108.884 150.538C96.1405 150.538 87.2596 153.231 87.2596 155.647C87.2596 158.064 96.1405 160.756 108.884 160.756C121.628 160.756 130.509 158.064 130.509 155.647C130.509 153.231 121.628 150.538 108.884 150.538V150.538Z" fill="#363636"/>
<path d="M355.693 132.776C344.561 132.776 332.73 130.549 332.73 126.423C332.73 122.296 344.561 120.07 355.693 120.07C366.824 120.07 378.655 122.296 378.655 126.423C378.655 130.549 366.824 132.776 355.693 132.776ZM355.693 121.314C342.949 121.314 334.068 124.006 334.068 126.423C334.068 128.839 342.949 131.532 355.693 131.532C368.437 131.532 377.318 128.839 377.318 126.423C377.318 124.006 368.437 121.314 355.693 121.314V121.314Z" fill="#363636"/>
<path d="M308.205 162C297.073 162 285.242 159.773 285.242 155.647C285.242 151.521 297.073 149.294 308.205 149.294C319.336 149.294 331.167 151.521 331.167 155.647C331.167 159.773 319.336 162 308.205 162ZM308.205 150.538C295.461 150.538 286.58 153.231 286.58 155.647C286.58 158.064 295.461 160.756 308.205 160.756C320.948 160.756 329.829 158.064 329.829 155.647C329.829 153.231 320.948 150.538 308.205 150.538V150.538Z" fill="#363636"/>
<path d="M208.54 175.68C197.409 175.68 185.578 173.453 185.578 169.327C185.578 165.201 197.409 162.974 208.54 162.974C219.672 162.974 231.503 165.201 231.503 169.327C231.503 173.453 219.672 175.68 208.54 175.68ZM208.54 164.218C195.797 164.218 186.916 166.911 186.916 169.327C186.916 171.743 195.797 174.436 208.54 174.436C221.284 174.436 230.165 171.743 230.165 169.327C230.165 166.911 221.284 164.218 208.54 164.218V164.218Z" fill="#363636"/>
</svg>
