<svg width="16" height="16" viewBox="0 0 16 16" fill="none" xmlns="https://www.w3.org/2000/svg">
<g clip-path="url(#clip0_4866_10310)">
<path d="M15.74 0.0148925L0 0.0148926L8.66226e-08 15.7244L15.74 15.7244L15.74 0.0148925Z" fill="#F0F0F0"/>
<path d="M15.74 1.97876L0 1.97876L1.08268e-08 3.94226L15.74 3.94226L15.74 1.97876Z" fill="#D80027"/>
<path d="M15.74 5.90625L0 5.90625L1.08268e-08 7.86975L15.74 7.86975L15.74 5.90625Z" fill="#D80027"/>
<path d="M15.74 9.83325L0 9.83325L1.08268e-08 11.7967L15.74 11.7967L15.74 9.83325Z" fill="#D80027"/>
<path d="M15.74 13.7607L0 13.7607L1.08268e-08 15.7242L15.74 15.7242L15.74 13.7607Z" fill="#D80027"/>
<path d="M7.87 0.0148925L0 0.0148926L4.66429e-08 8.47385L7.87 8.47385L7.87 0.0148925Z" fill="#2E52B2"/>
<path d="M3.06798 3.48047L2.94123 4.06423L2.53125 4.06423L2.86299 4.42482L2.73624 5.00854L3.06798 4.64794L3.3995 5.00854L3.27278 4.42482L3.60452 4.06423L3.19451 4.06423L3.06798 3.48047Z" fill="#F0F0F0"/>
<path d="M3.19451 6.17087L3.06798 5.58716L2.94123 6.17087L2.53125 6.17087L2.86299 6.53151L2.73624 7.11523L3.06798 6.75459L3.3995 7.11523L3.27278 6.53151L3.60452 6.17087L3.19451 6.17087Z" fill="#F0F0F0"/>
<path d="M1.46212 6.17087L1.33556 5.58716L1.20881 6.17087L0.798828 6.17087L1.13057 6.53151L1.00382 7.11523L1.33556 6.75459L1.66711 7.11523L1.54039 6.53151L1.87207 6.17087L1.46212 6.17087Z" fill="#F0F0F0"/>
<path d="M1.33556 3.48047L1.20881 4.06423L0.798828 4.06423L1.13057 4.42482L1.00382 5.00854L1.33556 4.64794L1.66711 5.00854L1.54039 4.42482L1.87207 4.06423L1.46212 4.06423L1.33556 3.48047Z" fill="#F0F0F0"/>
<path d="M3.06798 1.37378L2.94123 1.95759L2.53125 1.95759L2.86299 2.31823L2.73624 2.90194L3.06798 2.5413L3.3995 2.90194L3.27278 2.31823L3.60452 1.95759L3.19451 1.95759L3.06798 1.37378Z" fill="#F0F0F0"/>
<path d="M1.33556 1.37378L1.20881 1.95759L0.798828 1.95759L1.13057 2.31823L1.00382 2.90194L1.33556 2.5413L1.66711 2.90194L1.54039 2.31823L1.87207 1.95759L1.46212 1.95759L1.33556 1.37378Z" fill="#F0F0F0"/>
<path d="M4.80232 3.48047L4.6756 4.06423L4.26563 4.06423L4.59733 4.42482L4.47064 5.00854L4.80232 4.64794L5.13391 5.00854L5.00716 4.42482L5.3389 4.06423L4.92892 4.06423L4.80232 3.48047Z" fill="#F0F0F0"/>
<path d="M4.92892 6.17075L4.80232 5.58704L4.6756 6.17075L4.26563 6.17075L4.59733 6.53139L4.47064 7.1151L4.80232 6.75447L5.13391 7.1151L5.00716 6.53139L5.3389 6.17075L4.92892 6.17075Z" fill="#F0F0F0"/>
<path d="M6.66131 6.17075L6.53474 5.58704L6.40799 6.17075L5.99805 6.17075L6.32972 6.53139L6.20301 7.1151L6.53474 6.75447L6.8663 7.1151L6.73955 6.53139L7.07129 6.17075L6.66131 6.17075Z" fill="#F0F0F0"/>
<path d="M6.53474 3.48047L6.40799 4.06423L5.99805 4.06423L6.32972 4.42482L6.20301 5.00854L6.53474 4.64794L6.8663 5.00854L6.73955 4.42482L7.07129 4.06423L6.66131 4.06423L6.53474 3.48047Z" fill="#F0F0F0"/>
<path d="M4.80232 1.37378L4.6756 1.95759L4.26563 1.95759L4.59733 2.31823L4.47064 2.90194L4.80232 2.5413L5.13391 2.90194L5.00716 2.31823L5.3389 1.95759L4.92892 1.95759L4.80232 1.37378Z" fill="#F0F0F0"/>
<path d="M6.53474 1.37378L6.40799 1.95759L5.99805 1.95759L6.32972 2.31823L6.20301 2.90194L6.53474 2.5413L6.8663 2.90194L6.73955 2.31823L7.07129 1.95759L6.66131 1.95759L6.53474 1.37378Z" fill="#F0F0F0"/>
</g>
<defs>
<clipPath id="clip0_4866_10310">
<rect width="15.74" height="15.74" rx="7.87" fill="white"/>
</clipPath>
</defs>
</svg>
