<svg width="38" height="38" viewBox="0 0 38 38" fill="none" xmlns="https://www.w3.org/2000/svg">
<circle cx="19" cy="19" r="18.5" stroke="#363636" stroke-opacity="0.15"/>
<path d="M22.5587 14.6403C22.4005 14.6403 22.2458 14.6872 22.1142 14.7751C21.9827 14.863 21.8801 14.988 21.8196 15.1341C21.759 15.2803 21.7432 15.4412 21.7741 15.5964C21.8049 15.7515 21.8811 15.8941 21.993 16.006C22.1049 16.1179 22.2474 16.194 22.4026 16.2249C22.5578 16.2558 22.7187 16.2399 22.8648 16.1794C23.011 16.1188 23.136 16.0163 23.2239 15.8847C23.3118 15.7532 23.3587 15.5985 23.3587 15.4403C23.3587 15.2281 23.2744 15.0246 23.1244 14.8746C22.9744 14.7246 22.7709 14.6403 22.5587 14.6403ZM25.6254 16.2536C25.6124 15.7005 25.5088 15.1532 25.3187 14.6336C25.1492 14.189 24.8854 13.7865 24.5454 13.4536C24.2152 13.1119 23.8117 12.8497 23.3654 12.687C22.8471 12.4911 22.2993 12.3851 21.7454 12.3736C21.0387 12.3336 20.812 12.3336 18.9987 12.3336C17.1854 12.3336 16.9587 12.3336 16.252 12.3736C15.6981 12.3851 15.1503 12.4911 14.632 12.687C14.1865 12.8514 13.7833 13.1133 13.452 13.4536C13.1103 13.7837 12.8481 14.1872 12.6854 14.6336C12.4895 15.1518 12.3835 15.6997 12.372 16.2536C12.332 16.9603 12.332 17.187 12.332 19.0003C12.332 20.8136 12.332 21.0403 12.372 21.747C12.3835 22.3009 12.4895 22.8487 12.6854 23.367C12.8481 23.8133 13.1103 24.2168 13.452 24.547C13.7833 24.8872 14.1865 25.1492 14.632 25.3136C15.1503 25.5095 15.6981 25.6155 16.252 25.627C16.9587 25.667 17.1854 25.667 18.9987 25.667C20.812 25.667 21.0387 25.667 21.7454 25.627C22.2993 25.6155 22.8471 25.5095 23.3654 25.3136C23.8117 25.1508 24.2152 24.8887 24.5454 24.547C24.8869 24.2153 25.1509 23.8124 25.3187 23.367C25.5088 22.8474 25.6124 22.3001 25.6254 21.747C25.6254 21.0403 25.6654 20.8136 25.6654 19.0003C25.6654 17.187 25.6654 16.9603 25.6254 16.2536ZM24.4254 21.667C24.4205 22.0901 24.3439 22.5094 24.1987 22.907C24.0923 23.1971 23.9213 23.4592 23.6987 23.6736C23.4825 23.894 23.2208 24.0646 22.932 24.1736C22.5345 24.3188 22.1152 24.3954 21.692 24.4003C21.0254 24.4336 20.7787 24.4403 19.0254 24.4403C17.272 24.4403 17.0254 24.4403 16.3587 24.4003C15.9193 24.4085 15.4818 24.3409 15.0654 24.2003C14.7892 24.0857 14.5396 23.9155 14.332 23.7003C14.1108 23.4861 13.9419 23.2237 13.8387 22.9336C13.6759 22.5304 13.5857 22.1016 13.572 21.667C13.572 21.0003 13.532 20.7536 13.532 19.0003C13.532 17.247 13.532 17.0003 13.572 16.3336C13.575 15.901 13.654 15.4722 13.8054 15.067C13.9227 14.7856 14.1029 14.5347 14.332 14.3336C14.5346 14.1044 14.7849 13.9223 15.0654 13.8003C15.4717 13.6536 15.9 13.577 16.332 13.5736C16.9987 13.5736 17.2454 13.5336 18.9987 13.5336C20.752 13.5336 20.9987 13.5336 21.6654 13.5736C22.0885 13.5785 22.5078 13.6551 22.9054 13.8003C23.2083 13.9127 23.4802 14.0955 23.6987 14.3336C23.9172 14.5384 24.0879 14.7888 24.1987 15.067C24.3469 15.4729 24.4236 15.9015 24.4254 16.3336C24.4587 17.0003 24.4654 17.247 24.4654 19.0003C24.4654 20.7536 24.4587 21.0003 24.4254 21.667ZM18.9987 15.5803C18.3226 15.5816 17.662 15.7833 17.1005 16.1599C16.5389 16.5365 16.1016 17.0711 15.8438 17.6961C15.586 18.3212 15.5192 19.0086 15.6519 19.6716C15.7846 20.3345 16.1109 20.9433 16.5894 21.4209C17.068 21.8986 17.6774 22.2236 18.3406 22.3551C19.0038 22.4865 19.6911 22.4184 20.3157 22.1593C20.9402 21.9003 21.474 21.4619 21.8495 20.8996C22.225 20.3374 22.4254 19.6764 22.4254 19.0003C22.4262 18.5504 22.3382 18.1047 22.1662 17.6889C21.9942 17.2732 21.7417 16.8955 21.4233 16.5777C21.1048 16.2598 20.7267 16.0081 20.3106 15.8369C19.8945 15.6657 19.4486 15.5785 18.9987 15.5803ZM18.9987 21.2203C18.5596 21.2203 18.1304 21.0901 17.7653 20.8461C17.4003 20.6022 17.1157 20.2555 16.9477 19.8498C16.7797 19.4442 16.7357 18.9978 16.8214 18.5672C16.907 18.1365 17.1184 17.741 17.4289 17.4305C17.7394 17.12 18.135 16.9086 18.5656 16.8229C18.9962 16.7373 19.4426 16.7812 19.8483 16.9493C20.2539 17.1173 20.6006 17.4018 20.8446 17.7669C21.0885 18.132 21.2187 18.5612 21.2187 19.0003C21.2187 19.2918 21.1613 19.5805 21.0497 19.8498C20.9381 20.1192 20.7746 20.3639 20.5685 20.5701C20.3623 20.7762 20.1176 20.9397 19.8483 21.0513C19.5789 21.1629 19.2902 21.2203 18.9987 21.2203Z" fill="#363636"/>
</svg>
