<svg width="38" height="38" viewBox="0 0 38 38" fill="none" xmlns="https://www.w3.org/2000/svg">
<circle cx="19" cy="19" r="18.5" stroke="#363636" stroke-opacity="0.15"/>
<path d="M24.4265 27.8568H13.679C12.2599 27.8568 11.1055 26.7048 11.1055 25.2886V14.5682C11.1055 13.152 12.2599 12 13.679 12H24.4265C25.8451 12 26.9996 13.152 26.9996 14.5682V25.289C26.9996 26.7052 25.8451 27.8568 24.4265 27.8568ZM16.4762 25.109H16.4794V18.2693H14.352V25.109H16.4762ZM15.4141 17.3351C16.0955 17.3351 16.6457 16.7849 16.6457 16.1035C16.6457 15.4252 16.0923 14.8718 15.4141 14.8718C14.7327 14.8718 14.1824 15.4252 14.1824 16.1035C14.1824 16.7817 14.7327 17.3351 15.4141 17.3351ZM24.4388 25.109V21.3596C24.4388 19.5169 24.0388 18.0997 21.889 18.0997C20.8557 18.0997 20.1615 18.666 19.8768 19.2034H19.8481V18.2693H17.8102V25.109H19.9344V21.7243C19.9344 20.8318 20.1039 19.968 21.2108 19.968C22.2985 19.968 22.3146 20.9885 22.3146 21.7819V25.109H24.4388Z" fill="#363636"/>
</svg>
