<svg width="38" height="38" viewBox="0 0 38 38" fill="none" xmlns="https://www.w3.org/2000/svg">
<circle cx="19" cy="19" r="18.5" stroke="#363636" stroke-opacity="0.15"/>
<path d="M25.6654 14.8668C25.1643 15.0842 24.6343 15.2279 24.092 15.2935C24.6641 14.9517 25.0929 14.414 25.2987 13.7801C24.7611 14.1002 24.1725 14.3257 23.5587 14.4468C23.1484 14.0019 22.602 13.7057 22.0052 13.6047C21.4085 13.5037 20.7951 13.6037 20.2612 13.8889C19.7274 14.1742 19.3033 14.6285 19.0555 15.1807C18.8077 15.7329 18.7502 16.3517 18.892 16.9401C17.805 16.8852 16.7417 16.6021 15.7711 16.1094C14.8006 15.6167 13.9446 14.9253 13.2587 14.0801C13.0181 14.5003 12.8917 14.976 12.892 15.4601C12.8912 15.9097 13.0015 16.3526 13.2132 16.7492C13.4249 17.1458 13.7314 17.4839 14.1054 17.7335C13.6707 17.7216 13.2453 17.605 12.8654 17.3935V17.4268C12.8686 18.0567 13.0894 18.6662 13.4902 19.1521C13.8911 19.638 14.4475 19.9706 15.0654 20.0935C14.8275 20.1659 14.5806 20.204 14.332 20.2068C14.16 20.2048 13.9883 20.1892 13.8187 20.1601C13.9946 20.702 14.3351 21.1756 14.7927 21.5149C15.2504 21.8543 15.8024 22.0425 16.372 22.0535C15.4102 22.8103 14.2226 23.2234 12.9987 23.2268C12.7759 23.2275 12.5532 23.2142 12.332 23.1868C13.5817 23.9936 15.0379 24.422 16.5254 24.4201C17.5518 24.4308 18.5701 24.2368 19.5208 23.8495C20.4714 23.4622 21.3354 22.8894 22.0622 22.1645C22.789 21.4395 23.364 20.5771 23.7537 19.6274C24.1435 18.6778 24.3401 17.66 24.332 16.6335C24.332 16.5201 24.332 16.4001 24.332 16.2801C24.8552 15.89 25.3063 15.4118 25.6654 14.8668Z" fill="#363636"/>
</svg>
