<?xml version="1.0" encoding="UTF-8"?>
<svg width="51px" height="16px" viewBox="0 0 51 16" version="1.1" xmlns="http://www.w3.org/2000/svg" xmlns:xlink="http://www.w3.org/1999/xlink">
    <title>Think Logo Dark Grey</title>
    <g id="Export" stroke="none" stroke-width="1" fill="none" fill-rule="evenodd">
        <g id="Think-Logo-Dark-Grey" fill="#1A1A1A" fill-rule="nonzero">
            <polygon id="Path" points="39.7070849 15.809596 36.4478268 15.809596 36.4478268 1.64382114 35.9135488 0.617245091 39.7070849 0.193295173"></polygon>
            <path d="M34.3318261,8.25159227 L34.3318261,15.809596 L31.0709441,15.809596 L31.0709441,8.48062269 C31.0777729,8.05197703 30.9149111,7.63801163 30.6178634,7.32897329 C30.0251234,6.72309851 29.0475084,6.71822552 28.3216048,7.2737461 L28.3216048,15.809596 L25.0607228,15.809596 L25.0607228,6.30077292 L24.4955899,5.21409669 L28.3216048,5.21409669 L28.3216048,6.30239725 C28.339794,6.28011831 28.3593172,6.2589632 28.3800669,6.23904841 C29.4843496,5.11176395 31.0270976,4.75766019 32.2775354,5.21572102 C32.706784,5.37037063 33.0954304,5.62027383 33.4142971,5.94666915 C34.0129447,6.56331408 34.342874,7.39212887 34.3318261,8.25159227 L34.3318261,8.25159227 Z" id="Path"></path>
            <polygon id="Path" points="22.9463461 5.21409669 22.9463461 15.809596 19.6854641 15.809596 19.6854641 6.30077292 19.1203312 5.21409669"></polygon>
            <ellipse id="Oval" cx="21.3159051" cy="1.76077284" rx="1.8204426" ry="1.76077284"></ellipse>
            <polygon id="Path" points="43.0686515 10.5110342 45.8147429 15.809596 42.6448018 15.809596 39.8970865 10.5110342 42.2875338 5.99215037 41.8815475 5.21409669 45.8147429 5.21409669"></polygon>
            <path d="M16.663302,5.94504483 C16.3444353,5.6186495 15.9557889,5.3687463 15.5265404,5.21409669 C14.2696068,4.75603586 12.7252348,5.11013962 11.6290718,6.23742408 C11.6083221,6.25733887 11.5887989,6.27849398 11.5706098,6.30077292 L11.5706098,0.193295173 L7.76733004,0.617245091 L8.29998408,1.64382114 L8.29998408,15.809596 L11.5608661,15.809596 L11.5608661,7.2737461 C12.2851457,6.71822552 13.2643847,6.72309851 13.8571247,7.32897329 C14.1541724,7.63801163 14.3170342,8.05197703 14.3102054,8.48062269 L14.3102054,15.809596 L17.5710874,15.809596 L17.5710874,8.25159227 C17.5851722,7.39295203 17.2587897,6.56366282 16.663302,5.94504483 L16.663302,5.94504483 Z" id="Path"></path>
            <path d="M6.96834899,13.9806013 C6.33548611,14.302904 5.56788647,14.1880957 5.05696545,13.6947194 C4.75951807,13.3852797 4.59662494,12.9706507 4.60388473,12.5414457 L4.60388473,7.32897329 L6.22782996,7.32897329 L6.4551823,5.21734535 L4.60388473,5.21734535 L4.60388473,2.54207518 L1.34300271,5.21409669 L0,5.21409669 L0,7.32572463 L1.34300271,7.32572463 L1.34300271,12.7672274 C1.32891792,13.6258676 1.65530038,14.4551569 2.25078809,15.0737749 C2.57002251,15.400104 2.95852274,15.6504683 3.38754975,15.8063473 C4.64448336,16.2627838 6.18885528,15.9086801 7.28501831,14.7830199 C7.3061296,14.7602793 7.32561694,14.7407874 7.34348034,14.7196711 L6.96834899,13.9806013 Z" id="Path"></path>
            <polygon id="Path" points="50.9512816 12.7379895 47.9291196 12.7379895 47.3639866 12.7379895 47.9291196 13.8246657 47.9291196 15.7608661 47.9291196 15.809596 51 15.809596 51 12.7379895"></polygon>
        </g>
    </g>
</svg>