<svg width="30" height="30" viewBox="0 0 30 30" fill="none" xmlns="https://www.w3.org/2000/svg">
<rect width="30" height="30" rx="15" fill="#F43535"/>
<path d="M16.0687 15L20.8415 10.2348C20.9841 10.0922 21.0643 9.8987 21.0643 9.69695C21.0643 9.49521 20.9841 9.30173 20.8415 9.15908C20.6988 9.01642 20.5053 8.93628 20.3036 8.93628C20.1018 8.93628 19.9084 9.01642 19.7657 9.15908L15.0005 13.9318L10.2354 9.15908C10.0927 9.01642 9.89926 8.93628 9.69752 8.93628C9.49577 8.93628 9.30229 9.01642 9.15964 9.15908C9.01698 9.30173 8.93684 9.49521 8.93684 9.69695C8.93684 9.8987 9.01698 10.0922 9.15964 10.2348L13.9324 15L9.15964 19.7651C9.08863 19.8356 9.03227 19.9193 8.99381 20.0117C8.95535 20.104 8.93555 20.203 8.93555 20.303C8.93555 20.403 8.95535 20.502 8.99381 20.5944C9.03227 20.6867 9.08863 20.7705 9.15964 20.8409C9.23006 20.9119 9.31385 20.9683 9.40617 21.0067C9.49849 21.0452 9.59751 21.065 9.69752 21.065C9.79752 21.065 9.89654 21.0452 9.98886 21.0067C10.0812 20.9683 10.165 20.9119 10.2354 20.8409L15.0005 16.0682L19.7657 20.8409C19.8361 20.9119 19.9199 20.9683 20.0122 21.0067C20.1046 21.0452 20.2036 21.065 20.3036 21.065C20.4036 21.065 20.5026 21.0452 20.5949 21.0067C20.6872 20.9683 20.771 20.9119 20.8415 20.8409C20.9125 20.7705 20.9688 20.6867 21.0073 20.5944C21.0457 20.502 21.0655 20.403 21.0655 20.303C21.0655 20.203 21.0457 20.104 21.0073 20.0117C20.9688 19.9193 20.9125 19.8356 20.8415 19.7651L16.0687 15Z" fill="white"/>
</svg>
