<!-- Generated by IcoMoon.io -->
<svg version="1.1" xmlns="http://www.w3.org/2000/svg" width="32" height="32" viewBox="0 0 32 32">
<title>closemark</title>
<path d="M17.71 16l7.636-7.624c0.228-0.228 0.356-0.538 0.356-0.861s-0.128-0.632-0.356-0.861c-0.228-0.228-0.538-0.356-0.861-0.356s-0.632 0.128-0.861 0.356l-7.624 7.636-7.624-7.636c-0.228-0.228-0.538-0.356-0.861-0.356s-0.632 0.128-0.861 0.356c-0.228 0.228-0.356 0.538-0.356 0.861s0.128 0.632 0.356 0.861l7.636 7.624-7.636 7.624c-0.114 0.113-0.204 0.247-0.265 0.395s-0.093 0.306-0.093 0.466 0.032 0.318 0.093 0.466c0.062 0.148 0.152 0.282 0.265 0.394s0.247 0.204 0.394 0.265c0.148 0.062 0.306 0.093 0.466 0.093s0.318-0.032 0.466-0.093c0.148-0.061 0.282-0.152 0.394-0.265l7.624-7.636 7.624 7.636c0.113 0.114 0.247 0.204 0.394 0.265s0.306 0.093 0.466 0.093 0.318-0.032 0.466-0.093c0.148-0.061 0.282-0.152 0.395-0.265s0.204-0.247 0.265-0.394c0.061-0.148 0.093-0.306 0.093-0.466s-0.032-0.318-0.093-0.466c-0.062-0.148-0.152-0.282-0.265-0.395l-7.636-7.624z"></path>
</svg>
