<svg width="133" height="133" viewBox="0 0 133 133" fill="none" xmlns="https://www.w3.org/2000/svg">
<rect width="133" height="133" rx="66.5" fill="#363636"/>
<path d="M89.5931 89.4857H43.4062C40.9767 89.4828 38.6474 88.5164 36.9294 86.7984C35.2115 85.0804 34.245 82.7512 34.2422 80.3216V52.6785C34.245 50.2489 35.2115 47.9196 36.9294 46.2016C38.6474 44.4837 40.9767 43.5173 43.4062 43.5144H89.5931C92.0227 43.5173 94.352 44.4837 96.0699 46.2016C97.7879 47.9196 98.7543 50.2489 98.7572 52.6785V80.3216C98.7543 82.7512 97.7879 85.0804 96.0699 86.7984C94.352 88.5164 92.0227 89.4828 89.5931 89.4857ZM43.4062 46.7488C41.8336 46.7488 40.3254 47.3735 39.2133 48.4855C38.1013 49.5976 37.4766 51.1058 37.4766 52.6785V80.3216C37.4766 81.8942 38.1013 83.4025 39.2133 84.5145C40.3254 85.6265 41.8336 86.2513 43.4062 86.2513H89.5931C91.1658 86.2513 92.674 85.6265 93.786 84.5145C94.8981 83.4025 95.5228 81.8942 95.5228 80.3216V52.6785C95.5228 51.1058 94.8981 49.5976 93.786 48.4855C92.674 47.3735 91.1658 46.7488 89.5931 46.7488H43.4062Z" fill="white"/>
<path d="M66.5006 73.055C64.5056 73.0581 62.5639 72.4109 60.9698 71.2114L35.7956 52.1717C35.6177 52.0469 35.4668 51.8875 35.3519 51.7031C35.2371 51.5186 35.1605 51.3129 35.1269 51.0982C35.0933 50.8835 35.1033 50.6643 35.1563 50.4535C35.2093 50.2428 35.3042 50.0449 35.4354 49.8717C35.5666 49.6984 35.7314 49.5534 35.9198 49.4453C36.1083 49.3372 36.3167 49.2681 36.5324 49.2423C36.7482 49.2165 36.9669 49.2344 37.1756 49.295C37.3843 49.3556 37.5786 49.4576 37.747 49.595L62.9212 68.6563C63.955 69.428 65.2105 69.8449 66.5006 69.8449C67.7907 69.8449 69.0462 69.428 70.08 68.6563L95.2542 49.595C95.4225 49.4576 95.6169 49.3556 95.8256 49.295C96.0342 49.2344 96.253 49.2165 96.4687 49.2423C96.6845 49.2681 96.8929 49.3372 97.0813 49.4453C97.2698 49.5534 97.4346 49.6984 97.5658 49.8717C97.697 50.0449 97.7919 50.2428 97.8449 50.4535C97.8979 50.6643 97.9079 50.8835 97.8743 51.0982C97.8407 51.3129 97.7641 51.5186 97.6492 51.7031C97.5343 51.8875 97.3835 52.0469 97.2056 52.1717L72.0314 71.2114C70.4372 72.4109 68.4956 73.0581 66.5006 73.055Z" fill="white"/>
<path d="M36.4965 84.979C36.1685 84.9795 35.8481 84.8802 35.5779 84.6944C35.3076 84.5086 35.1002 84.2449 34.9833 83.9385C34.8663 83.6321 34.8453 83.2973 34.923 82.9787C35.0007 82.66 35.1735 82.3725 35.4184 82.1543L55.2559 64.4623C55.5761 64.1764 55.9969 64.0294 56.4255 64.0536C56.8541 64.0779 57.2556 64.2714 57.5415 64.5917C57.8275 64.9119 57.9745 65.3326 57.9502 65.7613C57.9259 66.1899 57.7324 66.5914 57.4121 66.8773L37.5746 84.5693C37.28 84.8374 36.8948 84.9838 36.4965 84.979ZM96.505 84.979C96.1067 84.9838 95.7214 84.8374 95.4268 84.5693L75.5893 66.8773C75.4308 66.7357 75.3016 66.5643 75.2093 66.3728C75.117 66.1813 75.0633 65.9735 75.0513 65.7613C75.0393 65.549 75.0692 65.3365 75.1393 65.1358C75.2094 64.9351 75.3184 64.7502 75.46 64.5917C75.6015 64.4331 75.773 64.304 75.9645 64.2116C76.1559 64.1193 76.3637 64.0656 76.576 64.0536C76.7882 64.0416 77.0007 64.0715 77.2014 64.1416C77.4021 64.2118 77.587 64.3207 77.7456 64.4623L97.5723 82.1543C97.8172 82.3725 97.99 82.66 98.0677 82.9787C98.1454 83.2973 98.1244 83.6321 98.0074 83.9385C97.8905 84.2449 97.6831 84.5086 97.4128 84.6944C97.1426 84.8802 96.8222 84.9795 96.4942 84.979H96.505Z" fill="white"/>
<circle cx="104" cy="15" r="15" fill="#FEF200"/>
<path d="M97 14.7706L101.807 20L111 10" stroke="#363636" stroke-width="2" stroke-linecap="round" stroke-linejoin="round"/>
</svg>
