<svg width="314" height="317" viewBox="0 0 314 317" fill="none" xmlns="https://www.w3.org/2000/svg">
<path d="M350.814 121.227C350.688 121.227 350.564 121.188 350.461 121.116L179.063 1.79174C178.542 1.43031 177.922 1.23715 177.287 1.23823C176.653 1.23931 176.034 1.43458 175.513 1.79779L5.35082 121.115C5.28417 121.162 5.20897 121.195 5.12951 121.213C5.05006 121.23 4.96789 121.232 4.88771 121.218C4.80753 121.204 4.73091 121.174 4.66222 121.131C4.59354 121.087 4.53413 121.03 4.48739 120.963C4.44065 120.897 4.40748 120.822 4.3898 120.742C4.37212 120.663 4.37026 120.581 4.38433 120.501C4.3984 120.42 4.42812 120.344 4.47181 120.275C4.51549 120.206 4.57228 120.147 4.63892 120.1L174.802 0.783186C175.53 0.274766 176.397 0.00146558 177.285 5.87788e-06C178.174 -0.00145383 179.042 0.268995 179.772 0.775019L351.169 120.099C351.277 120.175 351.359 120.283 351.401 120.407C351.444 120.532 351.445 120.667 351.406 120.793C351.366 120.919 351.288 121.029 351.181 121.107C351.075 121.185 350.946 121.227 350.814 121.227L350.814 121.227Z" fill="#363636" fill-opacity="0.07"/>
<path d="M349.559 119.988H349.435L278.288 150.357L180.944 191.909C180.564 192.069 180.156 192.153 179.743 192.155C179.33 192.157 178.921 192.078 178.539 191.922L78.1092 150.271L5.2143 120.037L5.10294 119.988H4.97887C3.82869 119.989 2.72597 120.446 1.91267 121.259C1.09937 122.072 0.641901 123.175 0.640625 124.325V312.663C0.641903 313.813 1.09937 314.915 1.91267 315.728C2.72597 316.541 3.82869 316.998 4.97887 317H349.559C350.709 316.998 351.812 316.541 352.625 315.728C353.439 314.915 353.896 313.813 353.897 312.663V124.325C353.896 123.175 353.439 122.072 352.625 121.259C351.812 120.446 350.709 119.989 349.559 119.988Z" fill="#363636"/>
<path d="M108.641 282.843H28.4206C27.9281 282.844 27.4402 282.747 26.9849 282.559C26.5296 282.371 26.1159 282.096 25.7674 281.748C25.4189 281.4 25.1424 280.986 24.9537 280.532C24.7651 280.077 24.668 279.589 24.668 279.097C24.668 278.604 24.7651 278.117 24.9537 277.662C25.1424 277.207 25.4189 276.794 25.7674 276.446C26.1159 276.098 26.5296 275.822 26.9849 275.634C27.4402 275.446 27.9281 275.349 28.4206 275.35H108.641C109.134 275.349 109.622 275.446 110.077 275.634C110.532 275.822 110.946 276.098 111.294 276.446C111.643 276.794 111.919 277.207 112.108 277.662C112.297 278.117 112.394 278.604 112.394 279.097C112.394 279.589 112.297 280.077 112.108 280.532C111.919 280.986 111.643 281.4 111.294 281.748C110.946 282.096 110.532 282.371 110.077 282.559C109.622 282.747 109.134 282.844 108.641 282.843Z" fill="white"/>
<path d="M57.202 266.735H28.4206C27.9281 266.735 27.4402 266.639 26.9849 266.451C26.5296 266.263 26.1159 265.987 25.7674 265.639C25.4189 265.291 25.1424 264.878 24.9537 264.423C24.7651 263.968 24.668 263.481 24.668 262.988C24.668 262.496 24.7651 262.008 24.9537 261.553C25.1424 261.099 25.4189 260.685 25.7674 260.337C26.1159 259.989 26.5296 259.713 26.9849 259.525C27.4402 259.337 27.9281 259.241 28.4206 259.242H57.202C57.6946 259.241 58.1824 259.337 58.6377 259.525C59.093 259.713 59.5067 259.989 59.8552 260.337C60.2037 260.685 60.4803 261.099 60.6689 261.553C60.8576 262.008 60.9546 262.496 60.9546 262.988C60.9546 263.481 60.8576 263.968 60.6689 264.423C60.4803 264.878 60.2037 265.291 59.8552 265.639C59.5067 265.987 59.093 266.263 58.6377 266.451C58.1824 266.639 57.6946 266.735 57.202 266.735Z" fill="white"/>
<path d="M179.732 192.464C179.123 192.464 178.519 192.346 177.954 192.116L77.8086 150.577V20.5526C77.8099 19.4028 78.2674 18.3005 79.0807 17.4875C79.894 16.6745 80.9967 16.2172 82.1468 16.2158H274.269C275.419 16.2172 276.522 16.6745 277.335 17.4875C278.148 18.3005 278.606 19.4028 278.607 20.5526V150.667L278.419 150.748L181.564 192.095C180.984 192.339 180.362 192.464 179.732 192.464Z" fill="#535353"/>
<path d="M229.193 114.382H125.075C123.76 114.382 122.499 113.86 121.569 112.931C120.64 112.001 120.117 110.74 120.117 109.426C120.117 108.112 120.64 106.851 121.569 105.921C122.499 104.992 123.76 104.47 125.075 104.47H229.193C230.508 104.47 231.769 104.992 232.699 105.921C233.629 106.851 234.151 108.112 234.151 109.426C234.151 110.74 233.629 112.001 232.699 112.931C231.769 113.86 230.508 114.382 229.193 114.382Z" fill="white"/>
<path d="M197.453 61.1311H156.013C154.698 61.1311 153.437 60.6089 152.507 59.6794C151.577 58.7499 151.055 57.4893 151.055 56.1748C151.055 54.8603 151.577 53.5996 152.507 52.6702C153.437 51.7407 154.698 51.2185 156.013 51.2185H197.453C198.768 51.2185 200.029 51.7407 200.958 52.6702C201.888 53.5996 202.411 54.8603 202.411 56.1748C202.411 57.4893 201.888 58.7499 200.958 59.6794C200.029 60.6089 198.768 61.1311 197.453 61.1311Z" fill="white"/>
<path d="M229.193 137.305H125.075C123.76 137.305 122.499 136.783 121.569 135.853C120.64 134.924 120.117 133.663 120.117 132.349C120.117 131.034 120.64 129.774 121.569 128.844C122.499 127.915 123.76 127.393 125.075 127.393H229.193C230.508 127.393 231.769 127.915 232.699 128.844C233.629 129.774 234.151 131.034 234.151 132.349C234.151 133.663 233.629 134.924 232.699 135.853C231.769 136.783 230.508 137.305 229.193 137.305Z" fill="white"/>
</svg>
