<!-- Generated by IcoMoon.io -->
<svg version="1.1" xmlns="https://www.w3.org/2000/svg" width="1024" height="1024" viewBox="0 0 1024 1024">
<title></title>
<g id="icomoon-ignore">
</g>
<path d="M859.346 1014.835h-687.841c-90.821 0-164.705-73.728-164.705-164.362v-686.108c0-90.637 73.884-164.365 164.705-164.365h687.841c90.793 0 164.68 73.728 164.68 164.365v686.134c0 90.634-73.887 164.337-164.68 164.337zM350.524 838.979h0.205v-437.745h-136.154v437.745h135.949zM282.55 341.448c43.61 0 78.826-35.216 78.826-78.826 0-43.405-35.421-78.826-78.826-78.826-43.611 0-78.827 35.421-78.827 78.826s35.216 78.826 78.827 78.826zM860.134 838.979v-239.964c0-117.93-25.6-208.632-163.185-208.632-66.135 0-110.561 36.24-128.783 70.637h-1.843v-59.785h-130.421v437.745h135.95v-216.622c0-57.124 10.849-112.404 81.69-112.404 69.617 0 70.641 65.315 70.641 116.090v212.936h135.951z"></path>
</svg>
