<!-- Generated by IcoMoon.io -->
<svg version="1.1" xmlns="https://www.w3.org/2000/svg" width="520" height="1024" viewBox="0 0 520 1024">
<title>scroll</title>
<g id="icomoon-ignore">
</g>
<path fill="none" stroke-linejoin="miter" stroke-linecap="butt" stroke-miterlimit="10" stroke-width="24.381" stroke="none" d="M260.050 481.524c35.242 0 69.039-14 93.958-38.919s38.919-58.717 38.919-93.958v-177.168c0-35.241-14-69.039-38.919-93.958s-58.716-38.919-93.958-38.919h-10.971c-32.331 0-63.338 12.844-86.2 35.705s-35.705 53.869-35.705 86.2v188.14c0 35.24 13.999 69.039 38.918 93.958s58.717 38.919 93.958 38.919z"></path>
<path fill="none" stroke-linejoin="round" stroke-linecap="round" stroke-miterlimit="4" stroke-width="24.381" stroke="none" d="M260.063 401.554v-52.825"></path>
<path fill="none" stroke-linejoin="round" stroke-linecap="round" stroke-miterlimit="4" stroke-width="24.381" stroke="none" d="M260.063 682.667c0 126.952 0 198.128 0 325.079l130.032-133.365"></path>
</svg>
