<!-- Generated by IcoMoon.io -->
<svg version="1.1" xmlns="http://www.w3.org/2000/svg" width="32" height="32" viewBox="0 0 32 32">
<title>twitter</title>
<path d="M29.332 7.734c-1.002 0.435-2.062 0.722-3.147 0.853 1.144-0.684 2.002-1.759 2.413-3.027-1.075 0.64-2.252 1.091-3.48 1.333-0.82-0.89-1.913-1.482-3.107-1.684s-2.42-0.002-3.488 0.568-1.916 1.479-2.411 2.584c-0.496 1.104-0.611 2.342-0.327 3.519-2.174-0.11-4.301-0.676-6.242-1.662s-3.653-2.368-5.025-4.059c-0.481 0.84-0.734 1.792-0.733 2.76-0.002 0.899 0.219 1.785 0.642 2.578s1.036 1.47 1.784 1.969c-0.869-0.024-1.72-0.257-2.48-0.68v0.067c0.006 1.26 0.448 2.479 1.25 3.451s1.915 1.637 3.15 1.883c-0.476 0.145-0.97 0.221-1.467 0.227-0.344-0.004-0.687-0.035-1.027-0.093 0.352 1.084 1.033 2.031 1.948 2.709s2.019 1.055 3.159 1.077c-1.924 1.514-4.299 2.34-6.747 2.347-0.446 0.001-0.891-0.025-1.333-0.080 2.499 1.614 5.412 2.47 8.387 2.467 2.053 0.021 4.090-0.367 5.991-1.141s3.629-1.92 5.083-3.37c1.454-1.45 2.604-3.175 3.383-5.074s1.173-3.935 1.157-5.988c0-0.227 0-0.467 0-0.707 1.046-0.78 1.949-1.737 2.667-2.827z"></path>
</svg>
